<svg 
 xmlns="http://www.w3.org/2000/svg"
 xmlns:xlink="http://www.w3.org/1999/xlink"
 width="501px" height="324px">
<path fill-rule="evenodd"  fill="rgb(246, 245, 236)"
 d="M474.835,52.434 C469.321,52.434 464.211,50.716 459.992,47.800 L386.600,115.531 C377.245,114.125 367.895,114.092 358.779,115.268 L449.642,33.247 C449.020,31.009 448.663,28.661 448.663,26.227 C448.663,11.749 460.381,0.007 474.835,0.007 C489.280,0.007 501.001,11.749 501.001,26.227 C501.001,40.693 489.280,52.434 474.835,52.434 ZM401.665,133.548 C447.210,150.156 470.685,200.585 454.108,246.217 C437.529,291.836 387.193,315.355 341.643,298.748 C296.106,282.146 272.631,231.713 289.205,186.093 C305.787,140.459 356.127,116.947 401.665,133.548 ZM319.272,197.051 C308.750,226.031 323.660,258.073 352.584,268.624 C381.513,279.179 413.511,264.228 424.038,235.254 C434.559,206.259 419.651,174.226 390.722,163.675 C361.797,153.124 329.796,168.068 319.272,197.051 ZM278.924,174.804 L220.037,142.789 C215.328,147.353 208.924,150.172 201.854,150.172 C197.604,150.172 193.605,149.136 190.057,147.334 L108.878,232.791 C111.301,236.765 112.721,241.420 112.721,246.419 C112.721,260.893 101.019,272.638 86.561,272.638 C72.106,272.638 60.386,260.893 60.386,246.419 C60.386,241.683 61.659,237.253 63.853,233.418 L34.159,196.813 C31.639,197.624 28.955,198.072 26.166,198.072 C11.711,198.072 -0.003,186.331 -0.003,171.850 C-0.003,157.379 11.711,145.645 26.166,145.645 C40.612,145.645 52.326,157.379 52.326,171.850 C52.326,178.270 50.017,184.144 46.195,188.702 L75.067,222.897 C78.540,221.191 82.431,220.207 86.561,220.207 C89.956,220.207 93.190,220.876 96.166,222.053 L178.549,135.824 C176.738,132.256 175.694,128.229 175.694,123.952 C175.694,109.474 187.405,97.741 201.854,97.741 C216.309,97.741 228.027,109.474 228.027,123.952 C228.027,124.989 227.951,126.007 227.833,127.012 L287.994,158.488 C284.520,163.554 281.490,169.014 278.924,174.804 ZM489.487,291.026 C497.376,297.651 498.398,309.424 491.787,317.321 C485.174,325.219 473.423,326.245 465.538,319.619 L436.020,294.805 C445.543,286.999 453.728,277.387 460.006,266.240 L489.487,291.026 Z"/>
</svg>