<svg 
 xmlns="http://www.w3.org/2000/svg"
 xmlns:xlink="http://www.w3.org/1999/xlink"
 width="176px" height="176px">
    <path fill-rule="evenodd"  fill="rgb(220, 81, 40)" d="M88.000,0.000 C136.601,0.000 176.000,39.399 176.000,88.000 C176.000,136.601 136.601,176.000 88.000,176.000 C39.399,176.000 -0.000,136.601 -0.000,88.000 C-0.000,39.399 39.399,0.000 88.000,0.000 Z"/>
    <path fill-rule="evenodd"  fill="rgb(246, 245, 236)" d="M131.255,61.486 C130.045,61.486 128.923,61.110 127.996,60.471 L111.882,75.316 C109.828,75.008 107.775,75.001 105.774,75.259 L125.724,57.281 C125.587,56.790 125.509,56.276 125.509,55.742 C125.509,52.569 128.082,49.995 131.255,49.995 C134.427,49.995 137.000,52.569 137.000,55.742 C137.000,58.913 134.427,61.486 131.255,61.486 ZM115.190,79.266 C125.190,82.906 130.344,93.959 126.704,103.961 C123.064,113.960 112.012,119.115 102.011,115.475 C92.013,111.836 86.859,100.782 90.498,90.783 C94.139,80.780 105.192,75.627 115.190,79.266 ZM97.100,93.185 C94.790,99.537 98.063,106.560 104.414,108.872 C110.765,111.186 117.791,107.909 120.102,101.558 C122.412,95.203 119.139,88.182 112.787,85.869 C106.436,83.556 99.410,86.832 97.100,93.185 ZM88.241,88.308 L75.312,81.291 C74.278,82.291 72.872,82.909 71.319,82.909 C70.386,82.909 69.508,82.682 68.729,82.287 L50.905,101.018 C51.437,101.889 51.749,102.910 51.749,104.005 C51.749,107.178 49.180,109.752 46.005,109.752 C42.832,109.752 40.258,107.178 40.258,104.005 C40.258,102.967 40.538,101.996 41.020,101.156 L34.500,93.133 C33.947,93.310 33.357,93.408 32.745,93.408 C29.571,93.408 26.999,90.835 26.999,87.661 C26.999,84.489 29.571,81.917 32.745,81.917 C35.917,81.917 38.489,84.489 38.489,87.661 C38.489,89.068 37.982,90.356 37.143,91.355 L43.482,98.850 C44.244,98.476 45.099,98.260 46.005,98.260 C46.751,98.260 47.461,98.407 48.114,98.665 L66.202,79.764 C65.805,78.982 65.576,78.100 65.576,77.162 C65.576,73.989 68.147,71.417 71.319,71.417 C74.493,71.417 77.066,73.989 77.066,77.162 C77.066,77.389 77.049,77.613 77.023,77.833 L90.232,84.732 C89.469,85.842 88.804,87.039 88.241,88.308 ZM134.472,113.783 C136.204,115.235 136.429,117.815 134.977,119.546 C133.525,121.277 130.945,121.502 129.214,120.050 L122.733,114.611 C124.824,112.900 126.621,110.793 127.999,108.350 L134.472,113.783 Z"/>
</svg>