<?xml version="1.0" standalone="no"?>
<!DOCTYPE svg PUBLIC "-//W3C//DTD SVG 1.1//EN" "http://www.w3.org/Graphics/SVG/1.1/DTD/svg11.dtd" >
<svg xmlns="http://www.w3.org/2000/svg" xmlns:xlink="http://www.w3.org/1999/xlink" version="1.1">
<metadata>
Created by FontForge 20170731 at Tue Jun  6 15:35:22 2017
 By ,,,
Copyright 2017 The Spectral Project Authors (http://github.com/productiontype/spectral)
</metadata>
<defs>
<font id="Spectral-Medium" horiz-adv-x="500" >
  <font-face 
    font-family="Spectral Medium"
    font-weight="500"
    font-stretch="normal"
    units-per-em="1000"
    panose-1="2 2 6 2 6 0 0 0 0 0"
    ascent="800"
    descent="-200"
    x-height="451"
    cap-height="660"
    bbox="-205 -445 1351 1057"
    underline-thickness="50"
    underline-position="-195"
    unicode-range="U+0020-FB06"
  />
<missing-glyph horiz-adv-x="364" 
d="M33 0v666h265v-666h-265zM66 33h199v600h-199v-600z" />
    <glyph glyph-name="uniFB00" unicode="ff" horiz-adv-x="697" 
d="M50 0v16l64 32v357h-78v46h78v38q0 25 16.5 68t47 87.5t73.5 75t96 30.5q22 0 38 -8q14 -5 14 -16q0 -8 -6 -18l-21 -53h-8l-18 7q-27 12 -52 12q-86 0 -86 -147v-76h254v38q0 25 17 68t48.5 87.5t75 75t97.5 30.5q10 0 20 -3t18 -6q28 -13 28 -28q0 -9 -4 -18l-22 -50
h-7l-25 10q-30 13 -64 13q-52 0 -69.5 -34.5t-17.5 -106.5v-76h129v-46h-129v-359l72 -30v-16h-230v16l63 32v357h-254v-359l73 -30v-16h-231z" />
    <glyph glyph-name="uniFB01" unicode="fi" horiz-adv-x="666" 
d="M50 0v16l64 32v357h-78v46h78v38q0 51 41 112t109 105t149 44q23 0 40 -3.5t28 -7.5q37 -11 37 -29q0 -10 -5 -20l-28 -53h-10l-27 12q-28 13 -51 20t-57 7q-73 0 -102.5 -43.5t-29.5 -114.5v-67h348v-403l62 -32v-16h-220v16l64 32v357h-254v-359l73 -30v-16h-231z" />
    <glyph glyph-name="uniFB02" unicode="fl" horiz-adv-x="650" 
d="M50 0v16l64 32v357h-78v46h78v38q0 51 41 112t109 105t149 44q23 0 40 -3.5t28 -7.5q9 -3 16 -6l34 17h16v-702l63 -32v-16h-221v16l64 32v609q-44 24 -105 24q-73 0 -106.5 -46t-33.5 -117v-67h129v-46h-129v-359l73 -30v-16h-231z" />
    <glyph glyph-name="uniFB03" unicode="ffi" horiz-adv-x="1015" 
d="M50 0v16l64 32v357h-78v46h78v38q0 25 16.5 68t47 87.5t73.5 75t96 30.5q22 0 38 -8q14 -5 14 -16q0 -8 -6 -18l-21 -53h-8l-18 7q-27 12 -52 12q-86 0 -86 -147v-76h254v38q0 51 41 112t109 105t149 44q24 0 41 -3.5t28 -7.5q36 -12 36 -29q0 -10 -5 -20l-28 -53h-10
l-26 12q-29 13 -51 20t-57 7q-73 0 -102.5 -43.5t-29.5 -114.5v-67h348v-403l62 -32v-16h-220v16l63 32v357h-253v-359l72 -30v-16h-230v16l63 32v357h-254v-359l73 -30v-16h-231z" />
    <glyph glyph-name="uniFB04" unicode="ffl" horiz-adv-x="999" 
d="M50 0v16l64 32v357h-78v46h78v38q0 25 16.5 68t47 87.5t73.5 75t96 30.5q22 0 38 -8q14 -5 14 -16q0 -8 -6 -18l-21 -53h-8l-18 7q-27 12 -52 12q-86 0 -86 -147v-76h254v38q0 51 41 112t109 105t149 44q24 0 41 -3.5t28 -7.5q9 -3 16 -6l34 17h16v-702l62 -32v-16h-220
v16l64 32v609q-45 24 -106 24q-73 0 -106 -46t-33 -117v-67h129v-46h-129v-359l72 -30v-16h-230v16l63 32v357h-254v-359l73 -30v-16h-231z" />
    <glyph glyph-name="uni0066_uni0062.liga" unicode="fb" horiz-adv-x="915" 
d="M50 0v16l64 32v357h-78v46h78v38q0 51 41 112t109 105t149 44q23 0 40 -3.5t28 -7.5q7 -2 12 -4l42 15h8v-350h4q71 61 149 61q74 0 123 -57t49 -157q0 -122 -68 -189.5t-166 -67.5q-79 0 -145 29l-33 -28h-7v668q-43 22 -101 22q-73 0 -106.5 -46t-33.5 -117v-67h129
v-46h-129v-359l73 -30v-16h-231zM634 389q-48 0 -91 -27v-284q46 -39 109 -39q49 0 85.5 41.5t36.5 142.5q0 86 -41.5 126t-98.5 40z" />
    <glyph glyph-name="uni0066_uni0066_uni0062.liga" unicode="ffb" horiz-adv-x="1263" 
d="M50 0v16l64 32v357h-78v46h78v38q0 25 16.5 68t47 87.5t73.5 75t96 30.5q22 0 38 -8q14 -5 14 -16q0 -8 -6 -18l-21 -53h-8l-18 7q-27 12 -52 12q-86 0 -86 -147v-76h254v38q0 51 41 112t109 105t149 44q24 0 41 -3.5t28 -7.5q7 -2 11 -4l43 15h8v-350h3q72 61 149 61
q74 0 123.5 -57t49.5 -157q0 -122 -68 -189.5t-166 -67.5q-80 0 -145 29l-33 -28h-8v668q-42 22 -101 22q-73 0 -106 -46t-33 -117v-67h129v-46h-129v-359l72 -30v-16h-230v16l63 32v357h-254v-359l73 -30v-16h-231zM983 389q-47 0 -91 -27v-284q45 -39 109 -39
q48 0 85 41.5t37 142.5q0 86 -41.5 126t-98.5 40z" />
    <glyph glyph-name="uni0066_uni0068.liga" unicode="fh" horiz-adv-x="939" 
d="M50 0v16l64 32v357h-78v46h78v38q0 51 41 112t109 105t149 44q23 0 40 -3.5t28 -7.5q10 -3 16 -6l46 17h8v-363h4q37 37 72 55.5t79 18.5q59 0 97 -29.5t38 -88.5v-295l64 -32v-16h-224v16l66 29v252q0 43 -26 64.5t-67 21.5q-25 0 -55 -8t-48 -25v-305l66 -29v-16h-224
v16l64 32v606q-46 27 -109 27q-73 0 -106.5 -46t-33.5 -117v-67h129v-46h-129v-359l73 -30v-16h-231z" />
    <glyph glyph-name="uni0066_uni0066_uni0068.liga" unicode="ffh" horiz-adv-x="1288" 
d="M50 0v16l64 32v357h-78v46h78v38q0 25 16.5 68t47 87.5t73.5 75t96 30.5q22 0 38 -8q14 -5 14 -16q0 -8 -6 -18l-21 -53h-8l-18 7q-27 12 -52 12q-86 0 -86 -147v-76h254v38q0 51 41 112t109 105t149 44q24 0 41 -3.5t28 -7.5q19 -6 35 -17l45 28h8v-363h4q38 37 73 55.5
t78 18.5q59 0 97 -29.5t38 -88.5v-295l64 -32v-16h-224v16l66 29v252q0 43 -26 64.5t-67 21.5q-25 0 -55 -8t-48 -25v-305l66 -29v-16h-225v16l64 32v597l-13 7q-51 29 -114 29q-73 0 -106 -46t-33 -117v-67h129v-46h-129v-359l72 -30v-16h-230v16l63 32v357h-254v-359
l73 -30v-16h-231z" />
    <glyph glyph-name="uni0066_uni006A.liga" unicode="fj" horiz-adv-x="667" 
d="M50 0v16l64 32v357h-78v46h78v38q0 51 41 112t109 105t149 44q23 0 40 -3.5t28 -7.5q37 -11 37 -29q0 -10 -5 -20l-28 -53h-10l-27 12q-28 13 -51 20t-57 7q-73 0 -102.5 -43.5t-29.5 -114.5v-67h348v-445q0 -80 -33 -136.5t-125 -99.5v17q36 32 49.5 72.5t13.5 119.5
v426h-253v-359l73 -30v-16h-231z" />
    <glyph glyph-name="uni0066_uni0066_uni006A.liga" unicode="ffj" horiz-adv-x="1015" 
d="M50 0v16l64 32v357h-78v46h78v38q0 25 16.5 68t47 87.5t73.5 75t96 30.5q22 0 38 -8q14 -5 14 -16q0 -8 -6 -18l-21 -53h-8l-18 7q-27 12 -52 12q-86 0 -86 -147v-76h254v38q0 51 41 112t109 105t149 44q24 0 41 -3.5t28 -7.5q36 -12 36 -29q0 -10 -5 -20l-28 -53h-10
l-26 12q-29 13 -51 20t-57 7q-73 0 -102.5 -43.5t-29.5 -114.5v-67h347v-445q0 -80 -33 -136.5t-124 -99.5v17q36 32 49.5 72.5t13.5 119.5v426h-253v-359l72 -30v-16h-230v16l63 32v357h-254v-359l73 -30v-16h-231z" />
    <glyph glyph-name="uni0066_uni006B.liga" unicode="fk" horiz-adv-x="917" 
d="M50 0v16l64 32v357h-78v46h78v38q0 51 41 112t109 105t149 44q23 0 40 -3.5t28 -7.5q9 -3 16 -6l46 17h8v-493l158 136v6l-49 36v16h195v-16l-64 -35l-158 -122l198 -228l64 -34v-16h-147l-36 52l-161 188v-195l69 -29v-16h-227v16l64 32v606q-46 27 -109 27
q-73 0 -106.5 -46t-33.5 -117v-67h129v-46h-129v-359l73 -30v-16h-231z" />
    <glyph glyph-name="uni0066_uni0066_uni006B.liga" unicode="ffk" horiz-adv-x="1266" 
d="M50 0v16l64 32v357h-78v46h78v38q0 25 16.5 68t47 87.5t73.5 75t96 30.5q22 0 38 -8q14 -5 14 -16q0 -8 -6 -18l-21 -53h-8l-18 7q-27 12 -52 12q-86 0 -86 -147v-76h254v38q0 51 41 112t109 105t149 44q24 0 41 -3.5t28 -7.5q9 -3 15 -6l47 17h8v-493l158 136v6l-49 36
v16h195v-16l-64 -35l-158 -122l197 -228l64 -34v-16h-146l-37 52l-160 188v-195l69 -29v-16h-228v16l64 32v607q-46 26 -109 26q-73 0 -106 -46t-33 -117v-67h129v-46h-129v-359l72 -30v-16h-230v16l63 32v357h-254v-359l73 -30v-16h-231z" />
    <glyph glyph-name="uni0066_t.liga" unicode="ft" horiz-adv-x="710" 
d="M50 0v16l64 32v357h-78v46h78v38q0 25 17 68t48 87.5t75 75t98 30.5q17 0 37 -9q29 -13 29 -28q0 -6 -5 -18l-21 -50h-8l-25 10q-29 13 -64 13q-53 0 -70 -34.5t-17 -106.5v-76h244l77 110h10v-110h133v-46h-133v-297q0 -26 22.5 -38t53.5 -12q35 0 63 7h3v-12
q-11 -23 -42.5 -43t-78.5 -20q-48 0 -82 26t-34 73v316h-236v-359l73 -30v-16h-231z" />
    <glyph glyph-name="uni0066_uni0066_t.liga" unicode="fft" horiz-adv-x="1059" 
d="M50 0v16l64 32v357h-78v46h78v38q0 25 16.5 68t47 87.5t73.5 75t96 30.5q22 0 38 -8q14 -5 14 -16q0 -8 -6 -18l-21 -53h-8l-18 7q-27 12 -52 12q-86 0 -86 -147v-76h254v38q0 25 17 68t48.5 87.5t75 75t97.5 30.5q10 0 20 -3t18 -6q28 -13 28 -28q0 -9 -4 -18l-22 -50
h-7l-25 10q-30 13 -64 13q-52 0 -69.5 -34.5t-17.5 -106.5v-76h243l78 110h9v-110h134v-46h-134v-297q0 -26 22.5 -38t54.5 -12q35 0 63 7h3v-12q-12 -23 -43 -43t-78 -20q-49 0 -82.5 26t-33.5 73v316h-236v-359l72 -30v-16h-230v16l63 32v357h-254v-359l73 -30v-16h-231z
" />
    <glyph glyph-name=".notdef" horiz-adv-x="364" 
d="M33 0v666h265v-666h-265zM66 33h199v600h-199v-600z" />
    <glyph glyph-name="uni0000" horiz-adv-x="0" 
 />
    <glyph glyph-name="uni0000" horiz-adv-x="0" 
 />
    <glyph glyph-name="nonmarkingreturn" horiz-adv-x="333" 
 />
    <glyph glyph-name="uni0020" unicode=" " horiz-adv-x="250" 
 />
    <glyph glyph-name="exclam" unicode="!" horiz-adv-x="254" 
d="M116 204l-49 456h121l-49 -456h-23zM127 -5q-26 0 -45 19.5t-19 44.5q0 26 19 45t45 19q25 0 44.5 -19t19.5 -45q0 -25 -19.5 -44.5t-44.5 -19.5z" />
    <glyph glyph-name="quotedbl" unicode="&#x22;" horiz-adv-x="450" 
d="M114 490l-35 250h92l-35 -250h-22zM314 490l-35 250h92l-35 -250h-22z" />
    <glyph glyph-name="numbersign" unicode="#" horiz-adv-x="514" 
d="M47 0l59 203h-98v47h112l44 153h-98v47h112l61 210h50l-61 -210h130l61 210h50l-61 -210h98v-47h-112l-44 -153h98v-47h-112l-59 -203h-50l59 203h-130l-59 -203h-50zM170 250h130l44 153h-130z" />
    <glyph glyph-name="dollar" unicode="$" horiz-adv-x="514" 
d="M195 -80v77q-62 15 -95 46q-25 21 -37 47.5t-12 49.5q0 20 13.5 26t25.5 6h31l5 -4v-27q0 -69 69 -94v263q-75 35 -106.5 75t-31.5 99q0 53 40.5 101.5t97.5 70.5v84h41v-73q16 3 32 3q12 0 24 -1v71h41v-77q42 -10 67 -31q50 -44 50 -90q0 -20 -13.5 -26.5t-25.5 -6.5
h-32l-5 4v27q0 48 -41 68v-247q73 -38 103.5 -77.5t30.5 -101.5q0 -64 -38 -110.5t-96 -67.5v-84h-41v74q-22 -4 -44 -4h-12v-70h-41zM284 385l8 -4v239q-12 1 -25 1q-16 0 -31 -3v-210q20 -10 48 -23zM149 521q0 -27 9.5 -47.5t36.5 -40.5v169q-46 -28 -46 -81zM249 38
q23 0 43 5v220q-23 13 -56 28v-253h13zM379 148q0 29 -9 49.5t-37 40.5v-178q46 30 46 88z" />
    <glyph glyph-name="percent" unicode="%" horiz-adv-x="760" 
d="M157 345q-68 0 -107 55.5t-39 147.5q0 85 41.5 143.5t104.5 58.5q68 0 107 -55.5t39 -147.5q0 -85 -41.5 -143.5t-104.5 -58.5zM163 372q28 0 40.5 50t12.5 110q0 77 -15.5 134t-50.5 57q-26 0 -39 -49.5t-13 -109.5q0 -78 15.5 -135t49.5 -57zM127 15l467 735l38 -25
l-466 -735zM603 -10q-68 0 -107 55.5t-39 147.5q0 85 41.5 143.5t104.5 58.5q68 0 107 -55.5t39 -147.5q0 -85 -41.5 -143.5t-104.5 -58.5zM609 17q28 0 40.5 50t12.5 110q0 77 -15.5 134t-50.5 57q-26 0 -39 -49.5t-13 -109.5q0 -78 15.5 -135t49.5 -57z" />
    <glyph glyph-name="ampersand" unicode="&#x26;" horiz-adv-x="712" 
d="M221 -10q-89 0 -143 46.5t-54 125.5q0 49 33 96.5t107 93.5q-51 54 -67 86t-16 73q0 58 52.5 108.5t135.5 50.5q80 0 125.5 -36.5t45.5 -93.5q0 -45 -41.5 -81t-120.5 -78q7 -8 16 -17l18 -18l158 -158q53 81 97 214l-98 39v16h240v-16l-86 -37q-31 -70 -62 -131.5
t-65 -110.5l110 -110l83 -36v-16h-176l-82 82q-43 -44 -94.5 -68t-115.5 -24zM179 536q0 -34 18 -62.5t56 -68.5q43 32 66.5 62.5t23.5 71.5q0 38 -22.5 62t-59.5 24q-35 0 -58.5 -24t-23.5 -65zM126 190q0 -64 40 -99t97 -35q77 0 140 54l-150 151q-19 18 -35 34.5
t-30 30.5q-41 -34 -51.5 -63.5t-10.5 -72.5z" />
    <glyph glyph-name="quotesingle" unicode="'" horiz-adv-x="250" 
d="M114 490l-35 250h92l-35 -250h-22z" />
    <glyph glyph-name="parenleft" unicode="(" horiz-adv-x="253" 
d="M224 -150q-81 98 -125.5 209.5t-44.5 235.5t44.5 235.5t125.5 209.5h22v-3q-60 -96 -92 -200.5t-32 -241.5t32 -241t92 -201v-3h-22z" />
    <glyph glyph-name="parenright" unicode=")" horiz-adv-x="253" 
d="M7 -150v3q60 97 92 201t32 241t-32 241.5t-92 200.5v3h22q81 -98 125.5 -209.5t44.5 -235.5t-44.5 -235.5t-125.5 -209.5h-22z" />
    <glyph glyph-name="asterisk" unicode="*" horiz-adv-x="361" 
d="M59 469l102 105l-142 24l21 63l129 -63l-20 142h64l-21 -142l129 63l21 -63l-142 -24l103 -105l-56 -38l-66 125l-67 -125z" />
    <glyph glyph-name="plus" unicode="+" horiz-adv-x="514" 
d="M230 62v184h-183v52h183v184h54v-184h183v-52h-183v-184h-54z" />
    <glyph glyph-name="comma" unicode="," horiz-adv-x="254" 
d="M60 -207v23q44 23 62.5 51t18.5 59q0 51 -50 79l-34 18l-4 10l32 55q15 22 25 22q8 0 25 -9q69 -39 69 -123q0 -53 -33 -101.5t-111 -83.5z" />
    <glyph glyph-name="hyphen" unicode="-" horiz-adv-x="374" 
d="M49 222v70h275v-70h-275z" />
    <glyph glyph-name="period" unicode="." horiz-adv-x="254" 
d="M127 -5q-26 0 -45 19t-19 45t19 45t45 19t45 -19t19 -45t-19 -45t-45 -19z" />
    <glyph glyph-name="slash" unicode="/" horiz-adv-x="250" 
d="M0 -120l200 870h50l-200 -870h-50z" />
    <glyph glyph-name="zero" unicode="0" horiz-adv-x="514" 
d="M257 -10q-107 0 -165.5 91t-58.5 249q0 146 62.5 243t161.5 97q107 0 166 -91t59 -249q0 -146 -63 -243t-162 -97zM277 37q47 0 72.5 74.5t25.5 187.5q0 146 -33.5 235t-100.5 89q-49 0 -75 -73t-26 -187q0 -147 33.5 -236.5t103.5 -89.5z" />
    <glyph glyph-name="one" unicode="1" horiz-adv-x="514" 
d="M152 0v16l91 39v504l-173 -85v36l242 150h30v-605l82 -39v-16h-272z" />
    <glyph glyph-name="two" unicode="2" horiz-adv-x="514" 
d="M52 0v28q107 121 167 194.5t87.5 118t34.5 78.5t7 76q0 58 -29.5 92.5t-75.5 34.5q-105 0 -105 -111v-45l-6 -8h-51q-20 0 -30 7t-10 35q0 59 66 107q40 28 75.5 45.5t94.5 17.5q79 0 130.5 -52t51.5 -125q0 -54 -23 -97.5t-86.5 -111.5t-184.5 -195h243l52 98h16
l-10 -187h-414z" />
    <glyph glyph-name="three" unicode="3" horiz-adv-x="514" 
d="M249 -10q-95 0 -157 46q-58 42 -58 85q0 23 9 28.5t28 5.5h50l8 -8v-33q0 -34 29 -56t90 -22q62 0 95.5 38t33.5 98q0 68 -36.5 107.5t-127.5 39.5h-58v45h33q68 0 111.5 38.5t43.5 103.5q0 118 -101 118q-41 0 -67.5 -24t-26.5 -65v-38l-8 -8h-48q-20 0 -29.5 6t-9.5 30
q0 58 70 100q36 23 68 34t77 11q80 0 133 -45t53 -113q0 -53 -42 -95t-112 -59q94 -13 141.5 -60.5t47.5 -120.5q0 -77 -71.5 -132t-168.5 -55z" />
    <glyph glyph-name="four" unicode="4" horiz-adv-x="514" 
d="M192 0v16l91 39v134h-273v22l343 449h30v-401h119v-70h-119v-134l81 -39v-16h-272zM106 259h177v240z" />
    <glyph glyph-name="five" unicode="5" horiz-adv-x="514" 
d="M202 -10q-104 0 -138 49q-8 11 -8 20q0 13 18 27l39 30h11l10 -19q15 -25 40.5 -42t65.5 -17q58 0 97.5 41t39.5 111q0 62 -41.5 109t-152.5 47q-41 0 -96 -9v323h327v-83h-278v-145q32 2 63 2q146 0 206 -63t60 -140q0 -110 -74.5 -175.5t-188.5 -65.5z" />
    <glyph glyph-name="six" unicode="6" horiz-adv-x="514" 
d="M262 -10q-102 0 -164 70t-62 176q0 159 106 273t288 161v-30q-121 -38 -192.5 -125t-87.5 -205q58 79 158 79q81 0 129 -54.5t48 -136.5q0 -79 -55.5 -143.5t-167.5 -64.5zM146 243q0 -108 34 -157t84 -49q58 0 86 43.5t28 94.5q0 146 -116 146q-74 0 -116 -64v-14z" />
    <glyph glyph-name="seven" unicode="7" horiz-adv-x="514" 
d="M89 0q26 61 50.5 113.5t56 112.5t78 142.5t115.5 202.5h-336v89h419v-24q-48 -92 -101 -200.5t-98 -220t-65 -215.5h-119z" />
    <glyph glyph-name="eight" unicode="8" horiz-adv-x="514" 
d="M258 -10q-88 0 -152.5 42.5t-64.5 113.5q0 46 26.5 89.5t107.5 90.5q-65 40 -90.5 78t-25.5 93q0 70 62 121.5t140 51.5q79 0 136.5 -47t57.5 -119q0 -41 -34.5 -76t-93.5 -67q75 -44 110.5 -85t35.5 -102q0 -89 -69 -136.5t-146 -47.5zM158 532q0 -40 24 -72.5
t104 -75.5q36 22 56 49.5t20 64.5q0 64 -30 95t-79 31q-41 0 -68 -24t-27 -68zM138 167q0 -63 34 -98.5t88 -35.5q55 0 86 28.5t31 78.5q0 57 -43 89t-123 76q-46 -33 -59.5 -64t-13.5 -74z" />
    <glyph glyph-name="nine" unicode="9" horiz-adv-x="514" 
d="M85 -10v30q121 38 192.5 125t87.5 205q-58 -79 -158 -79q-81 0 -129 54.5t-48 136.5q0 79 56 143.5t168 64.5q101 0 163 -70t62 -176q0 -159 -106 -273t-288 -161zM137 485q0 -146 116 -146q74 0 116 63v15q0 108 -34.5 157t-83.5 49q-58 0 -86 -43.5t-28 -94.5z" />
    <glyph glyph-name="colon" unicode=":" horiz-adv-x="254" 
d="M127 -5q-26 0 -45 19t-19 45t19 45t45 19t45 -19t19 -45t-19 -45t-45 -19zM127 328q-26 0 -45 19t-19 45t19 45t45 19t45 -19t19 -45t-19 -45t-45 -19z" />
    <glyph glyph-name="semicolon" unicode=";" horiz-adv-x="254" 
d="M127 328q-26 0 -45 19t-19 45t19 45t45 19t45 -19t19 -45t-19 -45t-45 -19zM60 -207v23q44 23 62.5 51t18.5 59q0 51 -50 79l-34 18l-4 10l32 55q15 22 25 22q8 0 25 -9q69 -39 69 -123q0 -53 -33 -101.5t-111 -83.5z" />
    <glyph glyph-name="less" unicode="&#x3c;" horiz-adv-x="514" 
d="M467 62l-420 185v50l420 185v-56l-349 -154l349 -154v-56z" />
    <glyph glyph-name="equal" unicode="=" horiz-adv-x="514" 
d="M47 348v52h420v-52h-420zM47 144v52h420v-52h-420z" />
    <glyph glyph-name="greater" unicode="&#x3e;" horiz-adv-x="514" 
d="M47 62v56l349 154l-349 154v56l420 -185v-50z" />
    <glyph glyph-name="question" unicode="?" horiz-adv-x="479" 
d="M199 204l-28 149q158 47 158 143q0 68 -31.5 99t-78.5 31q-87 0 -87 -108v-38l-8 -11h-49q-19 0 -28 7t-9 33q0 60 61 103q35 25 66 41.5t81 16.5q80 0 131 -51.5t51 -125.5q0 -66 -46 -118.5t-151 -93.5l-9 -77h-23zM210 -5q-26 0 -45 19.5t-19 44.5q0 26 19 45t45 19
t45 -19t19 -45q0 -25 -19 -44.5t-45 -19.5z" />
    <glyph glyph-name="at" unicode="@" horiz-adv-x="812" 
d="M374 -118q-136 0 -221.5 78t-85.5 207q0 107 53 197t142.5 144t199.5 54q130 0 206.5 -78.5t76.5 -199.5q0 -103 -61.5 -183t-158.5 -80q-85 0 -69 93l3 19q-71 -112 -148 -112q-35 0 -58 29.5t-23 88.5q0 74 32 140.5t84 108t111 41.5q44 0 77 -20l34 19h23l-53 -295
q-8 -43 -3 -57t28 -14q53 0 96 66.5t43 152.5q0 107 -72 180.5t-190 73.5q-141 0 -225.5 -102t-84.5 -247q0 -130 75.5 -203t195.5 -73q65 0 114.5 16t93.5 47l9 -21q-52 -33 -110.5 -51.5t-133.5 -18.5zM310 176q0 -52 10.5 -72t38.5 -20q49 0 107 86l32 184
q-13 17 -28 28.5t-40 11.5q-50 0 -85 -65t-35 -153z" />
    <glyph glyph-name="uni0041" unicode="A" horiz-adv-x="756" 
d="M30 0v16l63 33l257 616h55l254 -613l67 -36v-16h-264v16l88 35l-74 180h-241l-73 -181l84 -34v-16h-216zM258 286h196l-98 241z" />
    <glyph glyph-name="uni0042" unicode="B" horiz-adv-x="669" 
d="M60 0v16l81 40v548l-81 40v16h269q101 0 168 -37t67 -111q0 -51 -35 -93.5t-101 -60.5q91 -12 142.5 -55.5t51.5 -110.5q0 -82 -77 -137t-193 -55h-292zM300 605h-54v-238h59q71 0 110 31t39 85q0 122 -154 122zM337 314h-91v-259h98q77 0 121.5 36.5t44.5 93.5
q0 129 -173 129z" />
    <glyph glyph-name="uni0043" unicode="C" horiz-adv-x="722" 
d="M400 -10q-154 0 -244.5 92t-90.5 231q0 96 48.5 177.5t128 130.5t173.5 49q76 0 119.5 -14t84.5 -34l6 -178h-18l-69 130q-34 24 -61.5 35t-61.5 11q-104 0 -173 -79t-69 -203q0 -140 66.5 -218t161.5 -78q52 0 87.5 14t63.5 33l67 112h17l-12 -161q-44 -22 -94 -36
t-130 -14z" />
    <glyph glyph-name="uni0044" unicode="D" horiz-adv-x="781" 
d="M60 0v16l81 40v548l-81 40v16h304q169 0 261 -85.5t92 -214.5q0 -104 -47 -185.5t-128.5 -128t-184.5 -46.5h-297zM337 605h-91v-550h106q119 0 187.5 74.5t68.5 199.5t-70 200.5t-201 75.5z" />
    <glyph glyph-name="uni0045" unicode="E" horiz-adv-x="659" 
d="M60 0v16l81 40v548l-81 40v16h502v-172h-16l-65 117h-235v-237h166l51 84h16v-221h-16l-51 82h-166v-258h262l66 132h16v-187h-530z" />
    <glyph glyph-name="uni0046" unicode="F" horiz-adv-x="618" 
d="M60 0v16l81 40v548l-81 40v16h492v-172h-16l-63 117h-227v-238h156l51 84h16v-219h-16l-51 82h-156v-258l92 -40v-16h-278z" />
    <glyph glyph-name="uni0047" unicode="G" horiz-adv-x="765" 
d="M401 -10q-144 0 -240 92t-96 231q0 103 49 183.5t131.5 127t180.5 46.5q80 0 125.5 -13.5t88.5 -34.5l6 -168h-16l-72 120q-70 46 -132 46q-111 0 -183.5 -75t-72.5 -190q0 -145 75.5 -226.5t184.5 -81.5q29 0 57.5 3.5t57.5 13.5v171l-89 41v16h264v-16l-70 -44v-158
q-46 -38 -115 -61t-134 -23z" />
    <glyph glyph-name="uni0048" unicode="H" horiz-adv-x="816" 
d="M60 0v16l81 40v548l-81 40v16h265v-16l-79 -40v-236h325v236l-80 40v16h265v-16l-81 -40v-548l81 -40v-16h-265v16l80 40v257h-325v-257l79 -40v-16h-265z" />
    <glyph glyph-name="uni0049" unicode="I" horiz-adv-x="395" 
d="M64 0v16l82 40v548l-82 40v16h267v-16l-81 -40v-548l81 -40v-16h-267z" />
    <glyph glyph-name="uni004A" unicode="J" horiz-adv-x="400" 
d="M49 -173q-33 0 -33 28q0 4 2 14.5t9 44.5h6q17 -4 27 -6.5t23 -2.5q31 0 49 24.5t18 121.5v553l-81 40v16h267v-16l-82 -40v-363q0 -113 -22.5 -202t-65.5 -136q-41 -46 -63.5 -61t-53.5 -15z" />
    <glyph glyph-name="uni004B" unicode="K" horiz-adv-x="732" 
d="M60 0v16l81 40v548l-81 40v16h267v-16l-81 -40v-548l81 -40v-16h-267zM246 337l276 273l-71 34v16h216v-16l-63 -25l-256 -251l308 -325l63 -27v-16h-163z" />
    <glyph glyph-name="uni004C" unicode="L" horiz-adv-x="636" 
d="M60 0v16l81 40v548l-81 40v16h277v-16l-91 -40v-549h237l71 172h16v-227h-510z" />
    <glyph glyph-name="uni004D" unicode="M" horiz-adv-x="968" 
d="M56 0v16l80 40l21 548l-86 40v16h199l224 -517l223 517h191v-16l-85 -37l17 -551l72 -40v-16h-247v16l75 39l-10 489l-236 -549h-48l-234 543l-13 -483l83 -39v-16h-226z" />
    <glyph glyph-name="uni004E" unicode="N" horiz-adv-x="803" 
d="M56 0v16l81 40v546l-80 42v16h157l383 -471v416l-103 39v16h253v-16l-80 -39v-610h-43l-417 512v-452l103 -39v-16h-254z" />
    <glyph glyph-name="uni004F" unicode="O" horiz-adv-x="803" 
d="M401 -10q-145 0 -240.5 96.5t-95.5 243.5t95.5 243.5t240.5 96.5t241 -96.5t96 -243.5t-96 -243.5t-241 -96.5zM421 40q91 0 148 70t57 189q0 146 -70 234t-171 88q-91 0 -149.5 -69.5t-58.5 -188.5q0 -146 71 -234.5t173 -88.5z" />
    <glyph glyph-name="uni0050" unicode="P" horiz-adv-x="649" 
d="M60 0v16l81 40v548l-81 40v16h280q118 0 189.5 -43t71.5 -136q0 -83 -81.5 -136t-203.5 -53h-70v-236l92 -40v-16h-278zM246 605v-260h76q79 0 124 36t45 92q0 70 -45.5 101t-130.5 31h-69z" />
    <glyph glyph-name="uni0051" unicode="Q" horiz-adv-x="803" 
d="M683 -150q-61 0 -131.5 26t-182.5 115q-132 12 -218 106t-86 233q0 147 95.5 243.5t240.5 96.5t241 -96.5t96 -243.5q0 -120 -65.5 -208t-170.5 -118q84 -67 138.5 -93t103.5 -26q37 0 64 9v-17q-51 -27 -125 -27zM421 40q91 0 148 70t57 189q0 146 -70 234t-171 88
q-91 0 -149.5 -69.5t-58.5 -188.5q0 -146 71 -234.5t173 -88.5z" />
    <glyph glyph-name="uni0052" unicode="R" horiz-adv-x="677" 
d="M60 0v16l81 40v548l-81 40v16h278q105 0 165.5 -43.5t60.5 -119.5q0 -56 -38 -99t-100 -66l189 -279l67 -37v-16h-161l-192 304h-83v-247l75 -41v-16h-261zM305 605h-59v-248h65q62 0 102.5 35.5t40.5 90.5q0 57 -39.5 89.5t-109.5 32.5z" />
    <glyph glyph-name="uni0053" unicode="S" horiz-adv-x="541" 
d="M266 -10q-63 0 -107.5 12t-91.5 35l-10 165h16l53 -109q67 -55 137 -55q58 0 91.5 30t33.5 82q0 62 -42 89t-121 66q-71 34 -109 71.5t-38 105.5q0 48 30 91t78 70t101 27q47 0 88 -11t81 -32l10 -160h-16l-52 107q-32 25 -58 36t-59 11q-43 0 -71.5 -29t-28.5 -73
q0 -49 30.5 -77t98.5 -60q91 -44 134 -83.5t43 -115.5q0 -63 -34.5 -106t-85.5 -65t-101 -22z" />
    <glyph glyph-name="uni0054" unicode="T" horiz-adv-x="680" 
d="M187 0v16l101 40v549h-158l-71 -151h-16v206h594v-206h-16l-70 151h-159v-549l102 -40v-16h-307z" />
    <glyph glyph-name="uni0055" unicode="U" horiz-adv-x="816" 
d="M409 -10q-116 0 -192 64t-76 209v341l-81 40v16h267v-16l-81 -40v-330q0 -124 56.5 -173t138.5 -49q66 0 115 43t49 144v367l-98 38v16h249v-16l-81 -39v-342q0 -145 -75.5 -209t-190.5 -64z" />
    <glyph glyph-name="uni0056" unicode="V" horiz-adv-x="746" 
d="M356 -5l-256 613l-69 36v16h265v-16l-87 -38l187 -450h5l185 453l-83 35v16h211v-16l-57 -31l-261 -618h-40z" />
    <glyph glyph-name="uni0057" unicode="W" horiz-adv-x="995" 
d="M276 -5l-186 612l-76 37v16h269v-16l-85 -37l122 -422h6l173 480h42l176 -480h6l121 421l-85 38v16h222v-16l-67 -36l-188 -613h-41l-180 479h-7l-182 -479h-40z" />
    <glyph glyph-name="uni0058" unicode="X" horiz-adv-x="749" 
d="M33 0v16l73 37l213 272l-208 283l-64 36v16h269v-16l-80 -38v-5l155 -206l162 207v4l-77 38v16h216v-16l-64 -36l-203 -258l221 -295l71 -39v-16h-274v16l73 36v4l-164 224l-171 -223v-4l80 -37v-16h-228z" />
    <glyph glyph-name="uni0059" unicode="Y" horiz-adv-x="727" 
d="M225 0v16l90 40v252l-221 301l-63 35v16h258v-16l-73 -36v-4l177 -241l160 240v4l-74 37v16h216v-16l-65 -33l-211 -302v-253l90 -40v-16h-284z" />
    <glyph glyph-name="uni005A" unicode="Z" horiz-adv-x="659" 
d="M89 0v27l341 578h-249l-64 -132h-16v187h458v-27l-342 -578h271l66 142h16v-197h-481z" />
    <glyph glyph-name="bracketleft" unicode="[" horiz-adv-x="253" 
d="M64 -150v890h181v-24h-116v-842h116v-24h-181z" />
    <glyph glyph-name="backslash" unicode="\" horiz-adv-x="250" 
d="M200 -120l-200 870h50l200 -870h-50z" />
    <glyph glyph-name="bracketright" unicode="]" horiz-adv-x="253" 
d="M8 -150v24h116v842h-116v24h181v-890h-181z" />
    <glyph glyph-name="asciicircum" unicode="^" horiz-adv-x="514" 
d="M47 250l185 420h50l185 -420h-56l-153 348l-154 -348h-57z" />
    <glyph glyph-name="underscore" unicode="_" 
d="M25 -140v50h450v-50h-450z" />
    <glyph glyph-name="grave" unicode="`" 
d="M323 530l-126 113q-21 18 -28 33t-7 31h89l86 -177h-14z" />
    <glyph glyph-name="uni0061" unicode="a" horiz-adv-x="495" 
d="M155 -10q-48 0 -79.5 28.5t-31.5 78.5q0 49 35.5 84.5t123.5 56.5l95 22v70q0 36 -26.5 60t-61.5 24q-66 0 -66 -71v-32l-5 -5h-55q-26 0 -26 29q0 50 55 84q30 19 61 30.5t66 11.5q58 0 105.5 -24.5t47.5 -88.5v-279q15 -17 54 -17h35l4 -2v-6q-12 -21 -36.5 -37.5
t-59.5 -16.5q-65 0 -85 62h-7q-26 -26 -63.5 -44t-79.5 -18zM135 119q0 -62 73 -62q42 0 90 20v148q-108 -21 -135.5 -46.5t-27.5 -59.5z" />
    <glyph glyph-name="uni0062" unicode="b" horiz-adv-x="565" 
d="M100 -9v645l-61 51v8l148 55h7v-350h4q72 61 149 61q73 0 123 -57t50 -157q0 -122 -68.5 -189.5t-166.5 -67.5q-78 0 -145 29l-33 -28h-7zM286 389q-48 0 -92 -27v-284q46 -39 109 -39q49 0 85.5 41.5t36.5 142.5q0 86 -41.5 126t-97.5 40z" />
    <glyph glyph-name="uni0063" unicode="c" horiz-adv-x="480" 
d="M258 -10q-97 0 -154 59t-57 157q0 112 67 183.5t168 71.5q42 0 80 -13.5t58 -35.5q15 -18 15 -30q0 -13 -12 -24l-41 -33h-7l-34 46q-15 21 -36 33.5t-53 12.5q-53 0 -83 -44t-30 -121q0 -70 36.5 -124.5t130.5 -54.5q58 0 128 38h3v-12q-23 -46 -70 -77.5t-109 -31.5z
" />
    <glyph glyph-name="uni0064" unicode="d" horiz-adv-x="565" 
d="M214 -10q-74 0 -123.5 55t-49.5 149q0 128 70.5 197.5t169.5 69.5q50 0 86 -9v184l-66 51v8l153 55h7v-705l71 -29v-16h-155l-9 51h-6q-72 -61 -148 -61zM136 219q0 -82 41 -119.5t98 -37.5q48 0 92 28v282q-45 40 -93 40q-56 0 -97 -43t-41 -150z" />
    <glyph glyph-name="uni0065" unicode="e" horiz-adv-x="487" 
d="M259 -10q-98 0 -155 59t-57 157q0 112 66.5 183.5t154.5 71.5q80 0 125 -54.5t46 -156.5l-5 -5h-295q1 -69 38.5 -120.5t130.5 -51.5q57 0 129 38h3v-12q-24 -46 -71 -77.5t-110 -31.5zM250 417q-93 0 -109 -126h213q-10 68 -36 97t-68 29z" />
    <glyph glyph-name="uni0066" unicode="f" horiz-adv-x="349" 
d="M50 0v16l64 32v357h-78v46h78v38q0 36 31 98.5t84.5 112.5t122.5 50q17 0 37 -9q29 -13 29 -28q0 -6 -5 -18l-21 -50h-8l-25 10q-29 13 -64 13q-53 0 -70 -34.5t-17 -106.5v-76h129v-46h-129v-359l73 -30v-16h-231z" />
    <glyph glyph-name="uni0067" unicode="g" horiz-adv-x="545" 
d="M258 144q-45 0 -83 16q-33 -14 -33 -46q0 -50 72 -50h118q145 0 145 -129q0 -65 -65 -120t-176 -55q-95 0 -137 33.5t-42 82.5q0 36 18 64l68 44v5q-78 17 -78 86q0 39 27 66l54 29v6q-69 46 -69 127q0 67 51.5 112.5t129.5 45.5q50 0 92 -19l150 9v-55l-95 6l-4 -4
q38 -40 38 -95q0 -68 -52 -113.5t-129 -45.5zM267 186q38 0 59.5 33t21.5 81q0 56 -28 88.5t-68 32.5q-41 0 -62.5 -33.5t-21.5 -81.5q0 -54 27.5 -87t71.5 -33zM131 -111q0 -43 33 -71t84 -28q65 0 105.5 36t40.5 82q0 43 -23 59.5t-81 16.5h-102h-10q-47 -28 -47 -95z" />
    <glyph glyph-name="uni0068" unicode="h" horiz-adv-x="590" 
d="M44 0v16l64 32v588l-61 51v8l148 55h7v-363h4q38 37 73 55.5t79 18.5q58 0 96.5 -29.5t38.5 -88.5v-295l63 -32v-16h-224v16l66 29v252q0 43 -26 64.5t-67 21.5q-25 0 -55 -8t-48 -25v-305l66 -29v-16h-224z" />
    <glyph glyph-name="uni0069" unicode="i" horiz-adv-x="318" 
d="M157 577q-27 0 -45 18t-18 45q0 28 18 45.5t45 17.5t45 -17.5t18 -45.5q0 -27 -18 -45t-45 -18zM49 0v16l64 32v299l-61 51v8l148 55h7v-413l62 -32v-16h-220z" />
    <glyph glyph-name="uni006A" unicode="j" horiz-adv-x="318" 
d="M157 577q-28 0 -45.5 18t-17.5 45q0 28 17.5 45.5t45.5 17.5q27 0 45 -17.5t18 -45.5q0 -27 -18 -45t-45 -18zM50 -230v17q35 32 49 72.5t14 119.5v368l-61 51v8l147 55h8v-455q0 -80 -33 -136.5t-124 -99.5z" />
    <glyph glyph-name="uni006B" unicode="k" horiz-adv-x="569" 
d="M44 0v16l64 32v588l-61 51v8l148 55h7v-493l159 136v6l-49 36v16h195v-16l-64 -35l-159 -122l198 -228l64 -34v-16h-147l-36 52l-161 188v-195l70 -29v-16h-228z" />
    <glyph glyph-name="uni006C" unicode="l" horiz-adv-x="301" 
d="M41 0v16l63 32v588l-60 51v8l147 55h8v-702l62 -32v-16h-220z" />
    <glyph glyph-name="uni006D" unicode="m" horiz-adv-x="870" 
d="M44 0v16l64 32v299l-61 50v8l138 56h7l9 -74h5q37 37 71 55.5t76 18.5q48 0 82 -21.5t44 -63.5h4q41 43 77 64t81 21q58 0 94.5 -29.5t36.5 -88.5v-295l64 -32v-16h-225v16l67 32v249q0 43 -25 64.5t-64 21.5q-68 0 -106 -41v-294l65 -32v-16h-222v16l63 32v249
q0 43 -24.5 64.5t-63.5 21.5q-24 0 -52.5 -8t-46.5 -25v-302l61 -32v-16h-219z" />
    <glyph glyph-name="uni006E" unicode="n" horiz-adv-x="590" 
d="M44 0v16l64 32v299l-61 50v8l138 56h7l9 -74h5q38 37 73 55.5t79 18.5q58 0 96.5 -29.5t38.5 -88.5v-295l63 -32v-16h-224v16l66 32v249q0 43 -26 64.5t-67 21.5q-25 0 -55 -8t-48 -25v-302l66 -32v-16h-224z" />
    <glyph glyph-name="uni006F" unicode="o" horiz-adv-x="542" 
d="M271 -10q-101 0 -163 68t-62 168t62 167.5t163 67.5q100 0 162 -67.5t62 -167.5t-62 -168t-162 -68zM284 34q57 0 82.5 53.5t25.5 118.5q0 80 -31 146t-101 66q-58 0 -84.5 -52.5t-26.5 -118.5q0 -80 32 -146.5t103 -66.5z" />
    <glyph glyph-name="uni0070" unicode="p" horiz-adv-x="572" 
d="M44 -230v16l64 32v528l-61 51v8l138 56h7l8 -61h7q71 61 148 61q73 0 123 -57t50 -157q0 -122 -67.5 -189.5t-161.5 -67.5q-54 0 -97 10v-182l73 -32v-16h-231zM294 389q-48 0 -92 -27v-284q48 -39 118 -39q45 0 79 39.5t34 136.5q0 91 -41.5 132.5t-97.5 41.5z" />
    <glyph glyph-name="uni0071" unicode="q" horiz-adv-x="563" 
d="M298 -230v16l72 29v235h-6q-69 -60 -147 -60q-73 0 -122.5 55t-49.5 149q0 128 70.5 197.5t170.5 69.5q35 0 62.5 -5.5t56.5 -16.5l52 22h7v-644l64 -31v-16h-230zM139 219q0 -82 41.5 -119.5t98.5 -37.5q46 0 91 28v238q0 34 -2 41.5t-9 14.5q-19 16 -42 22t-48 6
q-53 0 -91.5 -43t-38.5 -150z" />
    <glyph glyph-name="uni0072" unicode="r" horiz-adv-x="404" 
d="M47 0v16l64 32v298l-61 51v8l138 56h8l9 -86h4q35 57 61 71.5t52 14.5q17 0 37 -8q30 -11 30 -28q0 -9 -4 -18l-21 -53h-7l-35 14q-19 7 -45 7q-43 0 -71 -41v-286l73 -32v-16h-232z" />
    <glyph glyph-name="uni0073" unicode="s" horiz-adv-x="433" 
d="M212 -10q-48 0 -82.5 8.5t-69.5 26.5v112h15l32 -54q33 -55 102 -55q83 0 83 68q0 40 -29.5 57t-84.5 42q-52 23 -79.5 51t-27.5 77q0 58 46 98t103 40q36 0 68 -8.5t63 -24.5v-111h-14l-33 52q-33 52 -81 52q-73 0 -73 -62q0 -32 23 -49.5t74 -39.5q43 -20 82.5 -45
t39.5 -95q0 -68 -52 -104t-105 -36z" />
    <glyph glyph-name="t" unicode="t" horiz-adv-x="362" 
d="M211 -10q-48 0 -81.5 26t-33.5 73v316h-80v8l87 38l78 110h9v-110h133v-46h-133v-297q0 -26 22.5 -38t53.5 -12q34 0 64 7h3v-12q-12 -23 -43.5 -43t-78.5 -20z" />
    <glyph glyph-name="u" unicode="u" horiz-adv-x="568" 
d="M223 -10q-59 0 -96.5 30t-37.5 88v296l-64 31v16h158v-297q0 -42 25.5 -64t66.5 -22q25 0 55 8.5t48 25.5v302l-68 31v16h163v-406l69 -29v-16h-164v63h-5q-73 -73 -150 -73z" />
    <glyph glyph-name="v" unicode="v" horiz-adv-x="479" 
d="M224 0l-184 405l-66 30v16h249v-16l-79 -29v-6l123 -265h4l108 260v5l-70 35v16h196v-16l-73 -34l-183 -401h-25z" />
    <glyph glyph-name="w" unicode="w" horiz-adv-x="747" 
d="M199 0l-159 405l-66 30v16h249v-16l-79 -29v-6l100 -264h4l136 315h25l136 -312h4l98 256v5l-70 35v16h196v-16l-73 -34l-169 -401h-25l-139 313l-143 -313h-25z" />
    <glyph glyph-name="x" unicode="x" horiz-adv-x="509" 
d="M24 0v16l54 34l132 170l-135 185l-47 30v16h222v-16l-65 -29v-6l89 -121l80 115v6l-55 35v16h169v-16l-53 -34l-119 -152l148 -203l41 -30v-16h-211v16l59 29v6l-101 138l-91 -132v-6l61 -35v-16h-178z" />
    <glyph glyph-name="y" unicode="y" horiz-adv-x="479" 
d="M83 -241q-23 0 -28.5 6.5t-5.5 22.5v54l4 5h46q37 0 52 11.5t43 72.5l33 75l-187 399l-66 30v16h248v-16l-78 -30v-5l128 -276h4l105 271v5l-71 35v16h195v-16l-74 -33l-198 -481q-14 -35 -22.5 -54t-30.5 -50q-41 -58 -97 -58z" />
    <glyph glyph-name="z" unicode="z" horiz-adv-x="487" 
d="M66 0v18l222 389h-160l-46 -102h-17l11 156h5q13 -3 32 -6.5t33 -3.5h263v-18l-223 -388h175l39 109h17v-154h-351z" />
    <glyph glyph-name="braceleft" unicode="{" horiz-adv-x="253" 
d="M225 -150q-83 0 -120.5 37t-37.5 96q0 62 24 113.5t24 102.5q0 34 -18.5 59.5t-67.5 25.5h-25v23h25q49 0 67.5 25.5t18.5 58.5q0 51 -24 102.5t-24 113.5q0 59 37.5 96t120.5 37h20v-24h-27q-44 0 -65 -25t-21 -66q0 -59 21.5 -109.5t21.5 -102.5q0 -37 -19.5 -66
t-67.5 -52q48 -23 67.5 -52t19.5 -66q0 -52 -21.5 -102.5t-21.5 -109.5q0 -41 21 -66t65 -25h27v-24h-20z" />
    <glyph glyph-name="bar" unicode="|" horiz-adv-x="250" 
d="M100 -250v1000h50v-1000h-50z" />
    <glyph glyph-name="braceright" unicode="}" horiz-adv-x="253" 
d="M28 -150h-20v24h27q43 0 64.5 25t21.5 66q0 59 -21.5 109.5t-21.5 102.5q0 37 19 66t68 52q-49 23 -68 52t-19 66q0 52 21.5 102.5t21.5 109.5q0 41 -21.5 66t-64.5 25h-27v24h20q83 0 120.5 -37t37.5 -96q0 -62 -24 -113.5t-24 -102.5q0 -33 18.5 -58.5t67.5 -25.5h25
v-23h-25q-49 0 -67.5 -25.5t-18.5 -59.5q0 -51 24 -102.5t24 -113.5q0 -59 -37.5 -96t-120.5 -37z" />
    <glyph glyph-name="asciitilde" unicode="~" horiz-adv-x="514" 
d="M47 201q0 67 31 104.5t83 37.5q47 0 78 -22.5t56.5 -45t58.5 -22.5q60 0 60 90h53q0 -67 -30.5 -104.5t-83.5 -37.5q-47 0 -78 22.5t-57 45t-58 22.5q-60 0 -60 -90h-53z" />
    <glyph glyph-name="uni00A0" unicode="&#xa0;" horiz-adv-x="250" 
 />
    <glyph glyph-name="exclamdown" unicode="&#xa1;" horiz-adv-x="254" 
d="M127 333q-25 0 -44.5 19.5t-19.5 44.5t19.5 44.5t44.5 19.5t44.5 -19.5t19.5 -44.5t-19.5 -44.5t-44.5 -19.5zM67 -204l49 456h23l49 -456h-121z" />
    <glyph glyph-name="cent" unicode="&#xa2;" horiz-adv-x="514" 
d="M171 26l20 82q-131 45 -131 203q0 112 67 183.5t168 71.5h9l17 69h46l-18 -75q56 -12 83 -42q16 -19 16 -30q0 -14 -13 -24l-40 -34h-7l-34 46q-10 14 -21 23l-76 -309q28 -8 62 -8q59 0 128 39h3v-25q-29 -44 -74.5 -72.5t-104.5 -28.5q-19 0 -36 2l-18 -71h-46z
M156 357q0 -106 60 -148l76 309q-12 2 -26 2q-52 0 -81 -43t-29 -120z" />
    <glyph glyph-name="sterling" unicode="&#xa3;" horiz-adv-x="514" 
d="M49 0v44q71 58 98 99t27 78q0 20 -8.5 43.5t-20.5 47.5h-100v44h79q-15 29 -26 58.5t-11 57.5q0 76 55 137t145 61q55 0 92.5 -17t57.5 -41q16 -19 16 -30q0 -14 -13 -24l-48 -38h-7l-14 26q-22 39 -42 57.5t-56 18.5q-47 0 -70.5 -27t-23.5 -65q0 -37 23 -83t46 -91h156
v-44h-136q14 -37 14 -62q0 -80 -127 -161h247l30 97h36l-10 -186h-409z" />
    <glyph glyph-name="currency" unicode="&#xa4;" horiz-adv-x="514" 
d="M47 99l79 78q-31 44 -31 95t31 95l-79 78l37 37l79 -78q43 30 94 30q50 0 95 -30l78 78l37 -37l-78 -78q30 -43 30 -95t-30 -95l78 -78l-37 -37l-78 78q-43 -30 -95 -30q-51 0 -94 30l-79 -78zM257 158q47 0 78 32.5t31 81.5t-31 81.5t-78 32.5t-78 -32.5t-31 -81.5
t31 -81.5t78 -32.5z" />
    <glyph glyph-name="yen" unicode="&#xa5;" horiz-adv-x="514" 
d="M121 0v16l85 40v184h-133v44h133v106h-133v44h103l-136 190l-38 20v16h226v-16l-62 -23v-2l120 -177l107 172v4l-62 26v16h182v-16l-49 -20l-130 -190h103v-44h-131v-106h131v-44h-131v-184l85 -40v-16h-270z" />
    <glyph glyph-name="brokenbar" unicode="&#xa6;" horiz-adv-x="250" 
d="M100 350v400h50v-400h-50zM100 -250v400h50v-400h-50z" />
    <glyph glyph-name="section" unicode="&#xa7;" horiz-adv-x="508" 
d="M196 -120q-34 0 -64 12.5t-46 27.5q-17 19 -16 30q0 12 13 22l39 37h6l20 -22q17 -19 41 -36.5t58 -17.5q38 0 62 21.5t24 54.5q0 47 -30.5 68.5t-75.5 32.5t-89.5 24.5t-75 43.5t-30.5 90q0 47 28 81t76 54q-17 15 -27.5 39t-10.5 59q0 68 61 118.5t155 50.5
q32 0 55.5 -11t38.5 -25q16 -16 16 -27q-2 -9 -13 -22l-37 -34h-5l-19 21q-16 17 -37.5 32.5t-52.5 15.5q-35 0 -59.5 -21.5t-24.5 -53.5q0 -47 30 -69t74.5 -33t89 -24t74.5 -41t30 -85q0 -50 -29.5 -86t-81.5 -55q22 -15 35 -40t13 -63q0 -44 -32 -82.5t-81.5 -62.5
t-101.5 -24zM113 303q0 -51 34.5 -71.5t83.5 -30.5t93 -27q29 6 51 27t22 50q0 53 -39 72t-93 27.5t-98 31.5q-54 -19 -54 -79z" />
    <glyph glyph-name="dieresis" unicode="&#xa8;" 
d="M156 566q-22 0 -36.5 14.5t-14.5 36.5t14.5 36.5t36.5 14.5q51 0 51 -51t-51 -51zM344 566q-22 0 -37 14.5t-15 36.5t15 36.5t37 14.5t36.5 -14.5t14.5 -36.5t-14.5 -36.5t-36.5 -14.5z" />
    <glyph glyph-name="copyright" unicode="&#xa9;" horiz-adv-x="806" 
d="M403 -10q-143 0 -238 96.5t-95 243.5t95 243.5t238 96.5t238 -96.5t95 -243.5t-95 -243.5t-238 -96.5zM403 27q126 0 210 86t84 217t-84 217t-210 86t-210 -86t-84 -217t84 -217t210 -86zM415 129q-95 0 -148.5 55t-53.5 140q0 86 62.5 151t148.5 65q45 0 71.5 -9
t53.5 -22l4 -115h-29l-36 77q-35 24 -64 24q-58 0 -96 -43.5t-38 -110.5q0 -78 36 -122t90 -44q43 0 79 22l36 69h29l-8 -105q-28 -14 -60 -23t-77 -9z" />
    <glyph glyph-name="ordfeminine" unicode="&#xaa;" horiz-adv-x="403" 
d="M144 417q-26 0 -44 15.5t-18 44.5t18 45.5t68 29.5l50 13v33q0 44 -42 44q-32 0 -32 -30v-24l-2 -2h-37q-14 0 -14 16q0 24 33 44q37 23 73 23q93 0 93 -67v-140q9 -9 27 -9h15l2 -2v-7q-6 -10 -20 -18.5t-36 -8.5q-43 0 -57 35h-3q-32 -35 -74 -35zM151 491
q0 -32 36 -32q15 0 31 6v78q-41 -9 -54 -21t-13 -31zM85 292v50h234v-50h-234z" />
    <glyph glyph-name="guillemotleft" unicode="&#xab;" horiz-adv-x="439" 
d="M221 70l-200 177l200 177h13l-110 -177l110 -177h-13zM404 70l-200 177l200 177h13l-110 -177l110 -177h-13z" />
    <glyph glyph-name="logicalnot" unicode="&#xac;" horiz-adv-x="514" 
d="M415 62v184h-368v52h420v-236h-52z" />
    <glyph glyph-name="uni00AD" unicode="&#xad;" horiz-adv-x="374" 
d="M49 222v70h275v-70h-275z" />
    <glyph glyph-name="registered" unicode="&#xae;" horiz-adv-x="543" 
d="M271 235q-91 0 -152 62.5t-61 155.5q0 92 61 154.5t152 62.5q92 0 153 -62.5t61 -154.5q0 -93 -61 -155.5t-153 -62.5zM271 266q80 0 130 53.5t50 133.5q0 79 -50 132.5t-130 53.5q-79 0 -129 -53.5t-50 -132.5q0 -80 50 -133.5t129 -53.5zM162 328v7l31 16v210l-31 16v6
h110q87 0 87 -63q0 -46 -54 -66l54 -106l26 -13v-7h-67l-57 117h-23v-94l30 -16v-7h-106zM257 560h-19v-92h21q22 0 37 12t15 35q0 45 -54 45z" />
    <glyph glyph-name="macron" unicode="&#xaf;" 
d="M114 591v52h272v-52h-272z" />
    <glyph glyph-name="degree" unicode="&#xb0;" 
d="M250 410q-56 0 -93 39t-37 91t37 91t93 39t93 -39t37 -91t-37 -91t-93 -39zM250 450q36 0 61 24.5t25 65.5t-25 65.5t-61 24.5t-61 -24.5t-25 -65.5t25 -65.5t61 -24.5z" />
    <glyph glyph-name="plusminus" unicode="&#xb1;" horiz-adv-x="514" 
d="M230 152v134h-183v52h183v144h54v-144h183v-52h-183v-134h-54zM47 61v52h420v-52h-420z" />
    <glyph glyph-name="uni00B2" unicode="&#xb2;" horiz-adv-x="322" 
d="M27 505v21q77 87 114 136.5t48 80t11 58.5t-14 47.5t-43 19.5q-58 0 -58 -67v-28l-4 -5h-41q-20 0 -20 23q0 38 45 73q20 16 42.5 26t61.5 10q55 0 86.5 -29.5t31.5 -76.5q0 -31 -13.5 -57.5t-55.5 -66t-126 -109.5h167l28 59h15l-6 -115h-269z" />
    <glyph glyph-name="uni00B3" unicode="&#xb3;" horiz-adv-x="325" 
d="M156 495q-58 0 -98 27q-38 26 -38 52q0 16 5.5 19.5t16.5 3.5h39l5 -6v-14q0 -51 62 -51q35 0 52 21.5t17 55.5q0 41 -20.5 63t-73.5 22h-33v29h14q42 0 67.5 22t25.5 65q0 64 -54 64q-49 0 -49 -53v-24l-5 -5h-39q-21 0 -21 25q0 32 38 57q24 16 45 24t53 8q54 0 87 -25
t33 -68q0 -36 -29 -60t-75 -34q124 -13 124 -103q0 -49 -42.5 -82t-106.5 -33z" />
    <glyph glyph-name="acute" unicode="&#xb4;" 
d="M162 530l86 177h89q0 -16 -7 -31t-28 -33l-126 -113h-14z" />
    <glyph glyph-name="mu" unicode="&#xb5;" horiz-adv-x="561" 
d="M244 -10q-26 0 -49.5 7.5t-44.5 27.5l25 -235l-88 -20h-2v681h94v-297q0 -42 26.5 -64t66.5 -22q25 0 54.5 8.5t48.5 25.5v349h94v-382q15 -17 54 -17h36l3 -2v-6q-12 -21 -36.5 -37.5t-59.5 -16.5q-71 0 -87 73h-8q-61 -73 -127 -73z" />
    <glyph glyph-name="paragraph" unicode="&#xb6;" horiz-adv-x="501" 
d="M266 -110v469h-43q-81 0 -134.5 44t-53.5 111q0 76 47.5 111t124.5 35h110v-770h-51zM376 -110v770h133v-16l-81 -40v-714h-52z" />
    <glyph glyph-name="periodcentered" unicode="&#xb7;" horiz-adv-x="250" 
d="M125 207q-26 0 -45 19t-19 45t19 45t45 19t45 -19t19 -45t-19 -45t-45 -19z" />
    <glyph glyph-name="cedilla" unicode="&#xb8;" 
d="M242 -240q-55 0 -83 29v13h3q27 -12 62 -12q54 0 54 39q0 22 -20.5 36t-79.5 32l57 124h36l-34 -73q58 -18 81 -40t23 -61q0 -37 -26 -62t-73 -25z" />
    <glyph glyph-name="uni00B9" unicode="&#xb9;" horiz-adv-x="275" 
d="M62 505v15l56 21v287l-103 -52v30l143 87h42v-352l50 -21v-15h-188z" />
    <glyph glyph-name="ordmasculine" unicode="&#xba;" horiz-adv-x="403" 
d="M202 417q-57 0 -92 36.5t-35 89.5q0 52 35 89t92 37q56 0 91 -37t35 -89q0 -53 -35 -89.5t-91 -36.5zM207 442q23 0 34.5 25t11.5 65q0 50 -15 81t-41 31q-23 0 -35 -26t-12 -64q0 -50 15.5 -81t41.5 -31zM85 292v50h234v-50h-234z" />
    <glyph glyph-name="guillemotright" unicode="&#xbb;" horiz-adv-x="439" 
d="M21 70l111 177l-111 177h13l200 -177l-200 -177h-13zM204 70l111 177l-111 177h13l200 -177l-200 -177h-13z" />
    <glyph glyph-name="onequarter" unicode="&#xbc;" horiz-adv-x="760" 
d="M100 355v15l56 21v287l-103 -52v30l143 87h42v-352l50 -21v-15h-188zM134 15l467 735l38 -25l-466 -735zM509 0v15l55 23v66h-165v15l199 269h49v-243h70v-41h-70v-66l49 -23v-15h-187zM458 145h106v148z" />
    <glyph glyph-name="onehalf" unicode="&#xbd;" horiz-adv-x="760" 
d="M96 355v15l56 21v287l-103 -52v30l143 87h42v-352l50 -21v-15h-188zM103 15l467 735l38 -25l-466 -735zM431 0v21q77 87 114 136.5t48 80t11 58.5t-14 47.5t-43 19.5q-58 0 -58 -67v-28l-4 -5h-41q-20 0 -20 23q0 38 45 73q20 16 42.5 26t61.5 10q55 0 86.5 -29.5
t31.5 -76.5q0 -31 -13.5 -57.5t-55.5 -66t-126 -109.5h167l28 59h15l-6 -115h-269z" />
    <glyph glyph-name="threequarters" unicode="&#xbe;" horiz-adv-x="760" 
d="M169 345q-58 0 -98 27q-38 26 -38 52q0 16 5.5 19.5t16.5 3.5h39l5 -6v-14q0 -51 62 -51q35 0 52 21.5t17 55.5q0 41 -20.5 63t-73.5 22h-33v29h14q42 0 67.5 22t25.5 65q0 64 -54 64q-49 0 -49 -53v-24l-5 -5h-39q-21 0 -21 25q0 32 38 57q24 16 45 24t53 8q54 0 87 -25
t33 -68q0 -36 -29 -60t-75 -34q124 -13 124 -103q0 -49 -42.5 -82t-106.5 -33zM159 15l467 735l38 -25l-466 -735zM534 0v15l55 23v66h-165v15l199 269h49v-243h70v-41h-70v-66l49 -23v-15h-187zM483 145h106v148z" />
    <glyph glyph-name="questiondown" unicode="&#xbf;" horiz-adv-x="479" 
d="M269 333q-25 0 -44.5 19.5t-19.5 44.5t19.5 44.5t44.5 19.5q26 0 45 -19.5t19 -44.5t-19 -44.5t-45 -19.5zM233 -214q-80 0 -131 52t-51 125q0 66 46 118.5t151 93.5l9 77h23l28 -148q-158 -48 -158 -144q0 -67 32 -98t78 -31q87 0 87 107v39l8 10h49q19 0 28 -6.5
t9 -32.5q0 -61 -61 -103q-34 -25 -66 -42t-81 -17z" />
    <glyph glyph-name="uni00C0" unicode="&#xc0;" horiz-adv-x="756" 
d="M30 0v16l63 33l257 616h55l254 -613l67 -36v-16h-264v16l88 35l-74 180h-241l-73 -181l84 -34v-16h-216zM258 286h196l-98 241zM371 710l-126 88q-23 16 -29 32t-6 32h89l86 -152h-14z" />
    <glyph glyph-name="uni00C1" unicode="&#xc1;" horiz-adv-x="756" 
d="M30 0v16l63 33l257 616h55l254 -613l67 -36v-16h-264v16l88 35l-74 180h-241l-73 -181l84 -34v-16h-216zM258 286h196l-98 241zM372 710l86 152h89q0 -16 -6.5 -32.5t-28.5 -31.5l-126 -88h-14z" />
    <glyph glyph-name="uni00C2" unicode="&#xc2;" horiz-adv-x="756" 
d="M30 0v16l63 33l257 616h55l254 -613l67 -36v-16h-264v16l88 35l-74 180h-241l-73 -181l84 -34v-16h-216zM258 286h196l-98 241zM228 710l133 152h34l133 -152h-14l-136 73l-136 -73h-14z" />
    <glyph glyph-name="uni00C3" unicode="&#xc3;" horiz-adv-x="756" 
d="M30 0v16l63 33l257 616h55l254 -613l67 -36v-16h-264v16l88 35l-74 180h-241l-73 -181l84 -34v-16h-216zM258 286h196l-98 241zM223 725q25 75 46.5 96t50.5 21q40 0 71.5 -26t65.5 -26q19 0 33.5 10t27.5 42h15q-24 -75 -46 -96t-51 -21q-40 0 -71.5 26t-65.5 26
q-19 0 -33 -10t-28 -42h-15z" />
    <glyph glyph-name="uni00C4" unicode="&#xc4;" horiz-adv-x="756" 
d="M30 0v16l63 33l257 616h55l254 -613l67 -36v-16h-264v16l88 35l-74 180h-241l-73 -181l84 -34v-16h-216zM258 286h196l-98 241zM284 735q-22 0 -36.5 14.5t-14.5 36.5t14.5 36.5t36.5 14.5q51 0 51 -51t-51 -51zM472 735q-22 0 -37 14.5t-15 36.5t15 36.5t37 14.5
t36.5 -14.5t14.5 -36.5t-14.5 -36.5t-36.5 -14.5z" />
    <glyph glyph-name="uni00C5" unicode="&#xc5;" horiz-adv-x="756" 
d="M30 0v16l63 33l257 616h55l254 -613l67 -36v-16h-264v16l88 35l-74 180h-241l-73 -181l84 -34v-16h-216zM258 286h196l-98 241zM378 710q-38 0 -62.5 23.5t-24.5 59.5t24.5 60t62.5 24q39 0 63 -24t24 -60t-24 -59.5t-63 -23.5zM383 734q32 0 32 53q0 66 -41 66
q-31 0 -31 -53q0 -66 40 -66z" />
    <glyph glyph-name="uni00C6" unicode="&#xc6;" horiz-adv-x="993" 
d="M464 660h432v-172h-16l-64 117h-236v-237h166l51 84h16v-221h-16l-51 82h-166v-258h263l65 132h16v-187h-530v16l81 40v178h-204l-110 -184l80 -34v-16h-216v16l64 34zM304 289h171v286z" />
    <glyph glyph-name="uni00C7" unicode="&#xc7;" horiz-adv-x="722" 
d="M381 -210q54 0 54 39q0 22 -20.5 36t-79.5 32l43 94q-145 7 -229 97.5t-84 224.5q0 95 48.5 176.5t128 131t173.5 49.5q76 0 119 -14t85 -34l6 -178h-18l-69 130q-34 24 -61.5 35t-61.5 11q-104 0 -173 -79t-69 -203q0 -140 66.5 -218t161.5 -78q52 0 87.5 14t63.5 33
l67 112h17l-12 -161q-42 -22 -89 -35.5t-121 -14.5l-20 -42q58 -18 81 -40t23 -61q0 -37 -26 -62t-73 -25q-55 0 -83 29v13h4q26 -12 61 -12z" />
    <glyph glyph-name="uni00C8" unicode="&#xc8;" horiz-adv-x="659" 
d="M60 0v16l81 40v548l-81 40v16h502v-172h-16l-65 117h-235v-237h166l51 84h16v-221h-16l-51 82h-166v-258h262l66 132h16v-187h-530zM332 710l-126 88q-23 16 -29 32t-6 32h89l86 -152h-14z" />
    <glyph glyph-name="uni00C9" unicode="&#xc9;" horiz-adv-x="659" 
d="M60 0v16l81 40v548l-81 40v16h502v-172h-16l-65 117h-235v-237h166l51 84h16v-221h-16l-51 82h-166v-258h262l66 132h16v-187h-530zM333 710l86 152h89q0 -16 -6.5 -32.5t-28.5 -31.5l-126 -88h-14z" />
    <glyph glyph-name="uni00CA" unicode="&#xca;" horiz-adv-x="659" 
d="M60 0v16l81 40v548l-81 40v16h502v-172h-16l-65 117h-235v-237h166l51 84h16v-221h-16l-51 82h-166v-258h262l66 132h16v-187h-530zM189 710l133 152h34l133 -152h-14l-136 73l-136 -73h-14z" />
    <glyph glyph-name="uni00CB" unicode="&#xcb;" horiz-adv-x="659" 
d="M60 0v16l81 40v548l-81 40v16h502v-172h-16l-65 117h-235v-237h166l51 84h16v-221h-16l-51 82h-166v-258h262l66 132h16v-187h-530zM246 735q-22 0 -36.5 14.5t-14.5 36.5t14.5 36.5t36.5 14.5q51 0 51 -51t-51 -51zM434 735q-22 0 -37 14.5t-15 36.5t15 36.5t37 14.5
t36.5 -14.5t14.5 -36.5t-14.5 -36.5t-36.5 -14.5z" />
    <glyph glyph-name="uni00CC" unicode="&#xcc;" horiz-adv-x="395" 
d="M64 0v16l82 40v548l-82 40v16h267v-16l-81 -40v-548l81 -40v-16h-267zM190 710l-126 88q-23 16 -29 32t-6 32h89l86 -152h-14z" />
    <glyph glyph-name="uni00CD" unicode="&#xcd;" horiz-adv-x="395" 
d="M64 0v16l82 40v548l-82 40v16h267v-16l-81 -40v-548l81 -40v-16h-267zM191 710l86 152h89q0 -16 -6.5 -32.5t-28.5 -31.5l-126 -88h-14z" />
    <glyph glyph-name="uni00CE" unicode="&#xce;" horiz-adv-x="395" 
d="M64 0v16l82 40v548l-82 40v16h267v-16l-81 -40v-548l81 -40v-16h-267zM48 710l133 152h34l133 -152h-14l-136 73l-136 -73h-14z" />
    <glyph glyph-name="uni00CF" unicode="&#xcf;" horiz-adv-x="395" 
d="M64 0v16l82 40v548l-82 40v16h267v-16l-81 -40v-548l81 -40v-16h-267zM104 735q-22 0 -36.5 14.5t-14.5 36.5t14.5 36.5t36.5 14.5q51 0 51 -51t-51 -51zM292 735q-22 0 -37 14.5t-15 36.5t15 36.5t37 14.5t36.5 -14.5t14.5 -36.5t-14.5 -36.5t-36.5 -14.5z" />
    <glyph glyph-name="uni00D0" unicode="&#xd0;" horiz-adv-x="781" 
d="M60 0v16l81 40v261h-81v50h81v237l-81 40v16h304q169 0 261 -85.5t92 -214.5q0 -104 -47 -185.5t-128.5 -128t-184.5 -46.5h-297zM415 317h-169v-262h106q119 0 187.5 74.5t68.5 199.5t-70 200.5t-201 75.5h-91v-238h169v-50z" />
    <glyph glyph-name="uni00D1" unicode="&#xd1;" horiz-adv-x="803" 
d="M56 0v16l81 40v546l-80 42v16h157l383 -471v416l-103 39v16h253v-16l-80 -39v-610h-43l-417 512v-452l103 -39v-16h-254zM256 725q25 75 46.5 96t50.5 21q40 0 71.5 -26t65.5 -26q19 0 33.5 10t27.5 42h15q-24 -75 -46 -96t-51 -21q-40 0 -71.5 26t-65.5 26
q-19 0 -33 -10t-28 -42h-15z" />
    <glyph glyph-name="uni00D2" unicode="&#xd2;" horiz-adv-x="803" 
d="M401 -10q-145 0 -240.5 96.5t-95.5 243.5t95.5 243.5t240.5 96.5t241 -96.5t96 -243.5t-96 -243.5t-241 -96.5zM421 40q91 0 148 70t57 189q0 146 -70 234t-171 88q-91 0 -149.5 -69.5t-58.5 -188.5q0 -146 71 -234.5t173 -88.5zM383 710l-126 88q-23 16 -29 32t-6 32h89
l86 -152h-14z" />
    <glyph glyph-name="uni00D3" unicode="&#xd3;" horiz-adv-x="803" 
d="M401 -10q-145 0 -240.5 96.5t-95.5 243.5t95.5 243.5t240.5 96.5t241 -96.5t96 -243.5t-96 -243.5t-241 -96.5zM421 40q91 0 148 70t57 189q0 146 -70 234t-171 88q-91 0 -149.5 -69.5t-58.5 -188.5q0 -146 71 -234.5t173 -88.5zM384 710l86 152h89q0 -16 -6.5 -32.5
t-28.5 -31.5l-126 -88h-14z" />
    <glyph glyph-name="uni00D4" unicode="&#xd4;" horiz-adv-x="803" 
d="M401 -10q-145 0 -240.5 96.5t-95.5 243.5t95.5 243.5t240.5 96.5t241 -96.5t96 -243.5t-96 -243.5t-241 -96.5zM421 40q91 0 148 70t57 189q0 146 -70 234t-171 88q-91 0 -149.5 -69.5t-58.5 -188.5q0 -146 71 -234.5t173 -88.5zM241 710l133 152h34l133 -152h-14
l-136 73l-136 -73h-14z" />
    <glyph glyph-name="uni00D5" unicode="&#xd5;" horiz-adv-x="803" 
d="M401 -10q-145 0 -240.5 96.5t-95.5 243.5t95.5 243.5t240.5 96.5t241 -96.5t96 -243.5t-96 -243.5t-241 -96.5zM421 40q91 0 148 70t57 189q0 146 -70 234t-171 88q-91 0 -149.5 -69.5t-58.5 -188.5q0 -146 71 -234.5t173 -88.5zM236 725q25 75 46.5 96t50.5 21
q40 0 71.5 -26t65.5 -26q19 0 33.5 10t27.5 42h15q-24 -75 -46 -96t-51 -21q-40 0 -71.5 26t-65.5 26q-19 0 -33 -10t-28 -42h-15z" />
    <glyph glyph-name="uni00D6" unicode="&#xd6;" horiz-adv-x="803" 
d="M401 -10q-145 0 -240.5 96.5t-95.5 243.5t95.5 243.5t240.5 96.5t241 -96.5t96 -243.5t-96 -243.5t-241 -96.5zM421 40q91 0 148 70t57 189q0 146 -70 234t-171 88q-91 0 -149.5 -69.5t-58.5 -188.5q0 -146 71 -234.5t173 -88.5zM297 735q-22 0 -36.5 14.5t-14.5 36.5
t14.5 36.5t36.5 14.5q51 0 51 -51t-51 -51zM485 735q-22 0 -37 14.5t-15 36.5t15 36.5t37 14.5t36.5 -14.5t14.5 -36.5t-14.5 -36.5t-36.5 -14.5z" />
    <glyph glyph-name="multiply" unicode="&#xd7;" horiz-adv-x="514" 
d="M110 87l-37 38l147 147l-147 147l37 38l148 -147l147 147l37 -38l-147 -147l147 -147l-37 -38l-147 147z" />
    <glyph glyph-name="uni00D8" unicode="&#xd8;" horiz-adv-x="803" 
d="M65 -10l90 102q-90 96 -90 238q0 147 95.5 243.5t240.5 96.5q118 0 207 -67l59 67h71l-91 -102q91 -96 91 -238q0 -147 -96 -243.5t-241 -96.5q-118 0 -206 67l-59 -67h-71zM177 363q0 -113 45 -195l329 371q-67 82 -166 82q-91 0 -149.5 -69.5t-58.5 -188.5zM421 40
q91 0 148 70t57 189q0 112 -44 194l-329 -371q68 -82 168 -82z" />
    <glyph glyph-name="uni00D9" unicode="&#xd9;" horiz-adv-x="816" 
d="M409 -10q-116 0 -192 64t-76 209v341l-81 40v16h267v-16l-81 -40v-330q0 -124 56.5 -173t138.5 -49q66 0 115 43t49 144v367l-98 38v16h249v-16l-81 -39v-342q0 -145 -75.5 -209t-190.5 -64zM417 710l-126 88q-23 16 -29 32t-6 32h89l86 -152h-14z" />
    <glyph glyph-name="uni00DA" unicode="&#xda;" horiz-adv-x="816" 
d="M409 -10q-116 0 -192 64t-76 209v341l-81 40v16h267v-16l-81 -40v-330q0 -124 56.5 -173t138.5 -49q66 0 115 43t49 144v367l-98 38v16h249v-16l-81 -39v-342q0 -145 -75.5 -209t-190.5 -64zM418 710l86 152h89q0 -16 -6.5 -32.5t-28.5 -31.5l-126 -88h-14z" />
    <glyph glyph-name="uni00DB" unicode="&#xdb;" horiz-adv-x="816" 
d="M409 -10q-116 0 -192 64t-76 209v341l-81 40v16h267v-16l-81 -40v-330q0 -124 56.5 -173t138.5 -49q66 0 115 43t49 144v367l-98 38v16h249v-16l-81 -39v-342q0 -145 -75.5 -209t-190.5 -64zM275 710l133 152h34l133 -152h-14l-136 73l-136 -73h-14z" />
    <glyph glyph-name="uni00DC" unicode="&#xdc;" horiz-adv-x="816" 
d="M409 -10q-116 0 -192 64t-76 209v341l-81 40v16h267v-16l-81 -40v-330q0 -124 56.5 -173t138.5 -49q66 0 115 43t49 144v367l-98 38v16h249v-16l-81 -39v-342q0 -145 -75.5 -209t-190.5 -64zM331 735q-22 0 -36.5 14.5t-14.5 36.5t14.5 36.5t36.5 14.5q51 0 51 -51
t-51 -51zM519 735q-22 0 -37 14.5t-15 36.5t15 36.5t37 14.5t36.5 -14.5t14.5 -36.5t-14.5 -36.5t-36.5 -14.5z" />
    <glyph glyph-name="uni00DD" unicode="&#xdd;" horiz-adv-x="727" 
d="M225 0v16l90 40v252l-221 301l-63 35v16h258v-16l-73 -36v-4l177 -241l160 240v4l-74 37v16h216v-16l-65 -33l-211 -302v-253l90 -40v-16h-284zM377 710l86 152h89q0 -16 -6.5 -32.5t-28.5 -31.5l-126 -88h-14z" />
    <glyph glyph-name="uni00DE" unicode="&#xde;" horiz-adv-x="649" 
d="M60 0v16l81 40v548l-81 40v16h267v-16l-81 -40v-66h94q118 0 189.5 -43t71.5 -136q0 -83 -81.5 -136t-203.5 -53h-70v-114l81 -40v-16h-267zM315 483h-69v-260h76q79 0 124 36t45 92q0 70 -45.5 101t-130.5 31z" />
    <glyph glyph-name="germandbls" unicode="&#xdf;" horiz-adv-x="619" 
d="M59 0v16l63 32v356h-78v47h78v29q0 68 29 130t83 101t129 39q83 0 127.5 -38t44.5 -90q0 -53 -32.5 -88.5t-64.5 -70.5t-32 -85q0 -32 26 -52t75 -58q51 -39 70.5 -69.5t19.5 -71.5q0 -57 -46.5 -97t-108.5 -40q-46 0 -80 8.5t-69 26.5v112h14l33 -54q32 -55 94 -55
q37 0 60 19t23 54q0 40 -31.5 65.5t-78.5 57.5q-34 23 -58 49.5t-24 73.5q0 48 30.5 79t61 69.5t30.5 109.5q0 43 -27.5 73t-80.5 30q-67 0 -94.5 -43.5t-27.5 -114.5v-550h-158z" />
    <glyph glyph-name="agrave" unicode="&#xe0;" horiz-adv-x="495" 
d="M155 -10q-48 0 -79.5 28.5t-31.5 78.5q0 49 35.5 84.5t123.5 56.5l95 22v70q0 36 -26.5 60t-61.5 24q-66 0 -66 -71v-32l-5 -5h-55q-26 0 -26 29q0 50 55 84q30 19 61 30.5t66 11.5q58 0 105.5 -24.5t47.5 -88.5v-279q15 -17 54 -17h35l4 -2v-6q-12 -21 -36.5 -37.5
t-59.5 -16.5q-65 0 -85 62h-7q-26 -26 -63.5 -44t-79.5 -18zM135 119q0 -62 73 -62q42 0 90 20v148q-108 -21 -135.5 -46.5t-27.5 -59.5zM223 530l-126 113q-21 18 -28 33t-7 31h89l86 -177h-14z" />
    <glyph glyph-name="aacute" unicode="&#xe1;" horiz-adv-x="495" 
d="M155 -10q-48 0 -79.5 28.5t-31.5 78.5q0 49 35.5 84.5t123.5 56.5l95 22v70q0 36 -26.5 60t-61.5 24q-66 0 -66 -71v-32l-5 -5h-55q-26 0 -26 29q0 50 55 84q30 19 61 30.5t66 11.5q58 0 105.5 -24.5t47.5 -88.5v-279q15 -17 54 -17h35l4 -2v-6q-12 -21 -36.5 -37.5
t-59.5 -16.5q-65 0 -85 62h-7q-26 -26 -63.5 -44t-79.5 -18zM135 119q0 -62 73 -62q42 0 90 20v148q-108 -21 -135.5 -46.5t-27.5 -59.5zM227 530l86 177h89q0 -16 -7 -31t-28 -33l-126 -113h-14z" />
    <glyph glyph-name="acircumflex" unicode="&#xe2;" horiz-adv-x="495" 
d="M155 -10q-48 0 -79.5 28.5t-31.5 78.5q0 49 35.5 84.5t123.5 56.5l95 22v70q0 36 -26.5 60t-61.5 24q-66 0 -66 -71v-32l-5 -5h-55q-26 0 -26 29q0 50 55 84q30 19 61 30.5t66 11.5q58 0 105.5 -24.5t47.5 -88.5v-279q15 -17 54 -17h35l4 -2v-6q-12 -21 -36.5 -37.5
t-59.5 -16.5q-65 0 -85 62h-7q-26 -26 -63.5 -44t-79.5 -18zM135 119q0 -62 73 -62q42 0 90 20v148q-108 -21 -135.5 -46.5t-27.5 -59.5zM80 530l133 177h34l133 -177h-14l-136 92l-136 -92h-14z" />
    <glyph glyph-name="atilde" unicode="&#xe3;" horiz-adv-x="495" 
d="M155 -10q-48 0 -79.5 28.5t-31.5 78.5q0 49 35.5 84.5t123.5 56.5l95 22v70q0 36 -26.5 60t-61.5 24q-66 0 -66 -71v-32l-5 -5h-55q-26 0 -26 29q0 50 55 84q30 19 61 30.5t66 11.5q58 0 105.5 -24.5t47.5 -88.5v-279q15 -17 54 -17h35l4 -2v-6q-12 -21 -36.5 -37.5
t-59.5 -16.5q-65 0 -85 62h-7q-26 -26 -63.5 -44t-79.5 -18zM135 119q0 -62 73 -62q42 0 90 20v148q-108 -21 -135.5 -46.5t-27.5 -59.5zM75 555q27 83 48 104.5t50 21.5q40 0 71.5 -32t63.5 -32q20 0 33 13t29 51h15q-27 -83 -48 -104.5t-50 -21.5q-40 0 -71.5 32t-63.5 32
q-20 0 -33 -13t-29 -51h-15z" />
    <glyph glyph-name="adieresis" unicode="&#xe4;" horiz-adv-x="495" 
d="M155 -10q-48 0 -79.5 28.5t-31.5 78.5q0 49 35.5 84.5t123.5 56.5l95 22v70q0 36 -26.5 60t-61.5 24q-66 0 -66 -71v-32l-5 -5h-55q-26 0 -26 29q0 50 55 84q30 19 61 30.5t66 11.5q58 0 105.5 -24.5t47.5 -88.5v-279q15 -17 54 -17h35l4 -2v-6q-12 -21 -36.5 -37.5
t-59.5 -16.5q-65 0 -85 62h-7q-26 -26 -63.5 -44t-79.5 -18zM135 119q0 -62 73 -62q42 0 90 20v148q-108 -21 -135.5 -46.5t-27.5 -59.5zM136 566q-22 0 -36.5 14.5t-14.5 36.5t14.5 36.5t36.5 14.5q51 0 51 -51t-51 -51zM324 566q-22 0 -37 14.5t-15 36.5t15 36.5t37 14.5
t36.5 -14.5t14.5 -36.5t-14.5 -36.5t-36.5 -14.5z" />
    <glyph glyph-name="aring" unicode="&#xe5;" horiz-adv-x="495" 
d="M155 -10q-48 0 -79.5 28.5t-31.5 78.5q0 49 35.5 84.5t123.5 56.5l95 22v70q0 36 -26.5 60t-61.5 24q-66 0 -66 -71v-32l-5 -5h-55q-26 0 -26 29q0 50 55 84q30 19 61 30.5t66 11.5q58 0 105.5 -24.5t47.5 -88.5v-279q15 -17 54 -17h35l4 -2v-6q-12 -21 -36.5 -37.5
t-59.5 -16.5q-65 0 -85 62h-7q-26 -26 -63.5 -44t-79.5 -18zM135 119q0 -62 73 -62q42 0 90 20v148q-108 -21 -135.5 -46.5t-27.5 -59.5zM230 701q39 0 63 -24t24 -59q0 -36 -24 -59.5t-63 -23.5q-38 0 -62.5 23.5t-24.5 59.5q0 35 24.5 59t62.5 24zM226 677q-31 0 -31 -52
q0 -66 40 -66q32 0 32 52q0 66 -41 66z" />
    <glyph glyph-name="ae" unicode="&#xe6;" horiz-adv-x="740" 
d="M156 -10q-48 0 -79.5 28.5t-31.5 78.5q0 49 35.5 84.5t123.5 56.5l95 22v70q0 36 -26.5 60t-61.5 24q-66 0 -66 -71v-32l-5 -5h-55q-26 0 -26 29q0 50 55 84q30 19 61 30.5t66 11.5q42 0 81 -13t57 -46q61 59 142 59q79 0 124.5 -54.5t45.5 -156.5l-4 -5h-295
q1 -69 38.5 -120.5t130.5 -51.5q58 0 128 38h3v-12q-23 -46 -70 -77.5t-110 -31.5q-117 0 -174 82h-6q-28 -34 -73.5 -58t-102.5 -24zM503 417q-93 0 -109 -126h213q-11 68 -37 97t-67 29zM135 119q0 -62 73 -62q32 0 60.5 9t57.5 25q-27 49 -27 116v18
q-109 -21 -136.5 -46.5t-27.5 -59.5z" />
    <glyph glyph-name="ccedilla" unicode="&#xe7;" horiz-adv-x="480" 
d="M244 -210q54 0 54 39q0 22 -21 36t-80 32l44 94q-90 5 -142 63t-52 152q0 112 67 183.5t168 71.5q42 0 80 -13.5t58 -35.5q15 -18 15 -30q0 -13 -12 -24l-41 -33h-7l-33 45q-16 22 -37 34.5t-53 12.5q-53 0 -83 -44t-30 -121q0 -70 36.5 -124.5t130.5 -54.5q58 0 128 38
h3v-12q-21 -42 -63 -72.5t-98 -35.5l-19 -43q57 -18 80 -40t23 -61q0 -37 -25.5 -62t-73.5 -25q-56 0 -82 29v13h3q27 -12 62 -12z" />
    <glyph glyph-name="egrave" unicode="&#xe8;" horiz-adv-x="487" 
d="M259 -10q-98 0 -155 59t-57 157q0 112 66.5 183.5t154.5 71.5q80 0 125 -54.5t46 -156.5l-5 -5h-295q1 -69 38.5 -120.5t130.5 -51.5q57 0 129 38h3v-12q-24 -46 -71 -77.5t-110 -31.5zM250 417q-93 0 -109 -126h213q-10 68 -36 97t-68 29zM255 530l-126 113
q-21 18 -28 33t-7 31h89l86 -177h-14z" />
    <glyph glyph-name="eacute" unicode="&#xe9;" horiz-adv-x="487" 
d="M259 -10q-98 0 -155 59t-57 157q0 112 66.5 183.5t154.5 71.5q80 0 125 -54.5t46 -156.5l-5 -5h-295q1 -69 38.5 -120.5t130.5 -51.5q57 0 129 38h3v-12q-24 -46 -71 -77.5t-110 -31.5zM250 417q-93 0 -109 -126h213q-10 68 -36 97t-68 29zM259 530l86 177h89
q0 -16 -7 -31t-28 -33l-126 -113h-14z" />
    <glyph glyph-name="ecircumflex" unicode="&#xea;" horiz-adv-x="487" 
d="M259 -10q-98 0 -155 59t-57 157q0 112 66.5 183.5t154.5 71.5q80 0 125 -54.5t46 -156.5l-5 -5h-295q1 -69 38.5 -120.5t130.5 -51.5q57 0 129 38h3v-12q-24 -46 -71 -77.5t-110 -31.5zM250 417q-93 0 -109 -126h213q-10 68 -36 97t-68 29zM111 530l133 177h34l133 -177
h-14l-136 92l-136 -92h-14z" />
    <glyph glyph-name="edieresis" unicode="&#xeb;" horiz-adv-x="487" 
d="M259 -10q-98 0 -155 59t-57 157q0 112 66.5 183.5t154.5 71.5q80 0 125 -54.5t46 -156.5l-5 -5h-295q1 -69 38.5 -120.5t130.5 -51.5q57 0 129 38h3v-12q-24 -46 -71 -77.5t-110 -31.5zM250 417q-93 0 -109 -126h213q-10 68 -36 97t-68 29zM167 566q-22 0 -36.5 14.5
t-14.5 36.5t14.5 36.5t36.5 14.5q51 0 51 -51t-51 -51zM355 566q-22 0 -37 14.5t-15 36.5t15 36.5t37 14.5t36.5 -14.5t14.5 -36.5t-14.5 -36.5t-36.5 -14.5z" />
    <glyph glyph-name="igrave" unicode="&#xec;" horiz-adv-x="318" 
d="M49 0v16l64 32v299l-61 51v8l148 55h7v-413l62 -32v-16h-220zM153 530l-126 113q-21 18 -28 33t-7 31h89l86 -177h-14z" />
    <glyph glyph-name="iacute" unicode="&#xed;" horiz-adv-x="318" 
d="M49 0v16l64 32v299l-61 51v8l148 55h7v-413l62 -32v-16h-220zM157 530l86 177h89q0 -16 -7 -31t-28 -33l-126 -113h-14z" />
    <glyph glyph-name="icircumflex" unicode="&#xee;" horiz-adv-x="318" 
d="M49 0v16l64 32v299l-61 51v8l148 55h7v-413l62 -32v-16h-220zM9 530l133 177h34l133 -177h-14l-136 92l-136 -92h-14z" />
    <glyph glyph-name="idieresis" unicode="&#xef;" horiz-adv-x="318" 
d="M49 0v16l64 32v299l-61 51v8l148 55h7v-413l62 -32v-16h-220zM65 566q-22 0 -36.5 14.5t-14.5 36.5t14.5 36.5t36.5 14.5q51 0 51 -51t-51 -51zM253 566q-22 0 -37 14.5t-15 36.5t15 36.5t37 14.5t36.5 -14.5t14.5 -36.5t-14.5 -36.5t-36.5 -14.5z" />
    <glyph glyph-name="eth" unicode="&#xf0;" horiz-adv-x="547" 
d="M271 -10q-100 0 -162.5 66t-62.5 161q0 119 71 181.5t169 62.5q45 0 78 -8q-28 83 -83 145l-77 -75h-70l113 109q-61 53 -142 82v35q99 -29 177 -83l78 75h70l-108 -104q84 -70 131 -167t47 -210q0 -118 -63.5 -194t-165.5 -76zM149 227q0 -68 31.5 -130.5t99.5 -62.5
q47 0 80.5 55t33.5 176q0 48 -7 92q-24 27 -50.5 41t-60.5 14q-53 0 -90 -41t-37 -144z" />
    <glyph glyph-name="ntilde" unicode="&#xf1;" horiz-adv-x="590" 
d="M44 0v16l64 32v299l-61 50v8l138 56h7l9 -74h5q38 37 73 55.5t79 18.5q58 0 96.5 -29.5t38.5 -88.5v-295l63 -32v-16h-224v16l66 32v249q0 43 -26 64.5t-67 21.5q-25 0 -55 -8t-48 -25v-302l66 -32v-16h-224zM145 555q27 83 48 104.5t50 21.5q40 0 71.5 -32t63.5 -32
q20 0 33 13t29 51h15q-27 -83 -48 -104.5t-50 -21.5q-40 0 -71.5 32t-63.5 32q-20 0 -33 -13t-29 -51h-15z" />
    <glyph glyph-name="ograve" unicode="&#xf2;" horiz-adv-x="542" 
d="M271 -10q-101 0 -163 68t-62 168t62 167.5t163 67.5q100 0 162 -67.5t62 -167.5t-62 -168t-162 -68zM284 34q57 0 82.5 53.5t25.5 118.5q0 80 -31 146t-101 66q-58 0 -84.5 -52.5t-26.5 -118.5q0 -80 32 -146.5t103 -66.5zM262 530l-126 113q-21 18 -28 33t-7 31h89
l86 -177h-14z" />
    <glyph glyph-name="oacute" unicode="&#xf3;" horiz-adv-x="542" 
d="M271 -10q-101 0 -163 68t-62 168t62 167.5t163 67.5q100 0 162 -67.5t62 -167.5t-62 -168t-162 -68zM284 34q57 0 82.5 53.5t25.5 118.5q0 80 -31 146t-101 66q-58 0 -84.5 -52.5t-26.5 -118.5q0 -80 32 -146.5t103 -66.5zM266 530l86 177h89q0 -16 -7 -31t-28 -33
l-126 -113h-14z" />
    <glyph glyph-name="ocircumflex" unicode="&#xf4;" horiz-adv-x="542" 
d="M271 -10q-101 0 -163 68t-62 168t62 167.5t163 67.5q100 0 162 -67.5t62 -167.5t-62 -168t-162 -68zM284 34q57 0 82.5 53.5t25.5 118.5q0 80 -31 146t-101 66q-58 0 -84.5 -52.5t-26.5 -118.5q0 -80 32 -146.5t103 -66.5zM118 530l133 177h34l133 -177h-14l-136 92
l-136 -92h-14z" />
    <glyph glyph-name="otilde" unicode="&#xf5;" horiz-adv-x="542" 
d="M271 -10q-101 0 -163 68t-62 168t62 167.5t163 67.5q100 0 162 -67.5t62 -167.5t-62 -168t-162 -68zM284 34q57 0 82.5 53.5t25.5 118.5q0 80 -31 146t-101 66q-58 0 -84.5 -52.5t-26.5 -118.5q0 -80 32 -146.5t103 -66.5zM113 555q27 83 48 104.5t50 21.5q40 0 71.5 -32
t63.5 -32q20 0 33 13t29 51h15q-27 -83 -48 -104.5t-50 -21.5q-40 0 -71.5 32t-63.5 32q-20 0 -33 -13t-29 -51h-15z" />
    <glyph glyph-name="odieresis" unicode="&#xf6;" horiz-adv-x="542" 
d="M271 -10q-101 0 -163 68t-62 168t62 167.5t163 67.5q100 0 162 -67.5t62 -167.5t-62 -168t-162 -68zM284 34q57 0 82.5 53.5t25.5 118.5q0 80 -31 146t-101 66q-58 0 -84.5 -52.5t-26.5 -118.5q0 -80 32 -146.5t103 -66.5zM174 566q-22 0 -36.5 14.5t-14.5 36.5
t14.5 36.5t36.5 14.5q51 0 51 -51t-51 -51zM362 566q-22 0 -37 14.5t-15 36.5t15 36.5t37 14.5t36.5 -14.5t14.5 -36.5t-14.5 -36.5t-36.5 -14.5z" />
    <glyph glyph-name="divide" unicode="&#xf7;" horiz-adv-x="514" 
d="M224 417v65h66v-65h-66zM47 246v52h420v-52h-420zM224 62v65h66v-65h-66z" />
    <glyph glyph-name="oslash" unicode="&#xf8;" horiz-adv-x="542" 
d="M46 -10l59 72q-59 66 -59 164q0 100 62 167.5t163 67.5q72 0 127 -38l31 38h66l-58 -72q58 -66 58 -163q0 -100 -62 -168t-162 -68q-72 0 -127 38l-31 -38h-67zM149 247q0 -61 16 -110l187 230q-34 51 -92 51t-84.5 -52.5t-26.5 -118.5zM284 34q57 0 82.5 53.5
t25.5 118.5q0 61 -15 109l-187 -230q36 -51 94 -51z" />
    <glyph glyph-name="ugrave" unicode="&#xf9;" horiz-adv-x="568" 
d="M223 -10q-59 0 -96.5 30t-37.5 88v296l-64 31v16h158v-297q0 -42 25.5 -64t66.5 -22q25 0 55 8.5t48 25.5v302l-68 31v16h163v-406l69 -29v-16h-164v63h-5q-73 -73 -150 -73zM269 530l-126 113q-21 18 -28 33t-7 31h89l86 -177h-14z" />
    <glyph glyph-name="uacute" unicode="&#xfa;" horiz-adv-x="568" 
d="M223 -10q-59 0 -96.5 30t-37.5 88v296l-64 31v16h158v-297q0 -42 25.5 -64t66.5 -22q25 0 55 8.5t48 25.5v302l-68 31v16h163v-406l69 -29v-16h-164v63h-5q-73 -73 -150 -73zM273 530l86 177h89q0 -16 -7 -31t-28 -33l-126 -113h-14z" />
    <glyph glyph-name="ucircumflex" unicode="&#xfb;" horiz-adv-x="568" 
d="M223 -10q-59 0 -96.5 30t-37.5 88v296l-64 31v16h158v-297q0 -42 25.5 -64t66.5 -22q25 0 55 8.5t48 25.5v302l-68 31v16h163v-406l69 -29v-16h-164v63h-5q-73 -73 -150 -73zM126 530l133 177h34l133 -177h-14l-136 92l-136 -92h-14z" />
    <glyph glyph-name="udieresis" unicode="&#xfc;" horiz-adv-x="568" 
d="M223 -10q-59 0 -96.5 30t-37.5 88v296l-64 31v16h158v-297q0 -42 25.5 -64t66.5 -22q25 0 55 8.5t48 25.5v302l-68 31v16h163v-406l69 -29v-16h-164v63h-5q-73 -73 -150 -73zM182 566q-22 0 -36.5 14.5t-14.5 36.5t14.5 36.5t36.5 14.5q51 0 51 -51t-51 -51zM370 566
q-22 0 -37 14.5t-15 36.5t15 36.5t37 14.5t36.5 -14.5t14.5 -36.5t-14.5 -36.5t-36.5 -14.5z" />
    <glyph glyph-name="yacute" unicode="&#xfd;" horiz-adv-x="479" 
d="M83 -241q-23 0 -28.5 6.5t-5.5 22.5v54l4 5h46q37 0 52 11.5t43 72.5l33 75l-187 399l-66 30v16h248v-16l-78 -30v-5l128 -276h4l105 271v5l-71 35v16h195v-16l-74 -33l-198 -481q-14 -35 -22.5 -54t-30.5 -50q-41 -58 -97 -58zM265 530l86 177h89q0 -16 -7 -31t-28 -33
l-126 -113h-14z" />
    <glyph glyph-name="thorn" unicode="&#xfe;" horiz-adv-x="572" 
d="M44 -230v16l64 32v818l-61 51v8l139 55h16v-349h6q70 60 147 60q73 0 123 -57t50 -157q0 -122 -67.5 -189.5t-161.5 -67.5q-54 0 -97 10v-182l73 -32v-16h-231zM294 389q-48 0 -92 -27v-284q48 -39 118 -39q45 0 79 39.5t34 136.5q0 91 -41.5 132.5t-97.5 41.5z" />
    <glyph glyph-name="ydieresis" unicode="&#xff;" horiz-adv-x="479" 
d="M83 -241q-23 0 -28.5 6.5t-5.5 22.5v54l4 5h46q37 0 52 11.5t43 72.5l33 75l-187 399l-66 30v16h248v-16l-78 -30v-5l128 -276h4l105 271v5l-71 35v16h195v-16l-74 -33l-198 -481q-14 -35 -22.5 -54t-30.5 -50q-41 -58 -97 -58zM174 566q-22 0 -36.5 14.5t-14.5 36.5
t14.5 36.5t36.5 14.5q51 0 51 -51t-51 -51zM362 566q-22 0 -37 14.5t-15 36.5t15 36.5t37 14.5t36.5 -14.5t14.5 -36.5t-14.5 -36.5t-36.5 -14.5z" />
    <glyph glyph-name="uni0100" unicode="&#x100;" horiz-adv-x="756" 
d="M30 0v16l63 33l257 616h55l254 -613l67 -36v-16h-264v16l88 35l-74 180h-241l-73 -181l84 -34v-16h-216zM258 286h196l-98 241zM242 762v53h272v-53h-272z" />
    <glyph glyph-name="amacron" unicode="&#x101;" horiz-adv-x="495" 
d="M155 -10q-48 0 -79.5 28.5t-31.5 78.5q0 49 35.5 84.5t123.5 56.5l95 22v70q0 36 -26.5 60t-61.5 24q-66 0 -66 -71v-32l-5 -5h-55q-26 0 -26 29q0 50 55 84q30 19 61 30.5t66 11.5q58 0 105.5 -24.5t47.5 -88.5v-279q15 -17 54 -17h35l4 -2v-6q-12 -21 -36.5 -37.5
t-59.5 -16.5q-65 0 -85 62h-7q-26 -26 -63.5 -44t-79.5 -18zM135 119q0 -62 73 -62q42 0 90 20v148q-108 -21 -135.5 -46.5t-27.5 -59.5zM94 591v52h272v-52h-272z" />
    <glyph glyph-name="uni0102" unicode="&#x102;" horiz-adv-x="756" 
d="M30 0v16l63 33l257 616h55l254 -613l67 -36v-16h-264v16l88 35l-74 180h-241l-73 -181l84 -34v-16h-216zM258 286h196l-98 241zM378 710q-66 0 -99 41t-50 111h13q27 -52 56 -67t80 -15t79.5 15t56.5 67h13q-18 -70 -51.5 -111t-97.5 -41z" />
    <glyph glyph-name="abreve" unicode="&#x103;" horiz-adv-x="495" 
d="M155 -10q-48 0 -79.5 28.5t-31.5 78.5q0 49 35.5 84.5t123.5 56.5l95 22v70q0 36 -26.5 60t-61.5 24q-66 0 -66 -71v-32l-5 -5h-55q-26 0 -26 29q0 50 55 84q30 19 61 30.5t66 11.5q58 0 105.5 -24.5t47.5 -88.5v-279q15 -17 54 -17h35l4 -2v-6q-12 -21 -36.5 -37.5
t-59.5 -16.5q-65 0 -85 62h-7q-26 -26 -63.5 -44t-79.5 -18zM135 119q0 -62 73 -62q42 0 90 20v148q-108 -21 -135.5 -46.5t-27.5 -59.5zM230 540q-66 0 -98 41.5t-51 125.5h13q31 -66 61.5 -81.5t74.5 -15.5t74 15.5t62 81.5h13q-19 -84 -52 -125.5t-97 -41.5z" />
    <glyph glyph-name="uni0104" unicode="&#x104;" horiz-adv-x="756" 
d="M578 -129q0 -64 63 -64q11 0 23.5 2.5t25.5 10.5h4v-14q-29 -46 -87 -46q-43 0 -71 24t-28 65q0 36 24 72t62 79h-132v16l88 35l-74 180h-241l-73 -181l84 -34v-16h-216v16l63 35l257 614h55l254 -613l67 -36v-16h-104q-44 -71 -44 -129zM258 286h196l-98 241z" />
    <glyph glyph-name="aogonek" unicode="&#x105;" horiz-adv-x="495" 
d="M155 -10q-48 0 -79.5 28.5t-31.5 78.5q0 49 35.5 84.5t123.5 56.5l95 22v70q0 36 -26.5 60t-61.5 24q-66 0 -66 -71v-32l-5 -5h-55q-26 0 -26 29q0 50 55 84q30 19 61 30.5t66 11.5q58 0 105.5 -24.5t47.5 -88.5v-279q15 -17 54 -17h35l4 -2v-6q-10 -18 -30 -33t-48 -20
q-39 -65 -39 -120q0 -64 63 -64q11 0 23.5 2.5t25.5 10.5h4v-14q-29 -46 -87 -46q-44 0 -71.5 24t-27.5 65q0 34 21.5 68t56.5 74q-54 6 -72 61h-7q-26 -26 -63.5 -44t-79.5 -18zM135 119q0 -62 73 -62q42 0 90 20v148q-108 -21 -135.5 -46.5t-27.5 -59.5z" />
    <glyph glyph-name="uni0106" unicode="&#x106;" horiz-adv-x="722" 
d="M400 -10q-154 0 -244.5 92t-90.5 231q0 96 48.5 177.5t128 130.5t173.5 49q76 0 119.5 -14t84.5 -34l6 -178h-18l-69 130q-34 24 -61.5 35t-61.5 11q-104 0 -173 -79t-69 -203q0 -140 66.5 -218t161.5 -78q52 0 87.5 14t63.5 33l67 112h17l-12 -161q-44 -22 -94 -36
t-130 -14zM383 710l86 152h89q0 -16 -6.5 -32.5t-28.5 -31.5l-126 -88h-14z" />
    <glyph glyph-name="cacute" unicode="&#x107;" horiz-adv-x="480" 
d="M258 -10q-97 0 -154 59t-57 157q0 112 67 183.5t168 71.5q42 0 80 -13.5t58 -35.5q15 -18 15 -30q0 -13 -12 -24l-41 -33h-7l-34 46q-15 21 -36 33.5t-53 12.5q-53 0 -83 -44t-30 -121q0 -70 36.5 -124.5t130.5 -54.5q58 0 128 38h3v-12q-23 -46 -70 -77.5t-109 -31.5z
M263 530l86 177h89q0 -16 -7 -31t-28 -33l-126 -113h-14z" />
    <glyph glyph-name="uni0108" unicode="&#x108;" horiz-adv-x="722" 
d="M400 -10q-154 0 -244.5 92t-90.5 231q0 96 48.5 177.5t128 130.5t173.5 49q76 0 119.5 -14t84.5 -34l6 -178h-18l-69 130q-34 24 -61.5 35t-61.5 11q-104 0 -173 -79t-69 -203q0 -140 66.5 -218t161.5 -78q52 0 87.5 14t63.5 33l67 112h17l-12 -161q-44 -22 -94 -36
t-130 -14zM240 710l133 152h34l133 -152h-14l-136 73l-136 -73h-14z" />
    <glyph glyph-name="ccircumflex" unicode="&#x109;" horiz-adv-x="480" 
d="M258 -10q-97 0 -154 59t-57 157q0 112 67 183.5t168 71.5q42 0 80 -13.5t58 -35.5q15 -18 15 -30q0 -13 -12 -24l-41 -33h-7l-34 46q-15 21 -36 33.5t-53 12.5q-53 0 -83 -44t-30 -121q0 -70 36.5 -124.5t130.5 -54.5q58 0 128 38h3v-12q-23 -46 -70 -77.5t-109 -31.5z
M115 530l133 177h34l133 -177h-14l-136 92l-136 -92h-14z" />
    <glyph glyph-name="uni010A" unicode="&#x10a;" horiz-adv-x="722" 
d="M400 -10q-154 0 -244.5 92t-90.5 231q0 96 48.5 177.5t128 130.5t173.5 49q76 0 119.5 -14t84.5 -34l6 -178h-18l-69 130q-34 24 -61.5 35t-61.5 11q-104 0 -173 -79t-69 -203q0 -140 66.5 -218t161.5 -78q52 0 87.5 14t63.5 33l67 112h17l-12 -161q-44 -22 -94 -36
t-130 -14zM390 725q-26 0 -44.5 18.5t-18.5 44.5t18.5 44.5t44.5 18.5t44.5 -18.5t18.5 -44.5t-18.5 -44.5t-44.5 -18.5z" />
    <glyph glyph-name="cdotaccent" unicode="&#x10b;" horiz-adv-x="480" 
d="M258 -10q-97 0 -154 59t-57 157q0 112 67 183.5t168 71.5q42 0 80 -13.5t58 -35.5q15 -18 15 -30q0 -13 -12 -24l-41 -33h-7l-34 46q-15 21 -36 33.5t-53 12.5q-53 0 -83 -44t-30 -121q0 -70 36.5 -124.5t130.5 -54.5q58 0 128 38h3v-12q-23 -46 -70 -77.5t-109 -31.5z
M265 577q-26 0 -44.5 18.5t-18.5 44.5t18.5 44.5t44.5 18.5t44.5 -18.5t18.5 -44.5t-18.5 -44.5t-44.5 -18.5z" />
    <glyph glyph-name="uni010C" unicode="&#x10c;" horiz-adv-x="722" 
d="M400 -10q-154 0 -244.5 92t-90.5 231q0 96 48.5 177.5t128 130.5t173.5 49q76 0 119.5 -14t84.5 -34l6 -178h-18l-69 130q-34 24 -61.5 35t-61.5 11q-104 0 -173 -79t-69 -203q0 -140 66.5 -218t161.5 -78q52 0 87.5 14t63.5 33l67 112h17l-12 -161q-44 -22 -94 -36
t-130 -14zM373 710l-133 152h14l136 -73l136 73h14l-133 -152h-34z" />
    <glyph glyph-name="ccaron" unicode="&#x10d;" horiz-adv-x="480" 
d="M258 -10q-97 0 -154 59t-57 157q0 112 67 183.5t168 71.5q42 0 80 -13.5t58 -35.5q15 -18 15 -30q0 -13 -12 -24l-41 -33h-7l-34 46q-15 21 -36 33.5t-53 12.5q-53 0 -83 -44t-30 -121q0 -70 36.5 -124.5t130.5 -54.5q58 0 128 38h3v-12q-23 -46 -70 -77.5t-109 -31.5z
M248 530l-133 177h14l136 -92l136 92h14l-133 -177h-34z" />
    <glyph glyph-name="uni010E" unicode="&#x10e;" horiz-adv-x="781" 
d="M60 0v16l81 40v548l-81 40v16h304q169 0 261 -85.5t92 -214.5q0 -104 -47 -185.5t-128.5 -128t-184.5 -46.5h-297zM337 605h-91v-550h106q119 0 187.5 74.5t68.5 199.5t-70 200.5t-201 75.5zM372 710l-133 152h14l136 -73l136 73h14l-133 -152h-34z" />
    <glyph glyph-name="dcaron" unicode="&#x10f;" horiz-adv-x="564" 
d="M214 -10q-74 0 -123.5 55t-49.5 149q0 128 70.5 197.5t169.5 69.5q50 0 86 -9v184l-66 51v8l153 55h7v-705l71 -29v-16h-155l-9 51h-6q-72 -61 -148 -61zM136 219q0 -82 41 -119.5t98 -37.5q48 0 92 28v282q-45 40 -93 40q-56 0 -97 -43t-41 -150zM527 553l20 187h80
q3 -14 2.5 -29t-13.5 -36l-76 -122h-13z" />
    <glyph glyph-name="uni0110" unicode="&#x110;" horiz-adv-x="781" 
d="M60 0v16l81 40v261h-81v50h81v237l-81 40v16h304q169 0 261 -85.5t92 -214.5q0 -104 -47 -185.5t-128.5 -128t-184.5 -46.5h-297zM415 317h-169v-262h106q119 0 187.5 74.5t68.5 199.5t-70 200.5t-201 75.5h-91v-238h169v-50z" />
    <glyph glyph-name="dcroat" unicode="&#x111;" horiz-adv-x="578" 
d="M217 -10q-73 0 -122.5 55t-49.5 149q0 128 70.5 197.5t168.5 69.5q50 0 86 -9v86h-133v47h133v51l-66 51v8l153 55h7v-165h71v-47h-71v-493l71 -29v-16h-155l-8 51h-7q-71 -61 -148 -61zM139 219q0 -82 41.5 -119.5t98.5 -37.5q48 0 91 28v283q-45 39 -92 39
q-56 0 -97.5 -43t-41.5 -150z" />
    <glyph glyph-name="uni0112" unicode="&#x112;" horiz-adv-x="659" 
d="M60 0v16l81 40v548l-81 40v16h502v-172h-16l-65 117h-235v-237h166l51 84h16v-221h-16l-51 82h-166v-258h262l66 132h16v-187h-530zM203 762v53h272v-53h-272z" />
    <glyph glyph-name="emacron" unicode="&#x113;" horiz-adv-x="487" 
d="M259 -10q-98 0 -155 59t-57 157q0 112 66.5 183.5t154.5 71.5q80 0 125 -54.5t46 -156.5l-5 -5h-295q1 -69 38.5 -120.5t130.5 -51.5q57 0 129 38h3v-12q-24 -46 -71 -77.5t-110 -31.5zM250 417q-93 0 -109 -126h213q-10 68 -36 97t-68 29zM125 591v52h272v-52h-272z" />
    <glyph glyph-name="uni0114" unicode="&#x114;" horiz-adv-x="659" 
d="M60 0v16l81 40v548l-81 40v16h502v-172h-16l-65 117h-235v-237h166l51 84h16v-221h-16l-51 82h-166v-258h262l66 132h16v-187h-530zM339 710q-66 0 -99 41t-50 111h13q27 -52 56 -67t80 -15t79.5 15t56.5 67h13q-18 -70 -51.5 -111t-97.5 -41z" />
    <glyph glyph-name="ebreve" unicode="&#x115;" horiz-adv-x="487" 
d="M259 -10q-98 0 -155 59t-57 157q0 112 66.5 183.5t154.5 71.5q80 0 125 -54.5t46 -156.5l-5 -5h-295q1 -69 38.5 -120.5t130.5 -51.5q57 0 129 38h3v-12q-24 -46 -71 -77.5t-110 -31.5zM250 417q-93 0 -109 -126h213q-10 68 -36 97t-68 29zM261 540q-66 0 -98 41.5
t-51 125.5h13q31 -66 61.5 -81.5t74.5 -15.5t74 15.5t62 81.5h13q-19 -84 -52 -125.5t-97 -41.5z" />
    <glyph glyph-name="uni0116" unicode="&#x116;" horiz-adv-x="659" 
d="M60 0v16l81 40v548l-81 40v16h502v-172h-16l-65 117h-235v-237h166l51 84h16v-221h-16l-51 82h-166v-258h262l66 132h16v-187h-530zM339 725q-26 0 -44.5 18.5t-18.5 44.5t18.5 44.5t44.5 18.5t44.5 -18.5t18.5 -44.5t-18.5 -44.5t-44.5 -18.5z" />
    <glyph glyph-name="edotaccent" unicode="&#x117;" horiz-adv-x="487" 
d="M259 -10q-98 0 -155 59t-57 157q0 112 66.5 183.5t154.5 71.5q80 0 125 -54.5t46 -156.5l-5 -5h-295q1 -69 38.5 -120.5t130.5 -51.5q57 0 129 38h3v-12q-24 -46 -71 -77.5t-110 -31.5zM250 417q-93 0 -109 -126h213q-10 68 -36 97t-68 29zM261 577q-26 0 -44.5 18.5
t-18.5 44.5t18.5 44.5t44.5 18.5t44.5 -18.5t18.5 -44.5t-18.5 -44.5t-44.5 -18.5z" />
    <glyph glyph-name="uni0118" unicode="&#x118;" horiz-adv-x="659" 
d="M60 0v16l81 40v548l-81 40v16h502v-172h-16l-65 117h-235v-237h166l51 84h16v-221h-16l-51 82h-166v-258h262l66 132h16v-187h-73q-44 -71 -44 -129q0 -64 63 -64q11 0 23.5 2.5t25.5 10.5h4v-14q-29 -46 -87 -46q-44 0 -71.5 24t-27.5 65q0 36 24 72t62 79h-429z" />
    <glyph glyph-name="eogonek" unicode="&#x119;" horiz-adv-x="487" 
d="M259 -10q-98 0 -155 59t-57 157q0 112 66.5 183.5t154.5 71.5q80 0 125 -54.5t46 -156.5l-5 -5h-295q1 -69 38.5 -120.5t130.5 -51.5q57 0 129 38h3v-12q-17 -31 -45 -56q-35 -49 -54 -91t-19 -81q0 -64 64 -64q11 0 23.5 2.5t25.5 10.5h3v-14q-27 -46 -86 -46
q-44 0 -71.5 24t-27.5 65q0 37 27.5 77t69.5 85q-40 -21 -91 -21zM250 417q-93 0 -109 -126h213q-10 68 -36 97t-68 29z" />
    <glyph glyph-name="uni011A" unicode="&#x11a;" horiz-adv-x="659" 
d="M60 0v16l81 40v548l-81 40v16h502v-172h-16l-65 117h-235v-237h166l51 84h16v-221h-16l-51 82h-166v-258h262l66 132h16v-187h-530zM322 710l-133 152h14l136 -73l136 73h14l-133 -152h-34z" />
    <glyph glyph-name="ecaron" unicode="&#x11b;" horiz-adv-x="487" 
d="M259 -10q-98 0 -155 59t-57 157q0 112 66.5 183.5t154.5 71.5q80 0 125 -54.5t46 -156.5l-5 -5h-295q1 -69 38.5 -120.5t130.5 -51.5q57 0 129 38h3v-12q-24 -46 -71 -77.5t-110 -31.5zM250 417q-93 0 -109 -126h213q-10 68 -36 97t-68 29zM244 530l-133 177h14l136 -92
l136 92h14l-133 -177h-34z" />
    <glyph glyph-name="uni011C" unicode="&#x11c;" horiz-adv-x="765" 
d="M401 -10q-144 0 -240 92t-96 231q0 103 49 183.5t131.5 127t180.5 46.5q80 0 125.5 -13.5t88.5 -34.5l6 -168h-16l-72 120q-70 46 -132 46q-111 0 -183.5 -75t-72.5 -190q0 -145 75.5 -226.5t184.5 -81.5q29 0 57.5 3.5t57.5 13.5v171l-89 41v16h264v-16l-70 -44v-158
q-46 -38 -115 -61t-134 -23zM251 710l133 152h34l133 -152h-14l-136 73l-136 -73h-14z" />
    <glyph glyph-name="gcircumflex" unicode="&#x11d;" horiz-adv-x="545" 
d="M258 144q-45 0 -83 16q-33 -14 -33 -46q0 -50 72 -50h118q145 0 145 -129q0 -65 -65 -120t-176 -55q-95 0 -137 33.5t-42 82.5q0 36 18 64l68 44v5q-78 17 -78 86q0 39 27 66l54 29v6q-69 46 -69 127q0 67 51.5 112.5t129.5 45.5q50 0 92 -19l150 9v-55l-95 6l-4 -4
q38 -40 38 -95q0 -68 -52 -113.5t-129 -45.5zM267 186q38 0 59.5 33t21.5 81q0 56 -28 88.5t-68 32.5q-41 0 -62.5 -33.5t-21.5 -81.5q0 -54 27.5 -87t71.5 -33zM131 -111q0 -43 33 -71t84 -28q65 0 105.5 36t40.5 82q0 43 -23 59.5t-81 16.5h-102h-10q-47 -28 -47 -95z
M112 530l133 177h34l133 -177h-14l-136 92l-136 -92h-14z" />
    <glyph glyph-name="uni011E" unicode="&#x11e;" horiz-adv-x="765" 
d="M401 -10q-144 0 -240 92t-96 231q0 103 49 183.5t131.5 127t180.5 46.5q80 0 125.5 -13.5t88.5 -34.5l6 -168h-16l-72 120q-70 46 -132 46q-111 0 -183.5 -75t-72.5 -190q0 -145 75.5 -226.5t184.5 -81.5q29 0 57.5 3.5t57.5 13.5v171l-89 41v16h264v-16l-70 -44v-158
q-46 -38 -115 -61t-134 -23zM401 710q-66 0 -99 41t-50 111h13q27 -52 56 -67t80 -15t79.5 15t56.5 67h13q-18 -70 -51.5 -111t-97.5 -41z" />
    <glyph glyph-name="gbreve" unicode="&#x11f;" horiz-adv-x="545" 
d="M258 144q-45 0 -83 16q-33 -14 -33 -46q0 -50 72 -50h118q145 0 145 -129q0 -65 -65 -120t-176 -55q-95 0 -137 33.5t-42 82.5q0 36 18 64l68 44v5q-78 17 -78 86q0 39 27 66l54 29v6q-69 46 -69 127q0 67 51.5 112.5t129.5 45.5q50 0 92 -19l150 9v-55l-95 6l-4 -4
q38 -40 38 -95q0 -68 -52 -113.5t-129 -45.5zM267 186q38 0 59.5 33t21.5 81q0 56 -28 88.5t-68 32.5q-41 0 -62.5 -33.5t-21.5 -81.5q0 -54 27.5 -87t71.5 -33zM131 -111q0 -43 33 -71t84 -28q65 0 105.5 36t40.5 82q0 43 -23 59.5t-81 16.5h-102h-10q-47 -28 -47 -95z
M262 540q-66 0 -98 41.5t-51 125.5h13q31 -66 61.5 -81.5t74.5 -15.5t74 15.5t62 81.5h13q-19 -84 -52 -125.5t-97 -41.5z" />
    <glyph glyph-name="uni0120" unicode="&#x120;" horiz-adv-x="765" 
d="M401 -10q-144 0 -240 92t-96 231q0 103 49 183.5t131.5 127t180.5 46.5q80 0 125.5 -13.5t88.5 -34.5l6 -168h-16l-72 120q-70 46 -132 46q-111 0 -183.5 -75t-72.5 -190q0 -145 75.5 -226.5t184.5 -81.5q29 0 57.5 3.5t57.5 13.5v171l-89 41v16h264v-16l-70 -44v-158
q-46 -38 -115 -61t-134 -23zM401 725q-26 0 -44.5 18.5t-18.5 44.5t18.5 44.5t44.5 18.5t44.5 -18.5t18.5 -44.5t-18.5 -44.5t-44.5 -18.5z" />
    <glyph glyph-name="gdotaccent" unicode="&#x121;" horiz-adv-x="545" 
d="M258 144q-45 0 -83 16q-33 -14 -33 -46q0 -50 72 -50h118q145 0 145 -129q0 -65 -65 -120t-176 -55q-95 0 -137 33.5t-42 82.5q0 36 18 64l68 44v5q-78 17 -78 86q0 39 27 66l54 29v6q-69 46 -69 127q0 67 51.5 112.5t129.5 45.5q50 0 92 -19l150 9v-55l-95 6l-4 -4
q38 -40 38 -95q0 -68 -52 -113.5t-129 -45.5zM267 186q38 0 59.5 33t21.5 81q0 56 -28 88.5t-68 32.5q-41 0 -62.5 -33.5t-21.5 -81.5q0 -54 27.5 -87t71.5 -33zM131 -111q0 -43 33 -71t84 -28q65 0 105.5 36t40.5 82q0 43 -23 59.5t-81 16.5h-102h-10q-47 -28 -47 -95z
M262 577q-26 0 -44.5 18.5t-18.5 44.5t18.5 44.5t44.5 18.5t44.5 -18.5t18.5 -44.5t-18.5 -44.5t-44.5 -18.5z" />
    <glyph glyph-name="uni0122" unicode="&#x122;" horiz-adv-x="765" 
d="M401 -10q-144 0 -240 92t-96 231q0 103 49 183.5t131.5 127t180.5 46.5q80 0 125.5 -13.5t88.5 -34.5l6 -168h-16l-72 120q-70 46 -132 46q-111 0 -183.5 -75t-72.5 -190q0 -145 75.5 -226.5t184.5 -81.5q29 0 57.5 3.5t57.5 13.5v171l-89 41v16h264v-16l-70 -44v-158
q-46 -38 -115 -61t-134 -23zM423 710q-103 0 -103 79q0 40 31 61.5t79 21.5q21 0 32 -4v-15q-12 3 -25 3q-56 0 -56 -38q0 -25 20 -33t62 -8v-46q0 -21 -40 -21z" />
    <glyph glyph-name="uni0123" unicode="&#x123;" horiz-adv-x="545" 
d="M258 144q-45 0 -83 16q-33 -14 -33 -46q0 -50 72 -50h118q145 0 145 -129q0 -65 -65 -120t-176 -55q-95 0 -137 33.5t-42 82.5q0 36 18 64l68 44v5q-78 17 -78 86q0 39 27 66l54 29v6q-69 46 -69 127q0 67 51.5 112.5t129.5 45.5q50 0 92 -19l150 9v-55l-95 6l-4 -4
q38 -40 38 -95q0 -68 -52 -113.5t-129 -45.5zM267 186q38 0 59.5 33t21.5 81q0 56 -28 88.5t-68 32.5q-41 0 -62.5 -33.5t-21.5 -81.5q0 -54 27.5 -87t71.5 -33zM131 -111q0 -43 33 -71t84 -28q65 0 105.5 36t40.5 82q0 43 -23 59.5t-81 16.5h-102h-10q-47 -28 -47 -95z
M284 540q-103 0 -103 79q0 40 31 61.5t79 21.5q21 0 32 -4v-15q-12 3 -25 3q-56 0 -56 -38q0 -25 20 -33t62 -8v-46q0 -21 -40 -21z" />
    <glyph glyph-name="uni0124" unicode="&#x124;" horiz-adv-x="816" 
d="M60 0v16l81 40v548l-81 40v16h265v-16l-79 -40v-236h325v236l-80 40v16h265v-16l-81 -40v-548l81 -40v-16h-265v16l80 40v257h-325v-257l79 -40v-16h-265zM258 710l133 152h34l133 -152h-14l-136 73l-136 -73h-14z" />
    <glyph glyph-name="hcircumflex" unicode="&#x125;" horiz-adv-x="590" 
d="M44 0v16l64 32v588l-61 51v8l148 55h7v-363h4q38 37 73 55.5t79 18.5q58 0 96.5 -29.5t38.5 -88.5v-295l63 -32v-16h-224v16l66 29v252q0 43 -26 64.5t-67 21.5q-25 0 -55 -8t-48 -25v-305l66 -29v-16h-224zM150 765l133 152h34l133 -152h-14l-136 73l-136 -73h-14z" />
    <glyph glyph-name="uni0126" unicode="&#x126;" horiz-adv-x="816" 
d="M60 0v16l81 40v414h-81v51h81v83l-81 40v16h265v-16l-79 -40v-83h325v83l-80 40v16h265v-16l-81 -40v-83h81v-51h-81v-414l81 -40v-16h-265v16l80 40v257h-325v-257l79 -40v-16h-265zM246 368h325v102h-325v-102z" />
    <glyph glyph-name="hbar" unicode="&#x127;" horiz-adv-x="590" 
d="M202 45l66 -29v-16h-224v16l64 32v487h-64v48h64v52l-61 50v9l148 56h7v-167h140v-48h-140v-148h4q38 37 73 55.5t79 18.5q58 0 96.5 -29.5t38.5 -88.5v-295l63 -32v-16h-224v16l66 29v252q0 43 -26 64.5t-67 21.5q-25 0 -55 -8t-48 -25v-305z" />
    <glyph glyph-name="uni0128" unicode="&#x128;" horiz-adv-x="395" 
d="M64 0v16l82 40v548l-82 40v16h267v-16l-81 -40v-548l81 -40v-16h-267zM43 725q25 75 46.5 96t50.5 21q40 0 71.5 -26t65.5 -26q19 0 33.5 10t27.5 42h15q-24 -75 -46 -96t-51 -21q-40 0 -71.5 26t-65.5 26q-19 0 -33 -10t-28 -42h-15z" />
    <glyph glyph-name="itilde" unicode="&#x129;" horiz-adv-x="318" 
d="M49 0v16l64 32v299l-61 51v8l148 55h7v-413l62 -32v-16h-220zM4 555q27 83 48 104.5t50 21.5q40 0 71.5 -32t63.5 -32q20 0 33 13t29 51h15q-27 -83 -48 -104.5t-50 -21.5q-40 0 -71.5 32t-63.5 32q-20 0 -33 -13t-29 -51h-15z" />
    <glyph glyph-name="uni012A" unicode="&#x12a;" horiz-adv-x="395" 
d="M64 0v16l82 40v548l-82 40v16h267v-16l-81 -40v-548l81 -40v-16h-267zM62 762v53h272v-53h-272z" />
    <glyph glyph-name="imacron" unicode="&#x12b;" horiz-adv-x="318" 
d="M49 0v16l64 32v299l-61 51v8l148 55h7v-413l62 -32v-16h-220zM23 591v52h272v-52h-272z" />
    <glyph glyph-name="uni012C" unicode="&#x12c;" horiz-adv-x="395" 
d="M64 0v16l82 40v548l-82 40v16h267v-16l-81 -40v-548l81 -40v-16h-267zM198 710q-66 0 -99 41t-50 111h13q27 -52 56 -67t80 -15t79.5 15t56.5 67h13q-18 -70 -51.5 -111t-97.5 -41z" />
    <glyph glyph-name="ibreve" unicode="&#x12d;" horiz-adv-x="318" 
d="M49 0v16l64 32v299l-61 51v8l148 55h7v-413l62 -32v-16h-220zM159 540q-66 0 -98 41.5t-51 125.5h13q31 -66 61.5 -81.5t74.5 -15.5t74 15.5t62 81.5h13q-19 -84 -52 -125.5t-97 -41.5z" />
    <glyph glyph-name="uni012E" unicode="&#x12e;" horiz-adv-x="395" 
d="M64 0v16l82 40v548l-82 40v16h267v-16l-81 -40v-548l81 -40v-16h-112q-44 -71 -44 -129q0 -64 63 -64q11 0 23.5 2.5t25.5 10.5h4v-14q-29 -46 -87 -46q-44 0 -71.5 24t-27.5 65q0 36 24 72t62 79h-127z" />
    <glyph glyph-name="iogonek" unicode="&#x12f;" horiz-adv-x="318" 
d="M157 577q-27 0 -45 18t-18 45q0 28 18 45.5t45 17.5t45 -17.5t18 -45.5q0 -27 -18 -45t-45 -18zM49 0v16l64 32v299l-61 51v8l148 55h7v-413l62 -32v-16h-86q-44 -71 -44 -129q0 -64 63 -64q11 0 23.5 2.5t25.5 10.5h3v-14q-27 -46 -86 -46q-44 0 -71.5 24t-27.5 65
q0 36 24 72t62 79h-106z" />
    <glyph glyph-name="uni0130" unicode="&#x130;" horiz-adv-x="395" 
d="M64 0v16l82 40v548l-82 40v16h267v-16l-81 -40v-548l81 -40v-16h-267zM198 725q-26 0 -44.5 18.5t-18.5 44.5t18.5 44.5t44.5 18.5t44.5 -18.5t18.5 -44.5t-18.5 -44.5t-44.5 -18.5z" />
    <glyph glyph-name="dotlessi" unicode="&#x131;" horiz-adv-x="318" 
d="M49 0v16l64 32v299l-61 51v8l148 55h7v-413l62 -32v-16h-220z" />
    <glyph glyph-name="uni0132" unicode="&#x132;" horiz-adv-x="795" 
d="M64 0v16l82 40v548l-82 40v16h267v-16l-81 -40v-548l81 -40v-16h-267zM444 -173q-33 0 -33 28q0 4 2 14.5t9 44.5h6q17 -4 27 -6.5t23 -2.5q31 0 49 24.5t18 121.5v553l-81 40v16h267v-16l-82 -40v-363q0 -113 -22.5 -202t-65.5 -136q-41 -46 -63.5 -61t-53.5 -15z" />
    <glyph glyph-name="ij" unicode="&#x133;" horiz-adv-x="636" 
d="M157 577q-27 0 -45 18t-18 45q0 28 18 45.5t45 17.5t45 -17.5t18 -45.5q0 -27 -18 -45t-45 -18zM49 0v16l64 32v299l-61 51v8l148 55h7v-413l62 -32v-16h-220zM475 577q-28 0 -45.5 18t-17.5 45q0 28 17.5 45.5t45.5 17.5q27 0 45 -17.5t18 -45.5q0 -27 -18 -45t-45 -18z
M368 -230v17q35 32 49 72.5t14 119.5v368l-61 51v8l147 55h8v-455q0 -80 -33 -136.5t-124 -99.5z" />
    <glyph glyph-name="uni0134" unicode="&#x134;" horiz-adv-x="400" 
d="M49 -173q-33 0 -33 28q0 4 2 14.5t9 44.5h6q17 -4 27 -6.5t23 -2.5q31 0 49 24.5t18 121.5v553l-81 40v16h267v-16l-82 -40v-363q0 -113 -22.5 -202t-65.5 -136q-41 -46 -63.5 -61t-53.5 -15zM52 710l133 152h34l133 -152h-14l-136 73l-136 -73h-14z" />
    <glyph glyph-name="jcircumflex" unicode="&#x135;" horiz-adv-x="318" 
d="M207 6q0 -80 -33 -136.5t-124 -99.5v17q35 32 49 72.5t14 119.5v368l-61 51v8l147 55h8v-455zM3 530l133 177h34l133 -177h-14l-136 92l-136 -92h-14z" />
    <glyph glyph-name="uni0136" unicode="&#x136;" horiz-adv-x="732" 
d="M60 0v16l81 40v548l-81 40v16h267v-16l-81 -40v-548l81 -40v-16h-267zM246 337l276 273l-71 34v16h216v-16l-63 -25l-256 -251l308 -325l63 -27v-16h-163zM362 -239q-20 0 -33 3v16q12 -3 26 -3q56 0 56 38q0 41 -83 41v46q0 21 41 21q103 0 103 -79q0 -40 -31 -61.5
t-79 -21.5z" />
    <glyph glyph-name="uni0137" unicode="&#x137;" horiz-adv-x="569" 
d="M44 0v16l64 32v588l-61 51v8l148 55h7v-493l159 136v6l-49 36v16h195v-16l-64 -35l-159 -122l198 -228l64 -34v-16h-147l-36 52l-161 188v-195l70 -29v-16h-228zM269 -239q-20 0 -33 3v16q12 -3 26 -3q56 0 56 38q0 41 -83 41v46q0 21 41 21q103 0 103 -79
q0 -40 -31 -61.5t-79 -21.5z" />
    <glyph glyph-name="kgreenlandic" unicode="&#x138;" horiz-adv-x="569" 
d="M44 0v16l64 32v299l-61 51v8l148 55h7v-204l159 136v6l-49 36v16h195v-16l-64 -35l-158 -122l197 -228l64 -34v-16h-147l-36 52l-161 188v-195l70 -29v-16h-228z" />
    <glyph glyph-name="uni0139" unicode="&#x139;" horiz-adv-x="636" 
d="M60 0v16l81 40v548l-81 40v16h277v-16l-91 -40v-549h237l71 172h16v-227h-510zM187 710l86 152h89q0 -16 -6.5 -32.5t-28.5 -31.5l-126 -88h-14z" />
    <glyph glyph-name="lacute" unicode="&#x13a;" horiz-adv-x="301" 
d="M41 0v16l63 32v588l-60 51v8l147 55h8v-702l62 -32v-16h-220zM145 765l86 152h89q0 -16 -6.5 -32.5t-28.5 -31.5l-126 -88h-14z" />
    <glyph glyph-name="uni013B" unicode="&#x13b;" horiz-adv-x="636" 
d="M60 0v16l81 40v548l-81 40v16h277v-16l-91 -40v-549h237l71 172h16v-227h-510zM319 -239q-20 0 -33 3v16q12 -3 26 -3q56 0 56 38q0 41 -83 41v46q0 21 41 21q103 0 103 -79q0 -40 -31 -61.5t-79 -21.5z" />
    <glyph glyph-name="uni013C" unicode="&#x13c;" horiz-adv-x="301" 
d="M41 0v16l63 32v588l-60 51v8l147 55h8v-702l62 -32v-16h-220zM115 -239q-20 0 -33 3v16q12 -3 26 -3q56 0 56 38q0 41 -83 41v46q0 21 41 21q103 0 103 -79q0 -40 -31 -61.5t-79 -21.5z" />
    <glyph glyph-name="uni013D" unicode="&#x13d;" horiz-adv-x="636" 
d="M60 0v16l81 40v548l-81 40v16h277v-16l-91 -40v-549h237l71 172h16v-227h-510zM414 473l20 187h80q3 -14 2.5 -29t-13.5 -36l-76 -122h-13z" />
    <glyph glyph-name="lcaron" unicode="&#x13e;" horiz-adv-x="301" 
d="M41 0v16l63 32v588l-60 51v8l147 55h8v-702l62 -32v-16h-220zM265 553l20 187h80q3 -14 2.5 -29t-13.5 -36l-76 -122h-13z" />
    <glyph glyph-name="uni013F" unicode="&#x13f;" horiz-adv-x="636" 
d="M60 0v16l81 40v548l-81 40v16h277v-16l-91 -40v-549h237l71 172h16v-227h-510zM497 285q-26 0 -44.5 18.5t-18.5 44.5t18.5 44.5t44.5 18.5t44.5 -18.5t18.5 -44.5t-18.5 -44.5t-44.5 -18.5z" />
    <glyph glyph-name="ldot" unicode="&#x140;" horiz-adv-x="301" 
d="M41 0v16l63 32v588l-60 51v8l147 55h8v-702l62 -32v-16h-220zM309 239q-26 0 -44.5 18.5t-18.5 44.5t18.5 44.5t44.5 18.5t44.5 -18.5t18.5 -44.5t-18.5 -44.5t-44.5 -18.5z" />
    <glyph glyph-name="uni0141" unicode="&#x141;" horiz-adv-x="636" 
d="M60 0v16l81 40v187l-80 -56v61l80 55v301l-81 40v16h277v-16l-91 -40v-242l146 99v-60l-146 -100v-246h237l71 172h16v-227h-510z" />
    <glyph glyph-name="lslash" unicode="&#x142;" horiz-adv-x="301" 
d="M41 0v16l63 32v254l-63 -39v56l63 39v278l-60 51v8l139 55h16v-342l72 45v-56l-72 -45v-304l62 -32v-16h-220z" />
    <glyph glyph-name="uni0143" unicode="&#x143;" horiz-adv-x="803" 
d="M56 0v16l81 40v546l-80 42v16h157l383 -471v416l-103 39v16h253v-16l-80 -39v-610h-43l-417 512v-452l103 -39v-16h-254zM404 710l86 152h89q0 -16 -6.5 -32.5t-28.5 -31.5l-126 -88h-14z" />
    <glyph glyph-name="nacute" unicode="&#x144;" horiz-adv-x="590" 
d="M44 0v16l64 32v299l-61 50v8l138 56h7l9 -74h5q38 37 73 55.5t79 18.5q58 0 96.5 -29.5t38.5 -88.5v-295l63 -32v-16h-224v16l66 32v249q0 43 -26 64.5t-67 21.5q-25 0 -55 -8t-48 -25v-302l66 -32v-16h-224zM298 530l86 177h89q0 -16 -7 -31t-28 -33l-126 -113h-14z" />
    <glyph glyph-name="uni0145" unicode="&#x145;" horiz-adv-x="803" 
d="M56 0v16l81 40v546l-80 42v16h157l383 -471v416l-103 39v16h253v-16l-80 -39v-610h-43l-417 512v-452l103 -39v-16h-254zM383 -239q-20 0 -33 3v16q12 -3 26 -3q56 0 56 38q0 41 -83 41v46q0 21 41 21q103 0 103 -79q0 -40 -31 -61.5t-79 -21.5z" />
    <glyph glyph-name="uni0146" unicode="&#x146;" horiz-adv-x="590" 
d="M44 0v16l64 32v299l-61 50v8l138 56h7l9 -74h5q38 37 73 55.5t79 18.5q58 0 96.5 -29.5t38.5 -88.5v-295l63 -32v-16h-224v16l66 32v249q0 43 -26 64.5t-67 21.5q-25 0 -55 -8t-48 -25v-302l66 -32v-16h-224zM264 -239q-20 0 -33 3v16q12 -3 26 -3q56 0 56 38
q0 41 -83 41v46q0 21 41 21q103 0 103 -79q0 -40 -31 -61.5t-79 -21.5z" />
    <glyph glyph-name="uni0147" unicode="&#x147;" horiz-adv-x="803" 
d="M56 0v16l81 40v546l-80 42v16h157l383 -471v416l-103 39v16h253v-16l-80 -39v-610h-43l-417 512v-452l103 -39v-16h-254zM394 710l-133 152h14l136 -73l136 73h14l-133 -152h-34z" />
    <glyph glyph-name="ncaron" unicode="&#x148;" horiz-adv-x="590" 
d="M44 0v16l64 32v299l-61 50v8l138 56h7l9 -74h5q38 37 73 55.5t79 18.5q58 0 96.5 -29.5t38.5 -88.5v-295l63 -32v-16h-224v16l66 32v249q0 43 -26 64.5t-67 21.5q-25 0 -55 -8t-48 -25v-302l66 -32v-16h-224zM283 530l-133 177h14l136 -92l136 92h14l-133 -177h-34z" />
    <glyph glyph-name="uni014A" unicode="&#x14a;" horiz-adv-x="803" 
d="M56 0v16l81 40v546l-80 42v16h157l383 -470v415l-103 39v16h253v-16l-80 -39v-625q0 -73 -18.5 -114.5t-46.5 -65.5q-49 -40 -127 -40q-43 0 -43 29v54l4 5h49q65 0 88.5 25t23.5 87v69l-390 472v-446l103 -39v-16h-254z" />
    <glyph glyph-name="eng" unicode="&#x14b;" horiz-adv-x="590" 
d="M44 0v16l64 32v299l-61 50v8l138 56h7l9 -74h5q38 37 73 55.5t79 18.5q58 0 96.5 -29.5t38.5 -88.5v-329q0 -104 -43.5 -154t-150.5 -90v17q53 31 76 70.5t23 128.5v311q0 43 -26 64.5t-67 21.5q-25 0 -55 -8t-48 -25v-302l66 -32v-16h-224z" />
    <glyph glyph-name="uni014C" unicode="&#x14c;" horiz-adv-x="803" 
d="M401 -10q-145 0 -240.5 96.5t-95.5 243.5t95.5 243.5t240.5 96.5t241 -96.5t96 -243.5t-96 -243.5t-241 -96.5zM421 40q91 0 148 70t57 189q0 146 -70 234t-171 88q-91 0 -149.5 -69.5t-58.5 -188.5q0 -146 71 -234.5t173 -88.5zM255 762v53h272v-53h-272z" />
    <glyph glyph-name="omacron" unicode="&#x14d;" horiz-adv-x="542" 
d="M271 -10q-101 0 -163 68t-62 168t62 167.5t163 67.5q100 0 162 -67.5t62 -167.5t-62 -168t-162 -68zM284 34q57 0 82.5 53.5t25.5 118.5q0 80 -31 146t-101 66q-58 0 -84.5 -52.5t-26.5 -118.5q0 -80 32 -146.5t103 -66.5zM132 591v52h272v-52h-272z" />
    <glyph glyph-name="uni014E" unicode="&#x14e;" horiz-adv-x="803" 
d="M401 -10q-145 0 -240.5 96.5t-95.5 243.5t95.5 243.5t240.5 96.5t241 -96.5t96 -243.5t-96 -243.5t-241 -96.5zM421 40q91 0 148 70t57 189q0 146 -70 234t-171 88q-91 0 -149.5 -69.5t-58.5 -188.5q0 -146 71 -234.5t173 -88.5zM391 710q-66 0 -99 41t-50 111h13
q27 -52 56 -67t80 -15t79.5 15t56.5 67h13q-18 -70 -51.5 -111t-97.5 -41z" />
    <glyph glyph-name="obreve" unicode="&#x14f;" horiz-adv-x="542" 
d="M271 -10q-101 0 -163 68t-62 168t62 167.5t163 67.5q100 0 162 -67.5t62 -167.5t-62 -168t-162 -68zM284 34q57 0 82.5 53.5t25.5 118.5q0 80 -31 146t-101 66q-58 0 -84.5 -52.5t-26.5 -118.5q0 -80 32 -146.5t103 -66.5zM268 540q-66 0 -98 41.5t-51 125.5h13
q31 -66 61.5 -81.5t74.5 -15.5t74 15.5t62 81.5h13q-19 -84 -52 -125.5t-97 -41.5z" />
    <glyph glyph-name="uni0150" unicode="&#x150;" horiz-adv-x="803" 
d="M401 -10q-145 0 -240.5 96.5t-95.5 243.5t95.5 243.5t240.5 96.5t241 -96.5t96 -243.5t-96 -243.5t-241 -96.5zM421 40q91 0 148 70t57 189q0 146 -70 234t-171 88q-91 0 -149.5 -69.5t-58.5 -188.5q0 -146 71 -234.5t173 -88.5zM324 710l47 152h67q5 -15 4.5 -31
t-16.5 -32l-89 -89h-13zM443 710l59 152h67q5 -15 5 -31.5t-17 -31.5l-100 -89h-14z" />
    <glyph glyph-name="ohungarumlaut" unicode="&#x151;" horiz-adv-x="542" 
d="M271 -10q-101 0 -163 68t-62 168t62 167.5t163 67.5q100 0 162 -67.5t62 -167.5t-62 -168t-162 -68zM284 34q57 0 82.5 53.5t25.5 118.5q0 80 -31 146t-101 66q-58 0 -84.5 -52.5t-26.5 -118.5q0 -80 32 -146.5t103 -66.5zM196 530l47 177h67q11 -32 -12 -63l-89 -114
h-13zM315 530l59 177h67q5 -15 4.5 -30.5t-16.5 -32.5l-100 -114h-14z" />
    <glyph glyph-name="uni0152" unicode="&#x152;" horiz-adv-x="1020" 
d="M418 0q-166 2 -259.5 89.5t-93.5 234.5q0 149 102.5 242.5t257.5 93.5h501v-172h-16l-65 117h-236v-237h166l52 84h16v-221h-16l-52 82h-166v-258h263l66 132h16v-187h-536zM443 55h62v550h-76q-119 0 -187 -74t-68 -199q0 -126 69.5 -201.5t199.5 -75.5z" />
    <glyph glyph-name="oe" unicode="&#x153;" horiz-adv-x="843" 
d="M271 -10q-101 0 -163 68t-62 168t62 167.5t163 67.5q59 0 106 -25t76 -67q66 92 171 92q80 0 125 -54.5t45 -156.5l-4 -5h-295q1 -69 38.5 -120.5t130.5 -51.5q58 0 128 38h3v-12q-23 -46 -70 -77.5t-110 -31.5q-115 0 -172 79q-65 -79 -172 -79zM284 34q57 0 82.5 53.5
t25.5 118.5q0 80 -31 146t-101 66q-58 0 -84.5 -52.5t-26.5 -118.5q0 -80 32.5 -146.5t102.5 -66.5zM606 417q-93 0 -109 -126h213q-11 68 -37 97t-67 29z" />
    <glyph glyph-name="uni0154" unicode="&#x154;" horiz-adv-x="677" 
d="M60 0v16l81 40v548l-81 40v16h278q105 0 165.5 -43.5t60.5 -119.5q0 -56 -38 -99t-100 -66l189 -279l67 -37v-16h-161l-192 304h-83v-247l75 -41v-16h-261zM305 605h-59v-248h65q62 0 102.5 35.5t40.5 90.5q0 57 -39.5 89.5t-109.5 32.5zM316 710l86 152h89
q0 -16 -6.5 -32.5t-28.5 -31.5l-126 -88h-14z" />
    <glyph glyph-name="racute" unicode="&#x155;" horiz-adv-x="404" 
d="M47 0v16l64 32v298l-61 51v8l138 56h8l9 -86h4q35 57 61 71.5t52 14.5q17 0 37 -8q30 -11 30 -28q0 -9 -4 -18l-21 -53h-7l-35 14q-19 7 -45 7q-43 0 -71 -41v-286l73 -32v-16h-232zM226 530l86 177h89q0 -16 -7 -31t-28 -33l-126 -113h-14z" />
    <glyph glyph-name="uni0156" unicode="&#x156;" horiz-adv-x="677" 
d="M60 0v16l81 40v548l-81 40v16h278q105 0 165.5 -43.5t60.5 -119.5q0 -56 -38 -99t-100 -66l189 -279l67 -37v-16h-161l-192 304h-83v-247l75 -41v-16h-261zM305 605h-59v-248h65q62 0 102.5 35.5t40.5 90.5q0 57 -39.5 89.5t-109.5 32.5zM339 -239q-20 0 -33 3v16
q12 -3 26 -3q56 0 56 38q0 41 -83 41v46q0 21 41 21q103 0 103 -79q0 -40 -31 -61.5t-79 -21.5z" />
    <glyph glyph-name="uni0157" unicode="&#x157;" horiz-adv-x="404" 
d="M47 0v16l64 32v298l-61 51v8l138 56h8l9 -86h4q35 57 61 71.5t52 14.5q17 0 37 -8q30 -11 30 -28q0 -9 -4 -18l-21 -53h-7l-35 14q-19 7 -45 7q-43 0 -71 -41v-286l73 -32v-16h-232zM122 -239q-20 0 -33 3v16q12 -3 26 -3q56 0 56 38q0 41 -83 41v46q0 21 41 21
q103 0 103 -79q0 -40 -31 -61.5t-79 -21.5z" />
    <glyph glyph-name="uni0158" unicode="&#x158;" horiz-adv-x="677" 
d="M60 0v16l81 40v548l-81 40v16h278q105 0 165.5 -43.5t60.5 -119.5q0 -56 -38 -99t-100 -66l189 -279l67 -37v-16h-161l-192 304h-83v-247l75 -41v-16h-261zM305 605h-59v-248h65q62 0 102.5 35.5t40.5 90.5q0 57 -39.5 89.5t-109.5 32.5zM306 710l-133 152h14l136 -73
l136 73h14l-133 -152h-34z" />
    <glyph glyph-name="rcaron" unicode="&#x159;" horiz-adv-x="404" 
d="M47 0v16l64 32v298l-61 51v8l138 56h8l9 -86h4q35 57 61 71.5t52 14.5q17 0 37 -8q30 -11 30 -28q0 -9 -4 -18l-21 -53h-7l-35 14q-19 7 -45 7q-43 0 -71 -41v-286l73 -32v-16h-232zM211 530l-133 177h14l136 -92l136 92h14l-133 -177h-34z" />
    <glyph glyph-name="uni015A" unicode="&#x15a;" horiz-adv-x="541" 
d="M266 -10q-63 0 -107.5 12t-91.5 35l-10 165h16l53 -109q67 -55 137 -55q58 0 91.5 30t33.5 82q0 62 -42 89t-121 66q-71 34 -109 71.5t-38 105.5q0 48 30 91t78 70t101 27q47 0 88 -11t81 -32l10 -160h-16l-52 107q-32 25 -58 36t-59 11q-43 0 -71.5 -29t-28.5 -73
q0 -49 30.5 -77t98.5 -60q91 -44 134 -83.5t43 -115.5q0 -63 -34.5 -106t-85.5 -65t-101 -22zM272 710l86 152h89q0 -16 -6.5 -32.5t-28.5 -31.5l-126 -88h-14z" />
    <glyph glyph-name="sacute" unicode="&#x15b;" horiz-adv-x="433" 
d="M212 -10q-48 0 -82.5 8.5t-69.5 26.5v112h15l32 -54q33 -55 102 -55q83 0 83 68q0 40 -29.5 57t-84.5 42q-52 23 -79.5 51t-27.5 77q0 58 46 98t103 40q36 0 68 -8.5t63 -24.5v-111h-14l-33 52q-33 52 -81 52q-73 0 -73 -62q0 -32 23 -49.5t74 -39.5q43 -20 82.5 -45
t39.5 -95q0 -68 -52 -104t-105 -36zM213 530l86 177h89q0 -16 -7 -31t-28 -33l-126 -113h-14z" />
    <glyph glyph-name="uni015C" unicode="&#x15c;" horiz-adv-x="541" 
d="M266 -10q-63 0 -107.5 12t-91.5 35l-10 165h16l53 -109q67 -55 137 -55q58 0 91.5 30t33.5 82q0 62 -42 89t-121 66q-71 34 -109 71.5t-38 105.5q0 48 30 91t78 70t101 27q47 0 88 -11t81 -32l10 -160h-16l-52 107q-32 25 -58 36t-59 11q-43 0 -71.5 -29t-28.5 -73
q0 -49 30.5 -77t98.5 -60q91 -44 134 -83.5t43 -115.5q0 -63 -34.5 -106t-85.5 -65t-101 -22zM129 710l133 152h34l133 -152h-14l-136 73l-136 -73h-14z" />
    <glyph glyph-name="scircumflex" unicode="&#x15d;" horiz-adv-x="433" 
d="M212 -10q-48 0 -82.5 8.5t-69.5 26.5v112h15l32 -54q33 -55 102 -55q83 0 83 68q0 40 -29.5 57t-84.5 42q-52 23 -79.5 51t-27.5 77q0 58 46 98t103 40q36 0 68 -8.5t63 -24.5v-111h-14l-33 52q-33 52 -81 52q-73 0 -73 -62q0 -32 23 -49.5t74 -39.5q43 -20 82.5 -45
t39.5 -95q0 -68 -52 -104t-105 -36zM66 530l133 177h34l133 -177h-14l-136 92l-136 -92h-14z" />
    <glyph glyph-name="uni015E" unicode="&#x15e;" horiz-adv-x="541" 
d="M275 -240q-56 0 -82 29v13h3q26 -12 61 -12q55 0 55 39q0 22 -21 36t-80 32l43 93q-58 1 -100.5 13t-86.5 34l-10 165h16l53 -109q67 -55 137 -55q58 0 91.5 30t33.5 82q0 62 -42 89t-121 66q-71 34 -109 71.5t-38 105.5q0 48 30 91t78 70t101 27q47 0 88 -11t81 -32
l10 -160h-16l-51 107q-32 25 -58 36t-60 11q-43 0 -71.5 -29t-28.5 -73q0 -49 30.5 -77t98.5 -60q91 -44 134 -83.5t43 -115.5q0 -87 -63 -135.5t-134 -56.5l-20 -43q58 -18 81 -40t23 -61q0 -37 -26 -62t-73 -25z" />
    <glyph glyph-name="scedilla" unicode="&#x15f;" horiz-adv-x="433" 
d="M215 -240q-56 0 -82 29v13h3q27 -12 62 -12q54 0 54 39q0 22 -21 36t-80 32l44 93q-41 2 -72 10.5t-63 24.5v112h15l32 -54q33 -55 102 -55q83 0 83 68q0 40 -29.5 57t-84.5 42q-52 23 -79.5 51t-27.5 77q0 58 46 98t103 40q36 0 68 -8.5t63 -24.5v-111h-14l-33 52
q-33 52 -81 52q-73 0 -73 -62q0 -32 23.5 -49.5t73.5 -39.5q43 -20 82.5 -45t39.5 -95q0 -62 -44.5 -97.5t-93.5 -41.5l-20 -43q57 -18 80 -40t23 -61q0 -37 -25.5 -62t-73.5 -25z" />
    <glyph glyph-name="uni0160" unicode="&#x160;" horiz-adv-x="541" 
d="M266 -10q-63 0 -107.5 12t-91.5 35l-10 165h16l53 -109q67 -55 137 -55q58 0 91.5 30t33.5 82q0 62 -42 89t-121 66q-71 34 -109 71.5t-38 105.5q0 48 30 91t78 70t101 27q47 0 88 -11t81 -32l10 -160h-16l-52 107q-32 25 -58 36t-59 11q-43 0 -71.5 -29t-28.5 -73
q0 -49 30.5 -77t98.5 -60q91 -44 134 -83.5t43 -115.5q0 -63 -34.5 -106t-85.5 -65t-101 -22zM262 710l-133 152h14l136 -73l136 73h14l-133 -152h-34z" />
    <glyph glyph-name="scaron" unicode="&#x161;" horiz-adv-x="433" 
d="M212 -10q-48 0 -82.5 8.5t-69.5 26.5v112h15l32 -54q33 -55 102 -55q83 0 83 68q0 40 -29.5 57t-84.5 42q-52 23 -79.5 51t-27.5 77q0 58 46 98t103 40q36 0 68 -8.5t63 -24.5v-111h-14l-33 52q-33 52 -81 52q-73 0 -73 -62q0 -32 23 -49.5t74 -39.5q43 -20 82.5 -45
t39.5 -95q0 -68 -52 -104t-105 -36zM199 530l-133 177h14l136 -92l136 92h14l-133 -177h-34z" />
    <glyph glyph-name="uni0162" unicode="&#x162;" horiz-adv-x="680" 
d="M187 0v16l101 40v549h-158l-71 -151h-16v206h594v-206h-16l-70 151h-159v-549l102 -40v-16h-135l-24 -52q58 -18 81 -40t23 -61q0 -37 -26 -62t-73 -25q-55 0 -83 29v13h3q27 -12 62 -12q54 0 54 39q0 22 -20.5 36t-79.5 32l47 103h-136z" />
    <glyph glyph-name="uni0163" unicode="&#x163;" horiz-adv-x="362" 
d="M200 -240q-55 0 -83 29v13h3q27 -12 62 -12q54 0 54 39q0 22 -20.5 36t-79.5 32l44 96q-36 7 -60 32t-24 64v316h-80v8l87 38l78 110h9v-110h133v-46h-133v-297q0 -26 22.5 -38t53.5 -12q34 0 64 7h3v-12q-12 -23 -43 -43t-75 -20l-20 -42q58 -18 81 -40t23 -61
q0 -37 -26 -62t-73 -25z" />
    <glyph glyph-name="uni0164" unicode="&#x164;" horiz-adv-x="680" 
d="M187 0v16l101 40v549h-158l-71 -151h-16v206h594v-206h-16l-70 151h-159v-549l102 -40v-16h-307zM323 710l-133 152h14l136 -73l136 73h14l-133 -152h-34z" />
    <glyph glyph-name="tcaron" unicode="&#x165;" horiz-adv-x="362" 
d="M211 -10q-48 0 -81.5 26t-33.5 73v316h-80v8l87 38l78 110h9v-110h133v-46h-133v-297q0 -26 22.5 -38t53.5 -12q34 0 64 7h3v-12q-12 -23 -43.5 -43t-78.5 -20zM260 553l20 187h80q3 -14 2.5 -29t-13.5 -36l-76 -122h-13z" />
    <glyph glyph-name="uni0166" unicode="&#x166;" horiz-adv-x="680" 
d="M187 0v16l101 40v261h-124v50h124v238h-158l-71 -151h-16v206h594v-206h-16l-70 151h-159v-238h125v-50h-125v-261l102 -40v-16h-307z" />
    <glyph glyph-name="tbar" unicode="&#x167;" horiz-adv-x="362" 
d="M211 -10q-48 0 -81.5 26t-33.5 73v147h-75v47h75v122h-80v8l87 38l78 110h9v-110h133v-46h-133v-122h123v-47h-123v-128q0 -26 22.5 -38t53.5 -12q34 0 64 7h3v-12q-12 -23 -43.5 -43t-78.5 -20z" />
    <glyph glyph-name="uni0168" unicode="&#x168;" horiz-adv-x="816" 
d="M409 -10q-116 0 -192 64t-76 209v341l-81 40v16h267v-16l-81 -40v-330q0 -124 56.5 -173t138.5 -49q66 0 115 43t49 144v367l-98 38v16h249v-16l-81 -39v-342q0 -145 -75.5 -209t-190.5 -64zM270 725q25 75 46.5 96t50.5 21q40 0 71.5 -26t65.5 -26q19 0 33.5 10t27.5 42
h15q-24 -75 -46 -96t-51 -21q-40 0 -71.5 26t-65.5 26q-19 0 -33 -10t-28 -42h-15z" />
    <glyph glyph-name="utilde" unicode="&#x169;" horiz-adv-x="568" 
d="M223 -10q-59 0 -96.5 30t-37.5 88v296l-64 31v16h158v-297q0 -42 25.5 -64t66.5 -22q25 0 55 8.5t48 25.5v302l-68 31v16h163v-406l69 -29v-16h-164v63h-5q-73 -73 -150 -73zM121 555q27 83 48 104.5t50 21.5q40 0 71.5 -32t63.5 -32q20 0 33 13t29 51h15
q-27 -83 -48 -104.5t-50 -21.5q-40 0 -71.5 32t-63.5 32q-20 0 -33 -13t-29 -51h-15z" />
    <glyph glyph-name="uni016A" unicode="&#x16a;" horiz-adv-x="816" 
d="M409 -10q-116 0 -192 64t-76 209v341l-81 40v16h267v-16l-81 -40v-330q0 -124 56.5 -173t138.5 -49q66 0 115 43t49 144v367l-98 38v16h249v-16l-81 -39v-342q0 -145 -75.5 -209t-190.5 -64zM289 762v53h272v-53h-272z" />
    <glyph glyph-name="umacron" unicode="&#x16b;" horiz-adv-x="568" 
d="M223 -10q-59 0 -96.5 30t-37.5 88v296l-64 31v16h158v-297q0 -42 25.5 -64t66.5 -22q25 0 55 8.5t48 25.5v302l-68 31v16h163v-406l69 -29v-16h-164v63h-5q-73 -73 -150 -73zM140 591v52h272v-52h-272z" />
    <glyph glyph-name="uni016C" unicode="&#x16c;" horiz-adv-x="816" 
d="M409 -10q-116 0 -192 64t-76 209v341l-81 40v16h267v-16l-81 -40v-330q0 -124 56.5 -173t138.5 -49q66 0 115 43t49 144v367l-98 38v16h249v-16l-81 -39v-342q0 -145 -75.5 -209t-190.5 -64zM425 710q-66 0 -99 41t-50 111h13q27 -52 56 -67t80 -15t79.5 15t56.5 67h13
q-18 -70 -51.5 -111t-97.5 -41z" />
    <glyph glyph-name="ubreve" unicode="&#x16d;" horiz-adv-x="568" 
d="M223 -10q-59 0 -96.5 30t-37.5 88v296l-64 31v16h158v-297q0 -42 25.5 -64t66.5 -22q25 0 55 8.5t48 25.5v302l-68 31v16h163v-406l69 -29v-16h-164v63h-5q-73 -73 -150 -73zM276 540q-66 0 -98 41.5t-51 125.5h13q31 -66 61.5 -81.5t74.5 -15.5t74 15.5t62 81.5h13
q-19 -84 -52 -125.5t-97 -41.5z" />
    <glyph glyph-name="uni016E" unicode="&#x16e;" horiz-adv-x="816" 
d="M409 -10q-116 0 -192 64t-76 209v341l-81 40v16h267v-16l-81 -40v-330q0 -124 56.5 -173t138.5 -49q66 0 115 43t49 144v367l-98 38v16h249v-16l-81 -39v-342q0 -145 -75.5 -209t-190.5 -64zM425 710q-38 0 -62.5 23.5t-24.5 59.5t24.5 60t62.5 24q39 0 63 -24t24 -60
t-24 -59.5t-63 -23.5zM430 734q32 0 32 53q0 66 -41 66q-31 0 -31 -53q0 -66 40 -66z" />
    <glyph glyph-name="uring" unicode="&#x16f;" horiz-adv-x="568" 
d="M223 -10q-59 0 -96.5 30t-37.5 88v296l-64 31v16h158v-297q0 -42 25.5 -64t66.5 -22q25 0 55 8.5t48 25.5v302l-68 31v16h163v-406l69 -29v-16h-164v63h-5q-73 -73 -150 -73zM276 701q39 0 63 -24t24 -59q0 -36 -24 -59.5t-63 -23.5q-38 0 -62.5 23.5t-24.5 59.5
q0 35 24.5 59t62.5 24zM272 677q-31 0 -31 -52q0 -66 40 -66q32 0 32 52q0 66 -41 66z" />
    <glyph glyph-name="uni0170" unicode="&#x170;" horiz-adv-x="816" 
d="M409 -10q-116 0 -192 64t-76 209v341l-81 40v16h267v-16l-81 -40v-330q0 -124 56.5 -173t138.5 -49q66 0 115 43t49 144v367l-98 38v16h249v-16l-81 -39v-342q0 -145 -75.5 -209t-190.5 -64zM358 710l47 152h67q5 -15 4.5 -31t-16.5 -32l-89 -89h-13zM477 710l59 152h67
q5 -15 5 -31.5t-17 -31.5l-100 -89h-14z" />
    <glyph glyph-name="uhungarumlaut" unicode="&#x171;" horiz-adv-x="568" 
d="M223 -10q-59 0 -96.5 30t-37.5 88v296l-64 31v16h158v-297q0 -42 25.5 -64t66.5 -22q25 0 55 8.5t48 25.5v302l-68 31v16h163v-406l69 -29v-16h-164v63h-5q-73 -73 -150 -73zM203 530l47 177h67q11 -32 -12 -63l-89 -114h-13zM322 530l59 177h67q5 -15 4.5 -30.5
t-16.5 -32.5l-100 -114h-14z" />
    <glyph glyph-name="uni0172" unicode="&#x172;" horiz-adv-x="816" 
d="M426 -240q-44 0 -71.5 24t-27.5 65q0 34 21.5 67.5t55.5 73.5q-114 1 -188.5 65t-74.5 208v341l-81 40v16h267v-16l-81 -40v-330q0 -124 56.5 -173t138.5 -49q66 0 115 43t49 144v367l-98 38v16h249v-16l-81 -39v-342q0 -137 -67 -201.5t-172 -70.5q-40 -67 -40 -120
q0 -64 64 -64q11 0 23.5 2.5t25.5 10.5h3v-14q-27 -46 -86 -46z" />
    <glyph glyph-name="uogonek" unicode="&#x173;" horiz-adv-x="568" 
d="M223 -10q-59 0 -96.5 30t-37.5 88v296l-64 31v16h158v-297q0 -42 25.5 -64t66.5 -22q25 0 55 8.5t48 25.5v302l-68 31v16h163v-406l69 -29v-16h-81q-44 -71 -44 -129q0 -64 63 -64q11 0 23.5 2.5t25.5 10.5h4v-14q-29 -46 -87 -46q-44 0 -71.5 24t-27.5 65q0 36 24 72
t62 79h-55v63h-5q-73 -73 -150 -73z" />
    <glyph glyph-name="uni0174" unicode="&#x174;" horiz-adv-x="995" 
d="M276 -5l-186 612l-76 37v16h269v-16l-85 -37l122 -422h6l173 480h42l176 -480h6l121 421l-85 38v16h222v-16l-67 -36l-188 -613h-41l-180 479h-7l-182 -479h-40zM370 710l133 152h34l133 -152h-14l-136 73l-136 -73h-14z" />
    <glyph glyph-name="wcircumflex" unicode="&#x175;" horiz-adv-x="747" 
d="M199 0l-159 405l-66 30v16h249v-16l-79 -29v-6l100 -264h4l136 315h25l136 -312h4l98 256v5l-70 35v16h196v-16l-73 -34l-169 -401h-25l-139 313l-143 -313h-25zM247 530l133 177h34l133 -177h-14l-136 92l-136 -92h-14z" />
    <glyph glyph-name="uni0176" unicode="&#x176;" horiz-adv-x="727" 
d="M225 0v16l90 40v252l-221 301l-63 35v16h258v-16l-73 -36v-4l177 -241l160 240v4l-74 37v16h216v-16l-65 -33l-211 -302v-253l90 -40v-16h-284zM234 710l133 152h34l133 -152h-14l-136 73l-136 -73h-14z" />
    <glyph glyph-name="ycircumflex" unicode="&#x177;" horiz-adv-x="479" 
d="M83 -241q-23 0 -28.5 6.5t-5.5 22.5v54l4 5h46q37 0 52 11.5t43 72.5l33 75l-187 399l-66 30v16h248v-16l-78 -30v-5l128 -276h4l105 271v5l-71 35v16h195v-16l-74 -33l-198 -481q-14 -35 -22.5 -54t-30.5 -50q-41 -58 -97 -58zM118 530l133 177h34l133 -177h-14l-136 92
l-136 -92h-14z" />
    <glyph glyph-name="uni0178" unicode="&#x178;" horiz-adv-x="727" 
d="M225 0v16l90 40v252l-221 301l-63 35v16h258v-16l-73 -36v-4l177 -241l160 240v4l-74 37v16h216v-16l-65 -33l-211 -302v-253l90 -40v-16h-284zM290 735q-22 0 -36.5 14.5t-14.5 36.5t14.5 36.5t36.5 14.5q51 0 51 -51t-51 -51zM478 735q-22 0 -37 14.5t-15 36.5t15 36.5
t37 14.5t36.5 -14.5t14.5 -36.5t-14.5 -36.5t-36.5 -14.5z" />
    <glyph glyph-name="uni0179" unicode="&#x179;" horiz-adv-x="659" 
d="M89 0v27l341 578h-249l-64 -132h-16v187h458v-27l-342 -578h271l66 142h16v-197h-481zM331 710l86 152h89q0 -16 -6.5 -32.5t-28.5 -31.5l-126 -88h-14z" />
    <glyph glyph-name="zacute" unicode="&#x17a;" horiz-adv-x="487" 
d="M66 0v18l222 389h-160l-46 -102h-17l11 156h5q13 -3 32 -6.5t33 -3.5h263v-18l-223 -388h175l39 109h17v-154h-351zM244 530l86 177h89q0 -16 -7 -31t-28 -33l-126 -113h-14z" />
    <glyph glyph-name="uni017B" unicode="&#x17b;" horiz-adv-x="659" 
d="M89 0v27l341 578h-249l-64 -132h-16v187h458v-27l-342 -578h271l66 142h16v-197h-481zM338 725q-26 0 -44.5 18.5t-18.5 44.5t18.5 44.5t44.5 18.5t44.5 -18.5t18.5 -44.5t-18.5 -44.5t-44.5 -18.5z" />
    <glyph glyph-name="zdotaccent" unicode="&#x17c;" horiz-adv-x="487" 
d="M66 0v18l222 389h-160l-46 -102h-17l11 156h5q13 -3 32 -6.5t33 -3.5h263v-18l-223 -388h175l39 109h17v-154h-351zM246 577q-26 0 -44.5 18.5t-18.5 44.5t18.5 44.5t44.5 18.5t44.5 -18.5t18.5 -44.5t-18.5 -44.5t-44.5 -18.5z" />
    <glyph glyph-name="uni017D" unicode="&#x17d;" horiz-adv-x="659" 
d="M89 0v27l341 578h-249l-64 -132h-16v187h458v-27l-342 -578h271l66 142h16v-197h-481zM321 710l-133 152h14l136 -73l136 73h14l-133 -152h-34z" />
    <glyph glyph-name="zcaron" unicode="&#x17e;" horiz-adv-x="487" 
d="M66 0v18l222 389h-160l-46 -102h-17l11 156h5q13 -3 32 -6.5t33 -3.5h263v-18l-223 -388h175l39 109h17v-154h-351zM229 530l-133 177h14l136 -92l136 92h14l-133 -177h-34z" />
    <glyph glyph-name="longs" unicode="&#x17f;" horiz-adv-x="349" 
d="M50 0v16l64 32v357h-78v46h78v38q0 25 17 68t48 87.5t75 75t98 30.5q17 0 37 -9q29 -13 29 -28q0 -6 -5 -18l-21 -50h-8l-25 10q-29 13 -64 13q-53 0 -70 -34.5t-17 -106.5v-481l73 -30v-16h-231z" />
    <glyph glyph-name="uni018F" unicode="&#x18f;" horiz-adv-x="693" 
d="M317 -10q-115 0 -183 79t-68 223l8 7h446v10q0 125 -55 196t-179 71q-62 0 -113.5 -19.5t-103.5 -53.5h-4v18q35 64 102.5 106.5t157.5 42.5q140 0 221.5 -85t81.5 -226q0 -162 -87.5 -265.5t-223.5 -103.5zM332 46q164 0 185 203h-351q10 -91 53 -147t113 -56z" />
    <glyph glyph-name="florin" unicode="&#x192;" horiz-adv-x="514" 
d="M-9 -151q-11 0 -21 3t-18 6q-27 10 -27 25q0 7 3 17l21 46h7l24 -11q28 -14 59 -14q35 0 49 21.5t31 105.5l54 264h-103v44h112l11 54q7 37 37 99t80.5 111.5t120.5 49.5q11 0 22 -3t18 -6q32 -12 32 -28q0 -9 -5 -18l-19 -46h-7l-26 11q-29 14 -66 14q-36 0 -55.5 -28.5
t-37.5 -115.5l-19 -94h166v-44h-175l-46 -228q-11 -51 -43 -105.5t-79 -92t-100 -37.5z" />
    <glyph glyph-name="uni01A0" unicode="&#x1a0;" horiz-adv-x="803" 
d="M401 -10q-145 0 -240.5 96.5t-95.5 243.5t95.5 243.5t240.5 96.5q44 0 86 -10v0v0q23 -6 45 -14q15 -3 30 -3q55 0 55 54v50l6 6h41q16 0 21.5 -5.5t5.5 -25.5q0 -45 -30.5 -72t-78.5 -27h-4q73 -43 116.5 -119.5t43.5 -173.5q0 -147 -96 -243.5t-241 -96.5zM421 40
q91 0 148 70t57 189q0 146 -70 234t-171 88q-91 0 -149.5 -69.5t-58.5 -188.5q0 -146 71 -234.5t173 -88.5z" />
    <glyph glyph-name="ohorn" unicode="&#x1a1;" horiz-adv-x="542" 
d="M271 -10q-101 0 -163 68t-62 168t62 167.5t163 67.5q53 0 98 -21q24 -7 45 -7q52 0 52 54v50l6 6h41q16 0 21.5 -5.5t5.5 -25.5q0 -44 -30 -71.5t-76 -27.5q-13 0 -23 1q84 -67 84 -188q0 -100 -62 -168t-162 -68zM284 34q57 0 82.5 53.5t25.5 118.5q0 80 -31 146
t-101 66q-58 0 -84.5 -52.5t-26.5 -118.5q0 -80 32.5 -146.5t102.5 -66.5z" />
    <glyph glyph-name="uni01AF" unicode="&#x1af;" horiz-adv-x="816" 
d="M409 -10q-116 0 -192 64t-76 209v341l-81 40v16h267v-16l-81 -40v-330q0 -124 56.5 -173t138.5 -49q66 0 115 43t49 144v367l-98 38v16h252q55 0 55 51v36l6 6h41q16 0 21.5 -5.5t5.5 -25.5q0 -44 -30.5 -63t-78.5 -19h-31l-73 -35v-342q0 -145 -75.5 -209t-190.5 -64z
" />
    <glyph glyph-name="uhorn" unicode="&#x1b0;" horiz-adv-x="568" 
d="M223 -10q-59 0 -96.5 30t-37.5 88v296l-64 31v16h158v-297q0 -42 25.5 -64t66.5 -22q25 0 55 8.5t48 25.5v302l-68 31v16h163v-15q15 -3 29 -3q52 0 52 54v50l6 6h41q16 0 21.5 -5.5t5.5 -25.5q0 -44 -30 -71.5t-76 -27.5q-27 0 -49 5v-373l69 -29v-16h-164v63h-5
q-73 -73 -150 -73z" />
    <glyph glyph-name="uni01C4" unicode="&#x1c4;" horiz-adv-x="1440" 
d="M60 0v16l81 40v548l-81 40v16h304q169 0 261 -85.5t92 -214.5q0 -104 -47 -185.5t-128.5 -128t-184.5 -46.5h-297zM337 605h-91v-550h106q119 0 187.5 74.5t68.5 199.5t-70 200.5t-201 75.5zM870 0v27l341 578h-249l-64 -132h-16v187h458v-27l-342 -578h271l66 142h16
v-197h-481zM1102 710l-133 152h14l136 -73l136 73h14l-133 -152h-34z" />
    <glyph glyph-name="uni01C5" unicode="&#x1c5;" horiz-adv-x="1268" 
d="M60 0v16l81 40v548l-81 40v16h304q169 0 261 -85.5t92 -214.5q0 -104 -47 -185.5t-128.5 -128t-184.5 -46.5h-297zM337 605h-91v-550h106q119 0 187.5 74.5t68.5 199.5t-70 200.5t-201 75.5zM847 0v18l222 389h-160l-46 -102h-17l11 156h5q13 -3 32 -6.5t33 -3.5h263v-18
l-223 -388h175l39 109h17v-154h-351zM1010 530l-133 177h14l136 -92l136 92h14l-133 -177h-34z" />
    <glyph glyph-name="uni01C6" unicode="&#x1c6;" horiz-adv-x="1064" 
d="M214 -10q-74 0 -123.5 55t-49.5 149q0 128 70.5 197.5t169.5 69.5q50 0 86 -9v184l-66 51v8l153 55h7v-705l71 -29v-16h-155l-9 51h-6q-72 -61 -148 -61zM136 219q0 -82 41 -119.5t98 -37.5q48 0 92 28v282q-45 40 -93 40q-56 0 -97 -43t-41 -150zM644 0v18l222 389h-160
l-46 -102h-17l11 156h5q13 -3 32 -6.5t33 -3.5h263v-18l-223 -388h175l39 109h17v-154h-351zM807 530l-133 177h14l136 -92l136 92h14l-133 -177h-34z" />
    <glyph glyph-name="uni01C7" unicode="&#x1c7;" horiz-adv-x="1036" 
d="M60 0v16l81 40v548l-81 40v16h277v-16l-91 -40v-549h237l71 172h16v-227h-510zM685 -173q-33 0 -33 28q0 4 2 14.5t9 44.5h6q17 -4 27 -6.5t23 -2.5q31 0 49 24.5t18 121.5v553l-81 40v16h267v-16l-82 -40v-363q0 -113 -22.5 -202t-65.5 -136q-41 -46 -63.5 -61
t-53.5 -15z" />
    <glyph glyph-name="uni01C8" unicode="&#x1c8;" horiz-adv-x="954" 
d="M60 0v16l81 40v548l-81 40v16h277v-16l-91 -40v-549h237l71 172h16v-227h-510zM793 577q-28 0 -45.5 18t-17.5 45q0 28 17.5 45.5t45.5 17.5q27 0 45 -17.5t18 -45.5q0 -27 -18 -45t-45 -18zM686 -230v17q35 32 49 72.5t14 119.5v368l-61 51v8l147 55h8v-455
q0 -80 -33 -136.5t-124 -99.5z" />
    <glyph glyph-name="uni01C9" unicode="&#x1c9;" horiz-adv-x="619" 
d="M41 0v16l63 32v588l-60 51v8l147 55h8v-702l62 -32v-16h-220zM458 577q-28 0 -45.5 18t-17.5 45q0 28 17.5 45.5t45.5 17.5q27 0 45 -17.5t18 -45.5q0 -27 -18 -45t-45 -18zM351 -230v17q35 32 49 72.5t14 119.5v368l-61 51v8l147 55h8v-455q0 -80 -33 -136.5t-124 -99.5
z" />
    <glyph glyph-name="uni01CA" unicode="&#x1ca;" horiz-adv-x="1203" 
d="M56 0v16l81 40v546l-80 42v16h157l383 -471v416l-103 39v16h253v-16l-80 -39v-610h-43l-417 512v-452l103 -39v-16h-254zM852 -173q-33 0 -33 28q0 4 2 14.5t9 44.5h6q17 -4 27 -6.5t23 -2.5q31 0 49 24.5t18 121.5v553l-81 40v16h267v-16l-82 -40v-363
q0 -113 -22.5 -202t-65.5 -136q-41 -46 -63.5 -61t-53.5 -15z" />
    <glyph glyph-name="uni01CB" unicode="&#x1cb;" horiz-adv-x="1121" 
d="M56 0v16l81 40v546l-80 42v16h157l383 -471v416l-103 39v16h253v-16l-80 -39v-610h-43l-417 512v-452l103 -39v-16h-254zM960 577q-28 0 -45.5 18t-17.5 45q0 28 17.5 45.5t45.5 17.5q27 0 45 -17.5t18 -45.5q0 -27 -18 -45t-45 -18zM853 -230v17q35 32 49 72.5t14 119.5
v368l-61 51v8l147 55h8v-455q0 -80 -33 -136.5t-124 -99.5z" />
    <glyph glyph-name="uni01CC" unicode="&#x1cc;" horiz-adv-x="908" 
d="M44 0v16l64 32v299l-61 50v8l138 56h7l9 -74h5q38 37 73 55.5t79 18.5q58 0 96.5 -29.5t38.5 -88.5v-295l63 -32v-16h-224v16l66 32v249q0 43 -26 64.5t-67 21.5q-25 0 -55 -8t-48 -25v-302l66 -32v-16h-224zM747 577q-28 0 -45.5 18t-17.5 45q0 28 17.5 45.5t45.5 17.5
q27 0 45 -17.5t18 -45.5q0 -27 -18 -45t-45 -18zM640 -230v17q35 32 49 72.5t14 119.5v368l-61 51v8l147 55h8v-455q0 -80 -33 -136.5t-124 -99.5z" />
    <glyph glyph-name="uni01E6" unicode="&#x1e6;" horiz-adv-x="765" 
d="M401 -10q-144 0 -240 92t-96 231q0 103 49 183.5t131.5 127t180.5 46.5q80 0 125.5 -13.5t88.5 -34.5l6 -168h-16l-72 120q-70 46 -132 46q-111 0 -183.5 -75t-72.5 -190q0 -145 75.5 -226.5t184.5 -81.5q29 0 57.5 3.5t57.5 13.5v171l-89 41v16h264v-16l-70 -44v-158
q-46 -38 -115 -61t-134 -23zM384 710l-133 152h14l136 -73l136 73h14l-133 -152h-34z" />
    <glyph glyph-name="gcaron" unicode="&#x1e7;" horiz-adv-x="545" 
d="M258 144q-45 0 -83 16q-33 -14 -33 -46q0 -50 72 -50h118q145 0 145 -129q0 -65 -65 -120t-176 -55q-95 0 -137 33.5t-42 82.5q0 36 18 64l68 44v5q-78 17 -78 86q0 39 27 66l54 29v6q-69 46 -69 127q0 67 51.5 112.5t129.5 45.5q50 0 92 -19l150 9v-55l-95 6l-4 -4
q38 -40 38 -95q0 -68 -52 -113.5t-129 -45.5zM267 186q38 0 59.5 33t21.5 81q0 56 -28 88.5t-68 32.5q-41 0 -62.5 -33.5t-21.5 -81.5q0 -54 27.5 -87t71.5 -33zM131 -111q0 -43 33 -71t84 -28q65 0 105.5 36t40.5 82q0 43 -23 59.5t-81 16.5h-102h-10q-47 -28 -47 -95z
M245 530l-133 177h14l136 -92l136 92h14l-133 -177h-34z" />
    <glyph glyph-name="uni01EA" unicode="&#x1ea;" horiz-adv-x="803" 
d="M418 -240q-44 0 -71.5 24t-27.5 65q0 34 21.5 67.5t55.5 73.5q-143 2 -237 98t-94 242q0 147 95.5 243.5t240.5 96.5t241 -96.5t96 -243.5q0 -140 -88 -235t-222 -104q-40 -66 -40 -120q0 -64 64 -64q11 0 23.5 2.5t25.5 10.5h3v-14q-27 -46 -86 -46zM421 40q91 0 148 70
t57 189q0 146 -70 234t-171 88q-91 0 -149.5 -69.5t-58.5 -188.5q0 -146 71 -234.5t173 -88.5z" />
    <glyph glyph-name="uni01EB" unicode="&#x1eb;" horiz-adv-x="542" 
d="M271 -10q-101 0 -163 68t-62 168t62 167.5t163 67.5q100 0 162 -67.5t62 -167.5q0 -91 -52.5 -156.5t-138.5 -77.5q-40 -67 -40 -121q0 -64 63 -64q12 0 24.5 2.5t25.5 10.5h3v-14q-29 -46 -86 -46q-44 0 -71.5 24t-27.5 65q0 34 21 67.5t56 73.5h-1zM284 34
q57 0 82.5 53.5t25.5 118.5q0 80 -31 146t-101 66q-58 0 -84.5 -52.5t-26.5 -118.5q0 -80 32.5 -146.5t102.5 -66.5z" />
    <glyph glyph-name="uni01FA" unicode="&#x1fa;" horiz-adv-x="756" 
d="M30 0v16l63 33l257 616h55l254 -613l67 -36v-16h-264v16l88 35l-74 180h-241l-73 -181l84 -34v-16h-216zM258 286h196l-98 241zM378 710q-38 0 -62.5 23.5t-24.5 59.5t24.5 60t62.5 24q39 0 63 -24t24 -60t-24 -59.5t-63 -23.5zM383 734q32 0 32 53q0 66 -41 66
q-31 0 -31 -53q0 -66 40 -66zM372 905l86 152h89q0 -16 -6.5 -32.5t-28.5 -31.5l-126 -88h-14z" />
    <glyph glyph-name="aringacute" unicode="&#x1fb;" horiz-adv-x="495" 
d="M155 -10q-48 0 -79.5 28.5t-31.5 78.5q0 49 35.5 84.5t123.5 56.5l95 22v70q0 36 -26.5 60t-61.5 24q-66 0 -66 -71v-32l-5 -5h-55q-26 0 -26 29q0 50 55 84q30 19 61 30.5t66 11.5q58 0 105.5 -24.5t47.5 -88.5v-279q15 -17 54 -17h35l4 -2v-6q-12 -21 -36.5 -37.5
t-59.5 -16.5q-65 0 -85 62h-7q-26 -26 -63.5 -44t-79.5 -18zM135 119q0 -62 73 -62q42 0 90 20v148q-108 -21 -135.5 -46.5t-27.5 -59.5zM230 701q39 0 63 -24t24 -59q0 -36 -24 -59.5t-63 -23.5q-38 0 -62.5 23.5t-24.5 59.5q0 35 24.5 59t62.5 24zM226 677q-31 0 -31 -52
q0 -66 40 -66q32 0 32 52q0 66 -41 66zM227 753l86 177h89q0 -16 -7 -31t-28 -33l-126 -113h-14z" />
    <glyph glyph-name="uni01FC" unicode="&#x1fc;" horiz-adv-x="993" 
d="M464 660h432v-172h-16l-64 117h-236v-237h166l51 84h16v-221h-16l-51 82h-166v-258h263l65 132h16v-187h-530v16l81 40v178h-204l-110 -184l80 -34v-16h-216v16l64 34zM304 289h171v286zM535 710l86 152h89q0 -16 -6.5 -32.5t-28.5 -31.5l-126 -88h-14z" />
    <glyph glyph-name="aeacute" unicode="&#x1fd;" horiz-adv-x="740" 
d="M156 -10q-48 0 -79.5 28.5t-31.5 78.5q0 49 35.5 84.5t123.5 56.5l95 22v70q0 36 -26.5 60t-61.5 24q-66 0 -66 -71v-32l-5 -5h-55q-26 0 -26 29q0 50 55 84q30 19 61 30.5t66 11.5q42 0 81 -13t57 -46q61 59 142 59q79 0 124.5 -54.5t45.5 -156.5l-4 -5h-295
q1 -69 38.5 -120.5t130.5 -51.5q58 0 128 38h3v-12q-23 -46 -70 -77.5t-110 -31.5q-117 0 -174 82h-6q-28 -34 -73.5 -58t-102.5 -24zM503 417q-93 0 -109 -126h213q-11 68 -37 97t-67 29zM135 119q0 -62 73 -62q32 0 60.5 9t57.5 25q-27 49 -27 116v18
q-109 -21 -136.5 -46.5t-27.5 -59.5zM376 530l86 177h89q0 -16 -7 -31t-28 -33l-126 -113h-14z" />
    <glyph glyph-name="uni01FE" unicode="&#x1fe;" horiz-adv-x="803" 
d="M65 -10l90 102q-90 96 -90 238q0 147 95.5 243.5t240.5 96.5q118 0 207 -67l59 67h71l-91 -102q91 -96 91 -238q0 -147 -96 -243.5t-241 -96.5q-118 0 -206 67l-59 -67h-71zM177 363q0 -113 45 -195l329 371q-67 82 -166 82q-91 0 -149.5 -69.5t-58.5 -188.5zM421 40
q91 0 148 70t57 189q0 112 -44 194l-329 -371q68 -82 168 -82zM384 710l86 152h89q0 -16 -6.5 -32.5t-28.5 -31.5l-126 -88h-14z" />
    <glyph glyph-name="oslashacute" unicode="&#x1ff;" horiz-adv-x="542" 
d="M46 -10l59 72q-59 66 -59 164q0 100 62 167.5t163 67.5q72 0 127 -38l31 38h66l-58 -72q58 -66 58 -163q0 -100 -62 -168t-162 -68q-72 0 -127 38l-31 -38h-67zM149 247q0 -61 16 -110l187 230q-34 51 -92 51t-84.5 -52.5t-26.5 -118.5zM284 34q57 0 82.5 53.5
t25.5 118.5q0 61 -15 109l-187 -230q36 -51 94 -51zM266 530l86 177h89q0 -16 -7 -31t-28 -33l-126 -113h-14z" />
    <glyph glyph-name="uni0200" unicode="&#x200;" horiz-adv-x="756" 
d="M30 0v16l63 33l257 616h55l254 -613l67 -36v-16h-264v16l88 35l-74 180h-241l-73 -181l84 -34v-16h-216zM258 286h196l-98 241zM310 710l-105 89q-17 14 -17 31t5 32h68l63 -152h-14zM430 710l-93 89q-17 16 -17 32t5 31h67l52 -152h-14z" />
    <glyph glyph-name="uni0201" unicode="&#x201;" horiz-adv-x="495" 
d="M155 -10q-48 0 -79.5 28.5t-31.5 78.5q0 49 35.5 84.5t123.5 56.5l95 22v70q0 36 -26.5 60t-61.5 24q-66 0 -66 -71v-32l-5 -5h-55q-26 0 -26 29q0 50 55 84q30 19 61 30.5t66 11.5q58 0 105.5 -24.5t47.5 -88.5v-279q15 -17 54 -17h35l4 -2v-6q-12 -21 -36.5 -37.5
t-59.5 -16.5q-65 0 -85 62h-7q-26 -26 -63.5 -44t-79.5 -18zM135 119q0 -62 73 -62q42 0 90 20v148q-108 -21 -135.5 -46.5t-27.5 -59.5zM163 530l-105 114q-15 16 -16 32t4 31h67l64 -177h-14zM283 530l-94 114q-14 18 -15.5 33t3.5 30h67l52 -177h-13z" />
    <glyph glyph-name="uni0202" unicode="&#x202;" horiz-adv-x="756" 
d="M30 0v16l63 33l257 616h55l254 -613l67 -36v-16h-264v16l88 35l-74 180h-241l-73 -181l84 -34v-16h-216zM258 286h196l-98 241zM229 710q18 70 51.5 111t97.5 41q66 0 99 -41t50 -111h-13q-27 52 -56 67t-80 15t-79.5 -15t-56.5 -67h-13z" />
    <glyph glyph-name="uni0203" unicode="&#x203;" horiz-adv-x="495" 
d="M155 -10q-48 0 -79.5 28.5t-31.5 78.5q0 49 35.5 84.5t123.5 56.5l95 22v70q0 36 -26.5 60t-61.5 24q-66 0 -66 -71v-32l-5 -5h-55q-26 0 -26 29q0 50 55 84q30 19 61 30.5t66 11.5q58 0 105.5 -24.5t47.5 -88.5v-279q15 -17 54 -17h35l4 -2v-6q-12 -21 -36.5 -37.5
t-59.5 -16.5q-65 0 -85 62h-7q-26 -26 -63.5 -44t-79.5 -18zM135 119q0 -62 73 -62q42 0 90 20v148q-108 -21 -135.5 -46.5t-27.5 -59.5zM81 543q19 84 52 125.5t97 41.5q66 0 98 -41.5t51 -125.5h-13q-31 66 -61.5 81.5t-74.5 15.5t-74 -15.5t-62 -81.5h-13z" />
    <glyph glyph-name="uni0204" unicode="&#x204;" horiz-adv-x="659" 
d="M60 0v16l81 40v548l-81 40v16h502v-172h-16l-65 117h-235v-237h166l51 84h16v-221h-16l-51 82h-166v-258h262l66 132h16v-187h-530zM271 710l-105 89q-17 14 -17 31t5 32h68l63 -152h-14zM391 710l-93 89q-17 16 -17 32t5 31h67l52 -152h-14z" />
    <glyph glyph-name="uni0205" unicode="&#x205;" horiz-adv-x="487" 
d="M259 -10q-98 0 -155 59t-57 157q0 112 66.5 183.5t154.5 71.5q80 0 125 -54.5t46 -156.5l-5 -5h-295q1 -69 38.5 -120.5t130.5 -51.5q57 0 129 38h3v-12q-24 -46 -71 -77.5t-110 -31.5zM250 417q-93 0 -109 -126h213q-10 68 -36 97t-68 29zM194 530l-105 114
q-15 16 -16 32t4 31h67l64 -177h-14zM314 530l-94 114q-14 18 -15.5 33t3.5 30h67l52 -177h-13z" />
    <glyph glyph-name="uni0206" unicode="&#x206;" horiz-adv-x="659" 
d="M60 0v16l81 40v548l-81 40v16h502v-172h-16l-65 117h-235v-237h166l51 84h16v-221h-16l-51 82h-166v-258h262l66 132h16v-187h-530zM190 710q18 70 51.5 111t97.5 41q66 0 99 -41t50 -111h-13q-27 52 -56 67t-80 15t-79.5 -15t-56.5 -67h-13z" />
    <glyph glyph-name="uni0207" unicode="&#x207;" horiz-adv-x="487" 
d="M259 -10q-98 0 -155 59t-57 157q0 112 66.5 183.5t154.5 71.5q80 0 125 -54.5t46 -156.5l-5 -5h-295q1 -69 38.5 -120.5t130.5 -51.5q57 0 129 38h3v-12q-24 -46 -71 -77.5t-110 -31.5zM250 417q-93 0 -109 -126h213q-10 68 -36 97t-68 29zM112 543q19 84 52 125.5
t97 41.5q66 0 98 -41.5t51 -125.5h-13q-31 66 -61.5 81.5t-74.5 15.5t-74 -15.5t-62 -81.5h-13z" />
    <glyph glyph-name="uni0208" unicode="&#x208;" horiz-adv-x="395" 
d="M64 0v16l82 40v548l-82 40v16h267v-16l-81 -40v-548l81 -40v-16h-267zM130 710l-105 89q-17 14 -17 31t5 32h68l63 -152h-14zM250 710l-93 89q-17 16 -17 32t5 31h67l52 -152h-14z" />
    <glyph glyph-name="uni0209" unicode="&#x209;" horiz-adv-x="318" 
d="M49 0v16l64 32v299l-61 51v8l148 55h7v-413l62 -32v-16h-220zM92 530l-105 114q-15 16 -16 32t4 31h67l64 -177h-14zM212 530l-94 114q-14 18 -15.5 33t3.5 30h67l52 -177h-13z" />
    <glyph glyph-name="uni020A" unicode="&#x20a;" horiz-adv-x="395" 
d="M64 0v16l82 40v548l-82 40v16h267v-16l-81 -40v-548l81 -40v-16h-267zM49 710q18 70 51.5 111t97.5 41q66 0 99 -41t50 -111h-13q-27 52 -56 67t-80 15t-79.5 -15t-56.5 -67h-13z" />
    <glyph glyph-name="uni020B" unicode="&#x20b;" horiz-adv-x="318" 
d="M49 0v16l64 32v299l-61 51v8l148 55h7v-413l62 -32v-16h-220zM10 543q19 84 52 125.5t97 41.5q66 0 98 -41.5t51 -125.5h-13q-31 66 -61.5 81.5t-74.5 15.5t-74 -15.5t-62 -81.5h-13z" />
    <glyph glyph-name="uni020C" unicode="&#x20c;" horiz-adv-x="803" 
d="M401 -10q-145 0 -240.5 96.5t-95.5 243.5t95.5 243.5t240.5 96.5t241 -96.5t96 -243.5t-96 -243.5t-241 -96.5zM421 40q91 0 148 70t57 189q0 146 -70 234t-171 88q-91 0 -149.5 -69.5t-58.5 -188.5q0 -146 71 -234.5t173 -88.5zM323 710l-105 89q-17 14 -17 31t5 32h68
l63 -152h-14zM443 710l-93 89q-17 16 -17 32t5 31h67l52 -152h-14z" />
    <glyph glyph-name="uni020D" unicode="&#x20d;" horiz-adv-x="542" 
d="M271 -10q-101 0 -163 68t-62 168t62 167.5t163 67.5q100 0 162 -67.5t62 -167.5t-62 -168t-162 -68zM284 34q57 0 82.5 53.5t25.5 118.5q0 80 -31 146t-101 66q-58 0 -84.5 -52.5t-26.5 -118.5q0 -80 32 -146.5t103 -66.5zM201 530l-105 114q-15 16 -16 32t4 31h67
l64 -177h-14zM321 530l-94 114q-14 18 -15.5 33t3.5 30h67l52 -177h-13z" />
    <glyph glyph-name="uni020E" unicode="&#x20e;" horiz-adv-x="803" 
d="M401 -10q-145 0 -240.5 96.5t-95.5 243.5t95.5 243.5t240.5 96.5t241 -96.5t96 -243.5t-96 -243.5t-241 -96.5zM421 40q91 0 148 70t57 189q0 146 -70 234t-171 88q-91 0 -149.5 -69.5t-58.5 -188.5q0 -146 71 -234.5t173 -88.5zM242 710q18 70 51.5 111t97.5 41
q66 0 99 -41t50 -111h-13q-27 52 -56 67t-80 15t-79.5 -15t-56.5 -67h-13z" />
    <glyph glyph-name="uni020F" unicode="&#x20f;" horiz-adv-x="542" 
d="M271 -10q-101 0 -163 68t-62 168t62 167.5t163 67.5q100 0 162 -67.5t62 -167.5t-62 -168t-162 -68zM284 34q57 0 82.5 53.5t25.5 118.5q0 80 -31 146t-101 66q-58 0 -84.5 -52.5t-26.5 -118.5q0 -80 32 -146.5t103 -66.5zM119 543q19 84 52 125.5t97 41.5q66 0 98 -41.5
t51 -125.5h-13q-31 66 -61.5 81.5t-74.5 15.5t-74 -15.5t-62 -81.5h-13z" />
    <glyph glyph-name="uni0210" unicode="&#x210;" horiz-adv-x="677" 
d="M60 0v16l81 40v548l-81 40v16h278q105 0 165.5 -43.5t60.5 -119.5q0 -56 -38 -99t-100 -66l189 -279l67 -37v-16h-161l-192 304h-83v-247l75 -41v-16h-261zM305 605h-59v-248h65q62 0 102.5 35.5t40.5 90.5q0 57 -39.5 89.5t-109.5 32.5zM255 710l-105 89q-17 14 -17 31
t5 32h68l63 -152h-14zM375 710l-93 89q-17 16 -17 32t5 31h67l52 -152h-14z" />
    <glyph glyph-name="uni0211" unicode="&#x211;" horiz-adv-x="404" 
d="M47 0v16l64 32v298l-61 51v8l138 56h8l9 -86h4q35 57 61 71.5t52 14.5q17 0 37 -8q30 -11 30 -28q0 -9 -4 -18l-21 -53h-7l-35 14q-19 7 -45 7q-43 0 -71 -41v-286l73 -32v-16h-232zM161 530l-105 114q-15 16 -16 32t4 31h67l64 -177h-14zM281 530l-94 114
q-14 18 -15.5 33t3.5 30h67l52 -177h-13z" />
    <glyph glyph-name="uni0212" unicode="&#x212;" horiz-adv-x="677" 
d="M60 0v16l81 40v548l-81 40v16h278q105 0 165.5 -43.5t60.5 -119.5q0 -56 -38 -99t-100 -66l189 -279l67 -37v-16h-161l-192 304h-83v-247l75 -41v-16h-261zM305 605h-59v-248h65q62 0 102.5 35.5t40.5 90.5q0 57 -39.5 89.5t-109.5 32.5zM174 710q18 70 51.5 111t97.5 41
q66 0 99 -41t50 -111h-13q-27 52 -56 67t-80 15t-79.5 -15t-56.5 -67h-13z" />
    <glyph glyph-name="uni0213" unicode="&#x213;" horiz-adv-x="404" 
d="M47 0v16l64 32v298l-61 51v8l138 56h8l9 -86h4q35 57 61 71.5t52 14.5q17 0 37 -8q30 -11 30 -28q0 -9 -4 -18l-21 -53h-7l-35 14q-19 7 -45 7q-43 0 -71 -41v-286l73 -32v-16h-232zM79 543q19 84 52 125.5t97 41.5q66 0 98 -41.5t51 -125.5h-13q-31 66 -61.5 81.5
t-74.5 15.5t-74 -15.5t-62 -81.5h-13z" />
    <glyph glyph-name="uni0214" unicode="&#x214;" horiz-adv-x="816" 
d="M409 -10q-116 0 -192 64t-76 209v341l-81 40v16h267v-16l-81 -40v-330q0 -124 56.5 -173t138.5 -49q66 0 115 43t49 144v367l-98 38v16h249v-16l-81 -39v-342q0 -145 -75.5 -209t-190.5 -64zM357 710l-105 89q-17 14 -17 31t5 32h68l63 -152h-14zM477 710l-93 89
q-17 16 -17 32t5 31h67l52 -152h-14z" />
    <glyph glyph-name="uni0215" unicode="&#x215;" horiz-adv-x="568" 
d="M223 -10q-59 0 -96.5 30t-37.5 88v296l-64 31v16h158v-297q0 -42 25.5 -64t66.5 -22q25 0 55 8.5t48 25.5v302l-68 31v16h163v-406l69 -29v-16h-164v63h-5q-73 -73 -150 -73zM208 530l-105 114q-15 16 -16 32t4 31h67l64 -177h-14zM328 530l-94 114q-14 18 -15.5 33
t3.5 30h67l52 -177h-13z" />
    <glyph glyph-name="uni0216" unicode="&#x216;" horiz-adv-x="816" 
d="M409 -10q-116 0 -192 64t-76 209v341l-81 40v16h267v-16l-81 -40v-330q0 -124 56.5 -173t138.5 -49q66 0 115 43t49 144v367l-98 38v16h249v-16l-81 -39v-342q0 -145 -75.5 -209t-190.5 -64zM276 710q18 70 51.5 111t97.5 41q66 0 99 -41t50 -111h-13q-27 52 -56 67
t-80 15t-79.5 -15t-56.5 -67h-13z" />
    <glyph glyph-name="uni0217" unicode="&#x217;" horiz-adv-x="568" 
d="M223 -10q-59 0 -96.5 30t-37.5 88v296l-64 31v16h158v-297q0 -42 25.5 -64t66.5 -22q25 0 55 8.5t48 25.5v302l-68 31v16h163v-406l69 -29v-16h-164v63h-5q-73 -73 -150 -73zM127 543q19 84 52 125.5t97 41.5q66 0 98 -41.5t51 -125.5h-13q-31 66 -61.5 81.5t-74.5 15.5
t-74 -15.5t-62 -81.5h-13z" />
    <glyph glyph-name="uni0218" unicode="&#x218;" horiz-adv-x="541" 
d="M266 -10q-63 0 -107.5 12t-91.5 35l-10 165h16l53 -109q67 -55 137 -55q58 0 91.5 30t33.5 82q0 62 -42 89t-121 66q-71 34 -109 71.5t-38 105.5q0 48 30 91t78 70t101 27q47 0 88 -11t81 -32l10 -160h-16l-52 107q-32 25 -58 36t-59 11q-43 0 -71.5 -29t-28.5 -73
q0 -49 30.5 -77t98.5 -60q91 -44 134 -83.5t43 -115.5q0 -63 -34.5 -106t-85.5 -65t-101 -22zM239 -239q-20 0 -33 3v16q12 -3 26 -3q56 0 56 38q0 41 -83 41v46q0 21 41 21q103 0 103 -79q0 -40 -31 -61.5t-79 -21.5z" />
    <glyph glyph-name="uni0219" unicode="&#x219;" horiz-adv-x="433" 
d="M212 -10q-48 0 -82.5 8.5t-69.5 26.5v112h15l32 -54q33 -55 102 -55q83 0 83 68q0 40 -29.5 57t-84.5 42q-52 23 -79.5 51t-27.5 77q0 58 46 98t103 40q36 0 68 -8.5t63 -24.5v-111h-14l-33 52q-33 52 -81 52q-73 0 -73 -62q0 -32 23 -49.5t74 -39.5q43 -20 82.5 -45
t39.5 -95q0 -68 -52 -104t-105 -36zM179 -239q-20 0 -33 3v16q12 -3 26 -3q56 0 56 38q0 41 -83 41v46q0 21 41 21q103 0 103 -79q0 -40 -31 -61.5t-79 -21.5z" />
    <glyph glyph-name="uni021A" unicode="&#x21a;" horiz-adv-x="680" 
d="M187 0v16l101 40v549h-158l-71 -151h-16v206h594v-206h-16l-70 151h-159v-549l102 -40v-16h-307zM304 -239q-20 0 -33 3v16q12 -3 26 -3q56 0 56 38q0 41 -83 41v46q0 21 41 21q103 0 103 -79q0 -40 -31 -61.5t-79 -21.5z" />
    <glyph glyph-name="uni021B" unicode="&#x21b;" horiz-adv-x="362" 
d="M211 -10q-48 0 -81.5 26t-33.5 73v316h-80v8l87 38l78 110h9v-110h133v-46h-133v-297q0 -26 22.5 -38t53.5 -12q34 0 64 7h3v-12q-12 -23 -43.5 -43t-78.5 -20zM178 -239q-20 0 -33 3v16q12 -3 26 -3q56 0 56 38q0 41 -83 41v46q0 21 41 21q103 0 103 -79
q0 -40 -31 -61.5t-79 -21.5z" />
    <glyph glyph-name="uni022A" unicode="&#x22a;" horiz-adv-x="803" 
d="M401 -10q-145 0 -240.5 96.5t-95.5 243.5t95.5 243.5t240.5 96.5t241 -96.5t96 -243.5t-96 -243.5t-241 -96.5zM421 40q91 0 148 70t57 189q0 146 -70 234t-171 88q-91 0 -149.5 -69.5t-58.5 -188.5q0 -146 71 -234.5t173 -88.5zM255 927v52h272v-52h-272zM297 735
q-22 0 -36.5 14.5t-14.5 36.5t14.5 36.5t36.5 14.5q51 0 51 -51t-51 -51zM485 735q-22 0 -37 14.5t-15 36.5t15 36.5t37 14.5t36.5 -14.5t14.5 -36.5t-14.5 -36.5t-36.5 -14.5z" />
    <glyph glyph-name="uni022B" unicode="&#x22b;" horiz-adv-x="542" 
d="M271 -10q-101 0 -163 68t-62 168t62 167.5t163 67.5q100 0 162 -67.5t62 -167.5t-62 -168t-162 -68zM284 34q57 0 82.5 53.5t25.5 118.5q0 80 -31 146t-101 66q-58 0 -84.5 -52.5t-26.5 -118.5q0 -80 32 -146.5t103 -66.5zM174 566q-22 0 -36.5 14.5t-14.5 36.5
t14.5 36.5t36.5 14.5q51 0 51 -51t-51 -51zM362 566q-22 0 -37 14.5t-15 36.5t15 36.5t37 14.5t36.5 -14.5t14.5 -36.5t-14.5 -36.5t-36.5 -14.5zM132 762v53h272v-53h-272z" />
    <glyph glyph-name="uni022C" unicode="&#x22c;" horiz-adv-x="803" 
d="M401 -10q-145 0 -240.5 96.5t-95.5 243.5t95.5 243.5t240.5 96.5t241 -96.5t96 -243.5t-96 -243.5t-241 -96.5zM421 40q91 0 148 70t57 189q0 146 -70 234t-171 88q-91 0 -149.5 -69.5t-58.5 -188.5q0 -146 71 -234.5t173 -88.5zM236 725q25 75 46.5 96t50.5 21
q40 0 71.5 -26t65.5 -26q19 0 33.5 10t27.5 42h15q-24 -75 -46 -96t-51 -21q-40 0 -71.5 26t-65.5 26q-19 0 -33 -10t-28 -42h-15zM255 927v53h272v-53h-272z" />
    <glyph glyph-name="uni022D" unicode="&#x22d;" horiz-adv-x="542" 
d="M271 -10q-101 0 -163 68t-62 168t62 167.5t163 67.5q100 0 162 -67.5t62 -167.5t-62 -168t-162 -68zM284 34q57 0 82.5 53.5t25.5 118.5q0 80 -31 146t-101 66q-58 0 -84.5 -52.5t-26.5 -118.5q0 -80 32 -146.5t103 -66.5zM113 555q27 83 48 104.5t50 21.5q40 0 71.5 -32
t63.5 -32q20 0 33 13t29 51h15q-27 -83 -48 -104.5t-50 -21.5q-40 0 -71.5 32t-63.5 32q-20 0 -33 -13t-29 -51h-15zM132 762v53h272v-53h-272z" />
    <glyph glyph-name="uni0230" unicode="&#x230;" horiz-adv-x="803" 
d="M401 -10q-145 0 -240.5 96.5t-95.5 243.5t95.5 243.5t240.5 96.5t241 -96.5t96 -243.5t-96 -243.5t-241 -96.5zM421 40q91 0 148 70t57 189q0 146 -70 234t-171 88q-91 0 -149.5 -69.5t-58.5 -188.5q0 -146 71 -234.5t173 -88.5zM391 725q-26 0 -44.5 18.5t-18.5 44.5
t18.5 44.5t44.5 18.5t44.5 -18.5t18.5 -44.5t-18.5 -44.5t-44.5 -18.5zM255 927v53h272v-53h-272z" />
    <glyph glyph-name="uni0231" unicode="&#x231;" horiz-adv-x="542" 
d="M271 -10q-101 0 -163 68t-62 168t62 167.5t163 67.5q100 0 162 -67.5t62 -167.5t-62 -168t-162 -68zM284 34q57 0 82.5 53.5t25.5 118.5q0 80 -31 146t-101 66q-58 0 -84.5 -52.5t-26.5 -118.5q0 -80 32 -146.5t103 -66.5zM268 577q-26 0 -44.5 18.5t-18.5 44.5
t18.5 44.5t44.5 18.5t44.5 -18.5t18.5 -44.5t-18.5 -44.5t-44.5 -18.5zM132 762v53h272v-53h-272z" />
    <glyph glyph-name="uni0232" unicode="&#x232;" horiz-adv-x="727" 
d="M225 0v16l90 40v252l-221 301l-63 35v16h258v-16l-73 -36v-4l177 -241l160 240v4l-74 37v16h216v-16l-65 -33l-211 -302v-253l90 -40v-16h-284zM248 762v53h272v-53h-272z" />
    <glyph glyph-name="uni0233" unicode="&#x233;" horiz-adv-x="479" 
d="M83 -241q-23 0 -28.5 6.5t-5.5 22.5v54l4 5h46q37 0 52 11.5t43 72.5l33 75l-187 399l-66 30v16h248v-16l-78 -30v-5l128 -276h4l105 271v5l-71 35v16h195v-16l-74 -33l-198 -481q-14 -35 -22.5 -54t-30.5 -50q-41 -58 -97 -58zM132 591v52h272v-52h-272z" />
    <glyph glyph-name="uni0237" unicode="&#x237;" horiz-adv-x="318" 
d="M207 6q0 -80 -33 -136.5t-124 -99.5v17q35 32 49 72.5t14 119.5v368l-61 51v8l147 55h8v-455z" />
    <glyph glyph-name="uni0259" unicode="&#x259;" horiz-adv-x="487" 
d="M219 -10q-79 0 -125 55t-46 157l5 5h294q-2 67 -38.5 119.5t-128.5 52.5q-57 0 -130 -40h-3v14q24 45 71 77t109 32q98 0 155.5 -59t57.5 -157q0 -112 -66 -184t-155 -72zM236 34q94 0 109 127h-213q11 -68 37 -97.5t67 -29.5z" />
    <glyph glyph-name="uni02B9" unicode="&#x2b9;" horiz-adv-x="250" 
d="M79 490v250h92l-71 -250h-21z" />
    <glyph glyph-name="uni02BA" unicode="&#x2ba;" horiz-adv-x="450" 
d="M88 490v250h92l-71 -250h-21zM270 490v250h92l-71 -250h-21z" />
    <glyph glyph-name="uni02BB" unicode="&#x2bb;" horiz-adv-x="248" 
d="M151 480q-10 0 -27 7q-74 44 -74 115q0 42 36.5 87t110.5 61v-22q-35 -9 -60.5 -30t-25.5 -50q0 -18 9.5 -34t40.5 -33l35 -18l1 -12l-22 -49q-8 -22 -24 -22z" />
    <glyph glyph-name="uni02BC" unicode="&#x2bc;" horiz-adv-x="248" 
d="M52 480v22q34 10 60 31t26 50q0 18 -9.5 34.5t-40.5 32.5l-36 18l-1 12l22 49q8 21 24 21q13 0 27 -7q75 -43 75 -114q0 -37 -35.5 -84.5t-111.5 -64.5z" />
    <glyph glyph-name="uni02BE" unicode="&#x2be;" 
d="M250 535q-38 0 -62.5 23.5t-24.5 59.5q0 35 24.5 59t62.5 24v-24q-35 0 -35 -53q0 -65 35 -65v-24z" />
    <glyph glyph-name="uni02BF" unicode="&#x2bf;" 
d="M250 535v24q37 0 37 53q0 65 -37 65v24q39 0 63 -24t24 -59q0 -36 -24 -59.5t-63 -23.5z" />
    <glyph glyph-name="circumflex" unicode="&#x2c6;" 
d="M100 530l133 177h34l133 -177h-14l-136 92l-136 -92h-14z" />
    <glyph glyph-name="caron" unicode="&#x2c7;" 
d="M233 530l-133 177h14l136 -92l136 92h14l-133 -177h-34z" />
    <glyph glyph-name="uni02C8" unicode="&#x2c8;" 
d="M231 535v166h38v-166h-38z" />
    <glyph glyph-name="uni02C9" unicode="&#x2c9;" 
d="M114 591v52h272v-52h-272z" />
    <glyph glyph-name="uni02CA" unicode="&#x2ca;" 
d="M162 530l86 177h89q0 -16 -7 -31t-28 -33l-126 -113h-14z" />
    <glyph glyph-name="uni02CB" unicode="&#x2cb;" 
d="M323 530l-126 113q-21 18 -28 33t-7 31h89l86 -177h-14z" />
    <glyph glyph-name="uni02CC" unicode="&#x2cc;" 
d="M231 -233v166h38v-166h-38z" />
    <glyph glyph-name="breve" unicode="&#x2d8;" 
d="M250 540q-66 0 -98 41.5t-51 125.5h13q31 -66 61.5 -81.5t74.5 -15.5t74 15.5t62 81.5h13q-19 -84 -52 -125.5t-97 -41.5z" />
    <glyph glyph-name="dotaccent" unicode="&#x2d9;" 
d="M250 577q-26 0 -44.5 18.5t-18.5 44.5t18.5 44.5t44.5 18.5t44.5 -18.5t18.5 -44.5t-18.5 -44.5t-44.5 -18.5z" />
    <glyph glyph-name="ring" unicode="&#x2da;" 
d="M250 701q39 0 63 -24t24 -59q0 -36 -24 -59.5t-63 -23.5q-38 0 -62.5 23.5t-24.5 59.5q0 35 24.5 59t62.5 24zM246 677q-31 0 -31 -52q0 -66 40 -66q32 0 32 52q0 66 -41 66z" />
    <glyph glyph-name="ogonek" unicode="&#x2db;" 
d="M257 -240q-44 0 -72 24t-28 65t29.5 81t76.5 91h23q-59 -84 -59 -150q0 -64 63 -64q11 0 24 2.5t26 10.5h3v-14q-29 -46 -86 -46z" />
    <glyph glyph-name="tilde" unicode="&#x2dc;" 
d="M95 555q27 83 48 104.5t50 21.5q40 0 71.5 -32t63.5 -32q20 0 33 13t29 51h15q-27 -83 -48 -104.5t-50 -21.5q-40 0 -71.5 32t-63.5 32q-20 0 -33 -13t-29 -51h-15z" />
    <glyph glyph-name="hungarumlaut" unicode="&#x2dd;" 
d="M125 530l47 177h67q11 -32 -12 -63l-89 -114h-13zM244 530l59 177h67q5 -15 4.5 -30.5t-16.5 -32.5l-100 -114h-14z" />
    <glyph glyph-name="gravecomb" unicode="&#x300;" horiz-adv-x="0" 
d="M73 530l-126 113q-21 18 -28 33t-7 31h89l86 -177h-14z" />
    <glyph glyph-name="acutecomb" unicode="&#x301;" horiz-adv-x="0" 
d="M-88 530l86 177h89q0 -16 -7 -31t-28 -33l-126 -113h-14z" />
    <glyph glyph-name="uni0302" unicode="&#x302;" horiz-adv-x="0" 
d="M-150 530l133 177h34l133 -177h-14l-136 92l-136 -92h-14z" />
    <glyph glyph-name="tildecomb" unicode="&#x303;" horiz-adv-x="0" 
d="M-155 555q27 83 48 104.5t50 21.5q40 0 71.5 -32t63.5 -32q20 0 33 13t29 51h15q-27 -83 -48 -104.5t-50 -21.5q-40 0 -71.5 32t-63.5 32q-20 0 -33 -13t-29 -51h-15z" />
    <glyph glyph-name="uni0304" unicode="&#x304;" horiz-adv-x="0" 
d="M-136 591v52h272v-52h-272z" />
    <glyph glyph-name="uni0306" unicode="&#x306;" horiz-adv-x="0" 
d="M0 540q-66 0 -98 41.5t-51 125.5h13q31 -66 61.5 -81.5t74.5 -15.5t74 15.5t62 81.5h13q-19 -84 -52 -125.5t-97 -41.5z" />
    <glyph glyph-name="uni0307" unicode="&#x307;" horiz-adv-x="0" 
d="M0 577q-26 0 -44.5 18.5t-18.5 44.5t18.5 44.5t44.5 18.5t44.5 -18.5t18.5 -44.5t-18.5 -44.5t-44.5 -18.5z" />
    <glyph glyph-name="uni0308" unicode="&#x308;" horiz-adv-x="0" 
d="M-94 566q-22 0 -36.5 14.5t-14.5 36.5t14.5 36.5t36.5 14.5q51 0 51 -51t-51 -51zM94 566q-22 0 -37 14.5t-15 36.5t15 36.5t37 14.5t36.5 -14.5t14.5 -36.5t-14.5 -36.5t-36.5 -14.5z" />
    <glyph glyph-name="hookabovecomb" unicode="&#x309;" horiz-adv-x="0" 
d="M-58 542v1q32 11 49.5 23t17.5 35q0 17 -16.5 28t-59.5 19l11 59q68 -6 95 -30.5t27 -50.5q0 -77 -117 -92z" />
    <glyph glyph-name="uni030A" unicode="&#x30a;" horiz-adv-x="0" 
d="M0 701q39 0 63 -24t24 -59q0 -36 -24 -59.5t-63 -23.5q-38 0 -62.5 23.5t-24.5 59.5q0 35 24.5 59t62.5 24zM-4 677q-31 0 -31 -52q0 -66 40 -66q32 0 32 52q0 66 -41 66z" />
    <glyph glyph-name="uni030B" unicode="&#x30b;" horiz-adv-x="0" 
d="M-125 530l47 177h67q11 -32 -12 -63l-89 -114h-13zM-6 530l59 177h67q5 -15 4.5 -30.5t-16.5 -32.5l-100 -114h-14z" />
    <glyph glyph-name="uni030C" unicode="&#x30c;" horiz-adv-x="0" 
d="M-17 530l-133 177h14l136 -92l136 92h14l-133 -177h-34z" />
    <glyph glyph-name="uni030F" unicode="&#x30f;" horiz-adv-x="0" 
d="M-6 530l-105 114q-15 16 -16 32t4 31h67l64 -177h-14zM114 530l-94 114q-14 18 -15.5 33t3.5 30h67l52 -177h-13z" />
    <glyph glyph-name="uni0311" unicode="&#x311;" horiz-adv-x="0" 
d="M-149 543q19 84 52 125.5t97 41.5q66 0 98 -41.5t51 -125.5h-13q-31 66 -61.5 81.5t-74.5 15.5t-74 -15.5t-62 -81.5h-13z" />
    <glyph glyph-name="uni0312" unicode="&#x312;" horiz-adv-x="0" 
d="M31 540q-103 0 -103 79q0 40 31 61.5t79 21.5q21 0 32 -4v-15q-12 3 -25 3q-56 0 -56 -38q0 -25 20 -33t62 -8v-46q0 -21 -40 -21z" />
    <glyph glyph-name="uni031B" unicode="&#x31b;" horiz-adv-x="0" 
d="M102 512q0 -44 -29.5 -71.5t-75.5 -27.5q-25 0 -48 5t-51 19l5 13q23 -10 41 -13.5t32 -3.5q53 0 53 54v50l6 6h40q16 0 21.5 -5.5t5.5 -25.5z" />
    <glyph glyph-name="dotbelowcomb" unicode="&#x323;" horiz-adv-x="0" 
d="M0 -215q-26 0 -44.5 18.5t-18.5 44.5t18.5 44.5t44.5 18.5t44.5 -18.5t18.5 -44.5t-18.5 -44.5t-44.5 -18.5z" />
    <glyph glyph-name="uni0324" unicode="&#x324;" horiz-adv-x="0" 
d="M-94 -203q-22 0 -36.5 14.5t-14.5 36.5t14.5 36.5t36.5 14.5t37 -14.5t15 -36.5t-15 -36.5t-37 -14.5zM94 -203q-22 0 -37 14.5t-15 36.5t15 36.5t37 14.5t36.5 -14.5t14.5 -36.5t-14.5 -36.5t-36.5 -14.5z" />
    <glyph glyph-name="uni0326" unicode="&#x326;" horiz-adv-x="0" 
d="M-38 -239q-20 0 -33 3v16q12 -3 26 -3q56 0 56 38q0 41 -83 41v46q0 21 41 21q103 0 103 -79q0 -40 -31 -61.5t-79 -21.5z" />
    <glyph glyph-name="uni0327" unicode="&#x327;" horiz-adv-x="0" 
d="M-8 -240q-55 0 -83 29v13h3q27 -12 62 -12q54 0 54 39q0 22 -20.5 36t-79.5 32l57 124h36l-34 -73q58 -18 81 -40t23 -61q0 -37 -26 -62t-73 -25z" />
    <glyph glyph-name="uni0328" unicode="&#x328;" horiz-adv-x="0" 
d="M7 -240q-44 0 -72 24t-28 65t29.5 81t76.5 91h23q-59 -84 -59 -150q0 -64 63 -64q11 0 24 2.5t26 10.5h3v-14q-29 -46 -86 -46z" />
    <glyph glyph-name="uni032E" unicode="&#x32e;" horiz-adv-x="0" 
d="M0 -240q-66 0 -98 41.5t-51 125.5h13q31 -66 61.5 -81.5t74.5 -15.5t74 15.5t62 81.5h13q-19 -84 -52 -125.5t-97 -41.5z" />
    <glyph glyph-name="uni0331" unicode="&#x331;" horiz-adv-x="0" 
d="M-136 -178v53h272v-53h-272z" />
    <glyph glyph-name="uni0394" unicode="&#x394;" horiz-adv-x="657" 
d="M37 0v30l266 635h55l262 -635v-30h-583zM128 84h360l-180 445z" />
    <glyph glyph-name="uni03BC" unicode="&#x3bc;" horiz-adv-x="561" 
d="M244 -10q-26 0 -49.5 7.5t-44.5 27.5l25 -235l-88 -20h-2v681h94v-297q0 -42 26.5 -64t66.5 -22q25 0 54.5 8.5t48.5 25.5v349h94v-382q15 -17 54 -17h36l3 -2v-6q-12 -21 -36.5 -37.5t-59.5 -16.5q-71 0 -87 73h-8q-61 -73 -127 -73z" />
    <glyph glyph-name="pi" unicode="&#x3c0;" horiz-adv-x="591" 
d="M127 4q9 38 16 74t11.5 87t4.5 135v87q-77 -3 -113 -32h-3v48q22 18 53.5 33t81.5 15h353v-64h-76v-245q0 -42 10 -58.5t29 -16.5q32 0 57 61l14 -4q-35 -134 -111 -134q-90 0 -90 113v284h-154v-387h-83v4z" />
    <glyph glyph-name="uni1E08" unicode="&#x1e08;" horiz-adv-x="722" 
d="M383 710l86 152h89q0 -16 -6 -32.5t-29 -31.5l-126 -88h-14zM399 -240q-55 0 -83 29v13h4q26 -12 61 -12q54 0 54 39q0 22 -20.5 36t-79.5 32l43 94q-145 7 -229 97.5t-84 224.5q0 95 48.5 176.5t128 131t173.5 49.5q76 0 119 -14t85 -34l6 -178h-18l-69 130
q-34 24 -61.5 35t-61.5 11q-104 0 -173 -79t-69 -203q0 -140 66.5 -218t161.5 -78q52 0 87.5 14t63.5 33l67 112h17l-12 -161q-42 -22 -89 -35.5t-121 -14.5l-20 -42q58 -18 81 -40t23 -61q0 -37 -26 -62t-73 -25z" />
    <glyph glyph-name="uni1E09" unicode="&#x1e09;" horiz-adv-x="480" 
d="M263 530l86 177h89q0 -16 -7 -31t-28 -33l-126 -113h-14zM261 -240q-56 0 -82 29v13h3q27 -12 62 -12q54 0 54 39q0 22 -21 36t-80 32l44 94q-90 5 -142 63t-52 152q0 112 67 183.5t168 71.5q42 0 80 -13.5t58 -35.5q15 -18 15 -30q0 -13 -12 -24l-41 -33h-7l-33 45
q-16 22 -37 34.5t-53 12.5q-53 0 -83 -44t-30 -121q0 -70 36.5 -124.5t130.5 -54.5q58 0 128 38h3v-12q-21 -42 -63 -72.5t-98 -35.5l-19 -43q57 -18 80 -40t23 -61q0 -37 -25.5 -62t-73.5 -25z" />
    <glyph glyph-name="uni1E0C" unicode="&#x1e0c;" horiz-adv-x="781" 
d="M60 0v16l81 40v548l-81 40v16h304q169 0 261 -85.5t92 -214.5q0 -104 -47 -185.5t-128.5 -128t-184.5 -46.5h-297zM337 605h-91v-550h106q119 0 187.5 74.5t68.5 199.5t-70 200.5t-201 75.5zM392 -215q-26 0 -44.5 18.5t-18.5 44.5t18.5 44.5t44.5 18.5t44.5 -18.5
t18.5 -44.5t-18.5 -44.5t-44.5 -18.5z" />
    <glyph glyph-name="uni1E0D" unicode="&#x1e0d;" horiz-adv-x="578" 
d="M214 -10q-74 0 -123.5 55t-49.5 149q0 128 70.5 197.5t169.5 69.5q50 0 86 -9v184l-66 51v8l153 55h7v-705l71 -29v-16h-155l-9 51h-6q-72 -61 -148 -61zM136 219q0 -82 41 -119.5t98 -37.5q48 0 92 28v282q-45 40 -93 40q-56 0 -97 -43t-41 -150zM278 -215
q-26 0 -44.5 18.5t-18.5 44.5t18.5 44.5t44.5 18.5t44.5 -18.5t18.5 -44.5t-18.5 -44.5t-44.5 -18.5z" />
    <glyph glyph-name="uni1E0E" unicode="&#x1e0e;" horiz-adv-x="781" 
d="M60 0v16l81 40v548l-81 40v16h304q169 0 261 -85.5t92 -214.5q0 -104 -47 -185.5t-128.5 -128t-184.5 -46.5h-297zM337 605h-91v-550h106q119 0 187.5 74.5t68.5 199.5t-70 200.5t-201 75.5zM256 -178v53h272v-53h-272z" />
    <glyph glyph-name="uni1E0F" unicode="&#x1e0f;" horiz-adv-x="578" 
d="M214 -10q-74 0 -123.5 55t-49.5 149q0 128 70.5 197.5t169.5 69.5q50 0 86 -9v184l-66 51v8l153 55h7v-705l71 -29v-16h-155l-9 51h-6q-72 -61 -148 -61zM136 219q0 -82 41 -119.5t98 -37.5q48 0 92 28v282q-45 40 -93 40q-56 0 -97 -43t-41 -150zM142 -178v53h272v-53
h-272z" />
    <glyph glyph-name="uni1E14" unicode="&#x1e14;" horiz-adv-x="659" 
d="M60 0v16l81 40v548l-81 40v16h502v-172h-16l-65 117h-235v-237h166l51 84h16v-221h-16l-51 82h-166v-258h262l66 132h16v-187h-530zM203 762v53h272v-53h-272zM332 862l-126 88q-23 16 -29 32t-6 32h89l86 -152h-14z" />
    <glyph glyph-name="uni1E15" unicode="&#x1e15;" horiz-adv-x="487" 
d="M259 -10q-98 0 -155 59t-57 157q0 112 66.5 183.5t154.5 71.5q80 0 125 -54.5t46 -156.5l-5 -5h-295q1 -69 38.5 -120.5t130.5 -51.5q57 0 129 38h3v-12q-24 -46 -71 -77.5t-110 -31.5zM250 417q-93 0 -109 -126h213q-10 68 -36 97t-68 29zM125 591v52h272v-52h-272z
M254 710l-126 88q-23 16 -29 32t-6 32h89l86 -152h-14z" />
    <glyph glyph-name="uni1E16" unicode="&#x1e16;" horiz-adv-x="659" 
d="M60 0v16l81 40v548l-81 40v16h502v-172h-16l-65 117h-235v-237h166l51 84h16v-221h-16l-51 82h-166v-258h262l66 132h16v-187h-530zM203 762v53h272v-53h-272zM331 862l86 152h89q0 -16 -6.5 -32.5t-28.5 -31.5l-126 -88h-14z" />
    <glyph glyph-name="uni1E17" unicode="&#x1e17;" horiz-adv-x="487" 
d="M259 -10q-98 0 -155 59t-57 157q0 112 66.5 183.5t154.5 71.5q80 0 125 -54.5t46 -156.5l-5 -5h-295q1 -69 38.5 -120.5t130.5 -51.5q57 0 129 38h3v-12q-24 -46 -71 -77.5t-110 -31.5zM250 417q-93 0 -109 -126h213q-10 68 -36 97t-68 29zM125 591v52h272v-52h-272z
M253 710l86 152h89q0 -16 -6.5 -32.5t-28.5 -31.5l-126 -88h-14z" />
    <glyph glyph-name="uni1E1C" unicode="&#x1e1c;" horiz-adv-x="659" 
d="M339 710q-66 0 -99 41t-50 111h14q26 -52 55.5 -67t79.5 -15q51 0 80 15t56 67h14q-18 -70 -51.5 -111t-98.5 -41zM60 0v16l81 40v548l-81 40v16h502v-172h-16l-65 117h-235v-237h166l51 84h16v-221h-16l-51 82h-166v-258h262l66 132h16v-187h-219l-24 -52q58 -18 81 -40
t23 -61q0 -37 -26 -62t-73 -25q-55 0 -83 29v13h3q27 -12 62 -12q54 0 54 39q0 22 -20.5 36t-79.5 32l47 103h-275z" />
    <glyph glyph-name="uni1E1D" unicode="&#x1e1d;" horiz-adv-x="487" 
d="M261 540q-66 0 -98 41.5t-51 125.5h14q30 -66 60.5 -81.5t74.5 -15.5q45 0 75 15.5t61 81.5h14q-19 -84 -52 -125.5t-98 -41.5zM266 -240q-55 0 -83 29v13h3q27 -12 62 -12q54 0 54 39q0 22 -20.5 36t-79.5 32l43 93q-92 5 -145 63t-53 153q0 112 66.5 183.5t154.5 71.5
q80 0 125 -54.5t46 -156.5l-5 -5h-295q1 -69 38.5 -120.5t130.5 -51.5q57 0 129 38h3v-12q-22 -42 -63 -72t-96 -36l-20 -43q58 -18 81 -40t23 -61q0 -37 -26 -62t-73 -25zM250 417q-93 0 -109 -126h213q-10 68 -36 97t-68 29z" />
    <glyph glyph-name="uni1E20" unicode="&#x1e20;" horiz-adv-x="765" 
d="M401 -10q-144 0 -240 92t-96 231q0 103 49 183.5t131.5 127t180.5 46.5q80 0 125.5 -13.5t88.5 -34.5l6 -168h-16l-72 120q-70 46 -132 46q-111 0 -183.5 -75t-72.5 -190q0 -145 75.5 -226.5t184.5 -81.5q29 0 57.5 3.5t57.5 13.5v171l-89 41v16h264v-16l-70 -44v-158
q-46 -38 -115 -61t-134 -23zM265 762v53h272v-53h-272z" />
    <glyph glyph-name="uni1E21" unicode="&#x1e21;" horiz-adv-x="545" 
d="M258 144q-45 0 -83 16q-33 -14 -33 -46q0 -50 72 -50h118q145 0 145 -129q0 -65 -65 -120t-176 -55q-95 0 -137 33.5t-42 82.5q0 36 18 64l68 44v5q-78 17 -78 86q0 39 27 66l54 29v6q-69 46 -69 127q0 67 51.5 112.5t129.5 45.5q50 0 92 -19l150 9v-55l-95 6l-4 -4
q38 -40 38 -95q0 -68 -52 -113.5t-129 -45.5zM267 186q38 0 59.5 33t21.5 81q0 56 -28 88.5t-68 32.5q-41 0 -62.5 -33.5t-21.5 -81.5q0 -54 27.5 -87t71.5 -33zM131 -111q0 -43 33 -71t84 -28q65 0 105.5 36t40.5 82q0 43 -23 59.5t-81 16.5h-102h-10q-47 -28 -47 -95z
M126 591v52h272v-52h-272z" />
    <glyph glyph-name="uni1E24" unicode="&#x1e24;" horiz-adv-x="816" 
d="M60 0v16l81 40v548l-81 40v16h265v-16l-79 -40v-236h325v236l-80 40v16h265v-16l-81 -40v-548l81 -40v-16h-265v16l80 40v257h-325v-257l79 -40v-16h-265zM408 -215q-26 0 -44.5 18.5t-18.5 44.5t18.5 44.5t44.5 18.5t44.5 -18.5t18.5 -44.5t-18.5 -44.5t-44.5 -18.5z
" />
    <glyph glyph-name="uni1E25" unicode="&#x1e25;" horiz-adv-x="590" 
d="M44 0v16l64 32v588l-61 51v8l148 55h7v-363h4q38 37 73 55.5t79 18.5q58 0 96.5 -29.5t38.5 -88.5v-295l63 -32v-16h-224v16l66 29v252q0 43 -26 64.5t-67 21.5q-25 0 -55 -8t-48 -25v-305l66 -29v-16h-224zM300 -215q-26 0 -44.5 18.5t-18.5 44.5t18.5 44.5t44.5 18.5
t44.5 -18.5t18.5 -44.5t-18.5 -44.5t-44.5 -18.5z" />
    <glyph glyph-name="uni1E2A" unicode="&#x1e2a;" horiz-adv-x="816" 
d="M60 0v16l81 40v548l-81 40v16h265v-16l-79 -40v-236h325v236l-80 40v16h265v-16l-81 -40v-548l81 -40v-16h-265v16l80 40v257h-325v-257l79 -40v-16h-265zM408 -240q-66 0 -98 41.5t-51 125.5h13q31 -66 61.5 -81.5t74.5 -15.5t74 15.5t62 81.5h13q-19 -84 -52 -125.5
t-97 -41.5z" />
    <glyph glyph-name="uni1E2B" unicode="&#x1e2b;" horiz-adv-x="590" 
d="M44 0v16l64 32v588l-61 51v8l148 55h7v-363h4q38 37 73 55.5t79 18.5q58 0 96.5 -29.5t38.5 -88.5v-295l63 -32v-16h-224v16l66 29v252q0 43 -26 64.5t-67 21.5q-25 0 -55 -8t-48 -25v-305l66 -29v-16h-224zM300 -240q-66 0 -98 41.5t-51 125.5h13q31 -66 61.5 -81.5
t74.5 -15.5t74 15.5t62 81.5h13q-19 -84 -52 -125.5t-97 -41.5z" />
    <glyph glyph-name="uni1E2E" unicode="&#x1e2e;" horiz-adv-x="395" 
d="M64 0v16l82 40v548l-82 40v16h267v-16l-81 -40v-548l81 -40v-16h-267zM104 735q-22 0 -36.5 14.5t-14.5 36.5t14.5 36.5t36.5 14.5q51 0 51 -51t-51 -51zM292 735q-22 0 -37 14.5t-15 36.5t15 36.5t37 14.5t36.5 -14.5t14.5 -36.5t-14.5 -36.5t-36.5 -14.5zM190 879
l86 152h89q0 -16 -6.5 -32.5t-28.5 -31.5l-126 -88h-14z" />
    <glyph glyph-name="uni1E2F" unicode="&#x1e2f;" horiz-adv-x="318" 
d="M49 0v16l64 32v299l-61 51v8l148 55h7v-413l62 -32v-16h-220zM65 566q-22 0 -36.5 14.5t-14.5 36.5t14.5 36.5t36.5 14.5q51 0 51 -51t-51 -51zM253 566q-22 0 -37 14.5t-15 36.5t15 36.5t37 14.5t36.5 -14.5t14.5 -36.5t-14.5 -36.5t-36.5 -14.5zM151 710l86 152h89
q0 -16 -6.5 -32.5t-28.5 -31.5l-126 -88h-14z" />
    <glyph glyph-name="uni1E36" unicode="&#x1e36;" horiz-adv-x="636" 
d="M60 0v16l81 40v548l-81 40v16h277v-16l-91 -40v-549h237l71 172h16v-227h-510zM355 -215q-26 0 -44.5 18.5t-18.5 44.5t18.5 44.5t44.5 18.5t44.5 -18.5t18.5 -44.5t-18.5 -44.5t-44.5 -18.5z" />
    <glyph glyph-name="uni1E37" unicode="&#x1e37;" horiz-adv-x="301" 
d="M41 0v16l63 32v588l-60 51v8l147 55h8v-702l62 -32v-16h-220zM152 -215q-26 0 -44.5 18.5t-18.5 44.5t18.5 44.5t44.5 18.5t44.5 -18.5t18.5 -44.5t-18.5 -44.5t-44.5 -18.5z" />
    <glyph glyph-name="uni1E3A" unicode="&#x1e3a;" horiz-adv-x="636" 
d="M60 0v16l81 40v548l-81 40v16h277v-16l-91 -40v-549h237l71 172h16v-227h-510zM219 -178v53h272v-53h-272z" />
    <glyph glyph-name="uni1E3B" unicode="&#x1e3b;" horiz-adv-x="301" 
d="M41 0v16l63 32v588l-60 51v8l147 55h8v-702l62 -32v-16h-220zM16 -178v53h272v-53h-272z" />
    <glyph glyph-name="uni1E42" unicode="&#x1e42;" horiz-adv-x="968" 
d="M56 0v16l80 40l21 548l-86 40v16h199l224 -517l223 517h191v-16l-85 -37l17 -551l72 -40v-16h-247v16l75 39l-10 489l-236 -549h-48l-234 543l-13 -483l83 -39v-16h-226zM470 -215q-26 0 -44.5 18.5t-18.5 44.5t18.5 44.5t44.5 18.5t44.5 -18.5t18.5 -44.5t-18.5 -44.5
t-44.5 -18.5z" />
    <glyph glyph-name="uni1E43" unicode="&#x1e43;" horiz-adv-x="870" 
d="M44 0v16l64 32v299l-61 50v8l138 56h7l9 -74h5q37 37 71 55.5t76 18.5q48 0 82 -21.5t44 -63.5h4q41 43 77 64t81 21q58 0 94.5 -29.5t36.5 -88.5v-295l64 -32v-16h-225v16l67 32v249q0 43 -25 64.5t-64 21.5q-68 0 -106 -41v-294l65 -32v-16h-222v16l63 32v249
q0 43 -24.5 64.5t-63.5 21.5q-24 0 -52.5 -8t-46.5 -25v-302l61 -32v-16h-219zM429 -215q-26 0 -44.5 18.5t-18.5 44.5t18.5 44.5t44.5 18.5t44.5 -18.5t18.5 -44.5t-18.5 -44.5t-44.5 -18.5z" />
    <glyph glyph-name="uni1E44" unicode="&#x1e44;" horiz-adv-x="803" 
d="M56 0v16l81 40v546l-80 42v16h157l383 -471v416l-103 39v16h253v-16l-80 -39v-610h-43l-417 512v-452l103 -39v-16h-254zM411 725q-26 0 -44.5 18.5t-18.5 44.5t18.5 44.5t44.5 18.5t44.5 -18.5t18.5 -44.5t-18.5 -44.5t-44.5 -18.5z" />
    <glyph glyph-name="uni1E45" unicode="&#x1e45;" horiz-adv-x="590" 
d="M44 0v16l64 32v299l-61 50v8l138 56h7l9 -74h5q38 37 73 55.5t79 18.5q58 0 96.5 -29.5t38.5 -88.5v-295l63 -32v-16h-224v16l66 32v249q0 43 -26 64.5t-67 21.5q-25 0 -55 -8t-48 -25v-302l66 -32v-16h-224zM300 577q-26 0 -44.5 18.5t-18.5 44.5t18.5 44.5t44.5 18.5
t44.5 -18.5t18.5 -44.5t-18.5 -44.5t-44.5 -18.5z" />
    <glyph glyph-name="uni1E46" unicode="&#x1e46;" horiz-adv-x="803" 
d="M56 0v16l81 40v546l-80 42v16h157l383 -471v416l-103 39v16h253v-16l-80 -39v-610h-43l-417 512v-452l103 -39v-16h-254zM419 -215q-26 0 -44.5 18.5t-18.5 44.5t18.5 44.5t44.5 18.5t44.5 -18.5t18.5 -44.5t-18.5 -44.5t-44.5 -18.5z" />
    <glyph glyph-name="uni1E47" unicode="&#x1e47;" horiz-adv-x="590" 
d="M44 0v16l64 32v299l-61 50v8l138 56h7l9 -74h5q38 37 73 55.5t79 18.5q58 0 96.5 -29.5t38.5 -88.5v-295l63 -32v-16h-224v16l66 32v249q0 43 -26 64.5t-67 21.5q-25 0 -55 -8t-48 -25v-302l66 -32v-16h-224zM300 -215q-26 0 -44.5 18.5t-18.5 44.5t18.5 44.5t44.5 18.5
t44.5 -18.5t18.5 -44.5t-18.5 -44.5t-44.5 -18.5z" />
    <glyph glyph-name="uni1E48" unicode="&#x1e48;" horiz-adv-x="803" 
d="M56 0v16l81 40v546l-80 42v16h157l383 -471v416l-103 39v16h253v-16l-80 -39v-610h-43l-417 512v-452l103 -39v-16h-254zM283 -178v53h272v-53h-272z" />
    <glyph glyph-name="uni1E49" unicode="&#x1e49;" horiz-adv-x="590" 
d="M44 0v16l64 32v299l-61 50v8l138 56h7l9 -74h5q38 37 73 55.5t79 18.5q58 0 96.5 -29.5t38.5 -88.5v-295l63 -32v-16h-224v16l66 32v249q0 43 -26 64.5t-67 21.5q-25 0 -55 -8t-48 -25v-302l66 -32v-16h-224zM164 -178v53h272v-53h-272z" />
    <glyph glyph-name="uni1E4C" unicode="&#x1e4c;" horiz-adv-x="803" 
d="M401 -10q-145 0 -240.5 96.5t-95.5 243.5t95.5 243.5t240.5 96.5t241 -96.5t96 -243.5t-96 -243.5t-241 -96.5zM421 40q91 0 148 70t57 189q0 146 -70 234t-171 88q-91 0 -149.5 -69.5t-58.5 -188.5q0 -146 71 -234.5t173 -88.5zM236 725q25 75 46.5 96t50.5 21
q40 0 71.5 -26t65.5 -26q19 0 33.5 10t27.5 42h15q-24 -75 -46 -96t-51 -21q-40 0 -71.5 26t-65.5 26q-19 0 -33 -10t-28 -42h-15zM383 862l86 152h89q0 -16 -6.5 -32.5t-28.5 -31.5l-126 -88h-14z" />
    <glyph glyph-name="uni1E4D" unicode="&#x1e4d;" horiz-adv-x="542" 
d="M271 -10q-101 0 -163 68t-62 168t62 167.5t163 67.5q100 0 162 -67.5t62 -167.5t-62 -168t-162 -68zM284 34q57 0 82.5 53.5t25.5 118.5q0 80 -31 146t-101 66q-58 0 -84.5 -52.5t-26.5 -118.5q0 -80 32 -146.5t103 -66.5zM113 555q27 83 48 104.5t50 21.5q40 0 71.5 -32
t63.5 -32q20 0 33 13t29 51h15q-27 -83 -48 -104.5t-50 -21.5q-40 0 -71.5 32t-63.5 32q-20 0 -33 -13t-29 -51h-15zM260 710l86 152h89q0 -16 -6.5 -32.5t-28.5 -31.5l-126 -88h-14z" />
    <glyph glyph-name="uni1E4E" unicode="&#x1e4e;" horiz-adv-x="803" 
d="M401 -10q-145 0 -240.5 96.5t-95.5 243.5t95.5 243.5t240.5 96.5t241 -96.5t96 -243.5t-96 -243.5t-241 -96.5zM421 40q91 0 148 70t57 189q0 146 -70 234t-171 88q-91 0 -149.5 -69.5t-58.5 -188.5q0 -146 71 -234.5t173 -88.5zM236 725q25 75 46.5 96t50.5 21
q40 0 71.5 -26t65.5 -26q19 0 33.5 10t27.5 42h15q-24 -75 -46 -96t-51 -21q-40 0 -71.5 26t-65.5 26q-19 0 -33 -10t-28 -42h-15zM297 900q-22 0 -36.5 14.5t-14.5 36.5t14.5 36.5t36.5 14.5q51 0 51 -51t-51 -51zM485 900q-22 0 -37 14.5t-15 36.5t15 36.5t37 14.5
t36.5 -14.5t14.5 -36.5t-14.5 -36.5t-36.5 -14.5z" />
    <glyph glyph-name="uni1E4F" unicode="&#x1e4f;" horiz-adv-x="542" 
d="M271 -10q-101 0 -163 68t-62 168t62 167.5t163 67.5q100 0 162 -67.5t62 -167.5t-62 -168t-162 -68zM284 34q57 0 82.5 53.5t25.5 118.5q0 80 -31 146t-101 66q-58 0 -84.5 -52.5t-26.5 -118.5q0 -80 32 -146.5t103 -66.5zM113 555q27 83 48 104.5t50 21.5q40 0 71.5 -32
t63.5 -32q20 0 33 13t29 51h15q-27 -83 -48 -104.5t-50 -21.5q-40 0 -71.5 32t-63.5 32q-20 0 -33 -13t-29 -51h-15zM174 735q-22 0 -36.5 14.5t-14.5 36.5t14.5 36.5t36.5 14.5q51 0 51 -51t-51 -51zM362 735q-22 0 -37 14.5t-15 36.5t15 36.5t37 14.5t36.5 -14.5
t14.5 -36.5t-14.5 -36.5t-36.5 -14.5z" />
    <glyph glyph-name="uni1E50" unicode="&#x1e50;" horiz-adv-x="803" 
d="M401 -10q-145 0 -240.5 96.5t-95.5 243.5t95.5 243.5t240.5 96.5t241 -96.5t96 -243.5t-96 -243.5t-241 -96.5zM421 40q91 0 148 70t57 189q0 146 -70 234t-171 88q-91 0 -149.5 -69.5t-58.5 -188.5q0 -146 71 -234.5t173 -88.5zM255 762v53h272v-53h-272zM384 862
l-126 88q-23 16 -29 32t-6 32h89l86 -152h-14z" />
    <glyph glyph-name="uni1E51" unicode="&#x1e51;" horiz-adv-x="542" 
d="M271 -10q-101 0 -163 68t-62 168t62 167.5t163 67.5q100 0 162 -67.5t62 -167.5t-62 -168t-162 -68zM284 34q57 0 82.5 53.5t25.5 118.5q0 80 -31 146t-101 66q-58 0 -84.5 -52.5t-26.5 -118.5q0 -80 32 -146.5t103 -66.5zM132 591v52h272v-52h-272zM261 710l-126 88
q-23 16 -29 32t-6 32h89l86 -152h-14z" />
    <glyph glyph-name="uni1E52" unicode="&#x1e52;" horiz-adv-x="803" 
d="M401 -10q-145 0 -240.5 96.5t-95.5 243.5t95.5 243.5t240.5 96.5t241 -96.5t96 -243.5t-96 -243.5t-241 -96.5zM421 40q91 0 148 70t57 189q0 146 -70 234t-171 88q-91 0 -149.5 -69.5t-58.5 -188.5q0 -146 71 -234.5t173 -88.5zM255 762v53h272v-53h-272zM383 862
l86 152h89q0 -16 -6.5 -32.5t-28.5 -31.5l-126 -88h-14z" />
    <glyph glyph-name="uni1E53" unicode="&#x1e53;" horiz-adv-x="542" 
d="M271 -10q-101 0 -163 68t-62 168t62 167.5t163 67.5q100 0 162 -67.5t62 -167.5t-62 -168t-162 -68zM284 34q57 0 82.5 53.5t25.5 118.5q0 80 -31 146t-101 66q-58 0 -84.5 -52.5t-26.5 -118.5q0 -80 32 -146.5t103 -66.5zM132 591v52h272v-52h-272zM260 710l86 152h89
q0 -16 -6.5 -32.5t-28.5 -31.5l-126 -88h-14z" />
    <glyph glyph-name="uni1E5A" unicode="&#x1e5a;" horiz-adv-x="677" 
d="M60 0v16l81 40v548l-81 40v16h278q105 0 165.5 -43.5t60.5 -119.5q0 -56 -38 -99t-100 -66l189 -279l67 -37v-16h-161l-192 304h-83v-247l75 -41v-16h-261zM305 605h-59v-248h65q62 0 102.5 35.5t40.5 90.5q0 57 -39.5 89.5t-109.5 32.5zM376 -215q-26 0 -44.5 18.5
t-18.5 44.5t18.5 44.5t44.5 18.5t44.5 -18.5t18.5 -44.5t-18.5 -44.5t-44.5 -18.5z" />
    <glyph glyph-name="uni1E5B" unicode="&#x1e5b;" horiz-adv-x="404" 
d="M47 0v16l64 32v298l-61 51v8l138 56h8l9 -86h4q35 57 61 71.5t52 14.5q17 0 37 -8q30 -11 30 -28q0 -9 -4 -18l-21 -53h-7l-35 14q-19 7 -45 7q-43 0 -71 -41v-286l73 -32v-16h-232zM158 -215q-26 0 -44.5 18.5t-18.5 44.5t18.5 44.5t44.5 18.5t44.5 -18.5t18.5 -44.5
t-18.5 -44.5t-44.5 -18.5z" />
    <glyph glyph-name="uni1E5E" unicode="&#x1e5e;" horiz-adv-x="677" 
d="M60 0v16l81 40v548l-81 40v16h278q105 0 165.5 -43.5t60.5 -119.5q0 -56 -38 -99t-100 -66l189 -279l67 -37v-16h-161l-192 304h-83v-247l75 -41v-16h-261zM305 605h-59v-248h65q62 0 102.5 35.5t40.5 90.5q0 57 -39.5 89.5t-109.5 32.5zM240 -178v53h272v-53h-272z" />
    <glyph glyph-name="uni1E5F" unicode="&#x1e5f;" horiz-adv-x="404" 
d="M47 0v16l64 32v298l-61 51v8l138 56h8l9 -86h4q35 57 61 71.5t52 14.5q17 0 37 -8q30 -11 30 -28q0 -9 -4 -18l-21 -53h-7l-35 14q-19 7 -45 7q-43 0 -71 -41v-286l73 -32v-16h-232zM22 -178v53h272v-53h-272z" />
    <glyph glyph-name="uni1E60" unicode="&#x1e60;" horiz-adv-x="541" 
d="M266 -10q-63 0 -107.5 12t-91.5 35l-10 165h16l53 -109q67 -55 137 -55q58 0 91.5 30t33.5 82q0 62 -42 89t-121 66q-71 34 -109 71.5t-38 105.5q0 48 30 91t78 70t101 27q47 0 88 -11t81 -32l10 -160h-16l-52 107q-32 25 -58 36t-59 11q-43 0 -71.5 -29t-28.5 -73
q0 -49 30.5 -77t98.5 -60q91 -44 134 -83.5t43 -115.5q0 -63 -34.5 -106t-85.5 -65t-101 -22zM279 725q-26 0 -44.5 18.5t-18.5 44.5t18.5 44.5t44.5 18.5t44.5 -18.5t18.5 -44.5t-18.5 -44.5t-44.5 -18.5z" />
    <glyph glyph-name="uni1E61" unicode="&#x1e61;" horiz-adv-x="433" 
d="M212 -10q-48 0 -82.5 8.5t-69.5 26.5v112h15l32 -54q33 -55 102 -55q83 0 83 68q0 40 -29.5 57t-84.5 42q-52 23 -79.5 51t-27.5 77q0 58 46 98t103 40q36 0 68 -8.5t63 -24.5v-111h-14l-33 52q-33 52 -81 52q-73 0 -73 -62q0 -32 23 -49.5t74 -39.5q43 -20 82.5 -45
t39.5 -95q0 -68 -52 -104t-105 -36zM216 577q-26 0 -44.5 18.5t-18.5 44.5t18.5 44.5t44.5 18.5t44.5 -18.5t18.5 -44.5t-18.5 -44.5t-44.5 -18.5z" />
    <glyph glyph-name="uni1E62" unicode="&#x1e62;" horiz-adv-x="541" 
d="M266 -10q-63 0 -107.5 12t-91.5 35l-10 165h16l53 -109q67 -55 137 -55q58 0 91.5 30t33.5 82q0 62 -42 89t-121 66q-71 34 -109 71.5t-38 105.5q0 48 30 91t78 70t101 27q47 0 88 -11t81 -32l10 -160h-16l-52 107q-32 25 -58 36t-59 11q-43 0 -71.5 -29t-28.5 -73
q0 -49 30.5 -77t98.5 -60q91 -44 134 -83.5t43 -115.5q0 -63 -34.5 -106t-85.5 -65t-101 -22zM276 -215q-26 0 -44.5 18.5t-18.5 44.5t18.5 44.5t44.5 18.5t44.5 -18.5t18.5 -44.5t-18.5 -44.5t-44.5 -18.5z" />
    <glyph glyph-name="uni1E63" unicode="&#x1e63;" horiz-adv-x="433" 
d="M212 -10q-48 0 -82.5 8.5t-69.5 26.5v112h15l32 -54q33 -55 102 -55q83 0 83 68q0 40 -29.5 57t-84.5 42q-52 23 -79.5 51t-27.5 77q0 58 46 98t103 40q36 0 68 -8.5t63 -24.5v-111h-14l-33 52q-33 52 -81 52q-73 0 -73 -62q0 -32 23 -49.5t74 -39.5q43 -20 82.5 -45
t39.5 -95q0 -68 -52 -104t-105 -36zM216 -215q-26 0 -44.5 18.5t-18.5 44.5t18.5 44.5t44.5 18.5t44.5 -18.5t18.5 -44.5t-18.5 -44.5t-44.5 -18.5z" />
    <glyph glyph-name="uni1E64" unicode="&#x1e64;" horiz-adv-x="541" 
d="M266 -10q-63 0 -107.5 12t-91.5 35l-10 165h16l53 -109q67 -55 137 -55q58 0 91.5 30t33.5 82q0 62 -42 89t-121 66q-71 34 -109 71.5t-38 105.5q0 48 30 91t78 70t101 27q47 0 88 -11t81 -32l10 -160h-16l-52 107q-32 25 -58 36t-59 11q-43 0 -71.5 -29t-28.5 -73
q0 -49 30.5 -77t98.5 -60q91 -44 134 -83.5t43 -115.5q0 -63 -34.5 -106t-85.5 -65t-101 -22zM191 710l86 152h89q0 -16 -6.5 -32.5t-28.5 -31.5l-126 -88h-14zM279 897q-26 0 -44.5 18.5t-18.5 44.5t18.5 44.5t44.5 18.5t44.5 -18.5t18.5 -44.5t-18.5 -44.5t-44.5 -18.5z
" />
    <glyph glyph-name="uni1E65" unicode="&#x1e65;" horiz-adv-x="433" 
d="M212 -10q-48 0 -82.5 8.5t-69.5 26.5v112h15l32 -54q33 -55 102 -55q83 0 83 68q0 40 -29.5 57t-84.5 42q-52 23 -79.5 51t-27.5 77q0 58 46 98t103 40q36 0 68 -8.5t63 -24.5v-111h-14l-33 52q-33 52 -81 52q-73 0 -73 -62q0 -32 23 -49.5t74 -39.5q43 -20 82.5 -45
t39.5 -95q0 -68 -52 -104t-105 -36zM128 530l86 152h89q0 -16 -6.5 -32.5t-28.5 -31.5l-126 -88h-14zM216 726q-26 0 -44.5 18.5t-18.5 44.5t18.5 44.5t44.5 18.5t44.5 -18.5t18.5 -44.5t-18.5 -44.5t-44.5 -18.5z" />
    <glyph glyph-name="uni1E66" unicode="&#x1e66;" horiz-adv-x="541" 
d="M266 -10q-63 0 -107.5 12t-91.5 35l-10 165h16l53 -109q67 -55 137 -55q58 0 91.5 30t33.5 82q0 62 -42 89t-121 66q-71 34 -109 71.5t-38 105.5q0 48 30 91t78 70t101 27q47 0 88 -11t81 -32l10 -160h-16l-52 107q-32 25 -58 36t-59 11q-43 0 -71.5 -29t-28.5 -73
q0 -49 30.5 -77t98.5 -60q91 -44 134 -83.5t43 -115.5q0 -63 -34.5 -106t-85.5 -65t-101 -22zM279 896q-26 0 -44.5 18.5t-18.5 44.5t18.5 44.5t44.5 18.5t44.5 -18.5t18.5 -44.5t-18.5 -44.5t-44.5 -18.5zM262 710l-133 152h14l136 -73l136 73h14l-133 -152h-34z" />
    <glyph glyph-name="uni1E67" unicode="&#x1e67;" horiz-adv-x="433" 
d="M212 -10q-48 0 -82.5 8.5t-69.5 26.5v112h15l32 -54q33 -55 102 -55q83 0 83 68q0 40 -29.5 57t-84.5 42q-52 23 -79.5 51t-27.5 77q0 58 46 98t103 40q36 0 68 -8.5t63 -24.5v-111h-14l-33 52q-33 52 -81 52q-73 0 -73 -62q0 -32 23 -49.5t74 -39.5q43 -20 82.5 -45
t39.5 -95q0 -68 -52 -104t-105 -36zM199 530l-133 177h14l136 -92l136 92h14l-133 -177h-34zM216 726q-26 0 -44.5 18.5t-18.5 44.5t18.5 44.5t44.5 18.5t44.5 -18.5t18.5 -44.5t-18.5 -44.5t-44.5 -18.5z" />
    <glyph glyph-name="uni1E68" unicode="&#x1e68;" horiz-adv-x="541" 
d="M266 -10q-63 0 -107.5 12t-91.5 35l-10 165h16l53 -109q67 -55 137 -55q58 0 91.5 30t33.5 82q0 62 -42 89t-121 66q-71 34 -109 71.5t-38 105.5q0 48 30 91t78 70t101 27q47 0 88 -11t81 -32l10 -160h-16l-52 107q-32 25 -58 36t-59 11q-43 0 -71.5 -29t-28.5 -73
q0 -49 30.5 -77t98.5 -60q91 -44 134 -83.5t43 -115.5q0 -63 -34.5 -106t-85.5 -65t-101 -22zM279 725q-26 0 -44.5 18.5t-18.5 44.5t18.5 44.5t44.5 18.5t44.5 -18.5t18.5 -44.5t-18.5 -44.5t-44.5 -18.5zM276 -215q-26 0 -44.5 18.5t-18.5 44.5t18.5 44.5t44.5 18.5
t44.5 -18.5t18.5 -44.5t-18.5 -44.5t-44.5 -18.5z" />
    <glyph glyph-name="uni1E69" unicode="&#x1e69;" horiz-adv-x="433" 
d="M212 -10q-48 0 -82.5 8.5t-69.5 26.5v112h15l32 -54q33 -55 102 -55q83 0 83 68q0 40 -29.5 57t-84.5 42q-52 23 -79.5 51t-27.5 77q0 58 46 98t103 40q36 0 68 -8.5t63 -24.5v-111h-14l-33 52q-33 52 -81 52q-73 0 -73 -62q0 -32 23 -49.5t74 -39.5q43 -20 82.5 -45
t39.5 -95q0 -68 -52 -104t-105 -36zM216 577q-26 0 -44.5 18.5t-18.5 44.5t18.5 44.5t44.5 18.5t44.5 -18.5t18.5 -44.5t-18.5 -44.5t-44.5 -18.5zM216 -215q-26 0 -44.5 18.5t-18.5 44.5t18.5 44.5t44.5 18.5t44.5 -18.5t18.5 -44.5t-18.5 -44.5t-44.5 -18.5z" />
    <glyph glyph-name="uni1E6C" unicode="&#x1e6c;" horiz-adv-x="680" 
d="M187 0v16l101 40v549h-158l-71 -151h-16v206h594v-206h-16l-70 151h-159v-549l102 -40v-16h-307zM340 -215q-26 0 -44.5 18.5t-18.5 44.5t18.5 44.5t44.5 18.5t44.5 -18.5t18.5 -44.5t-18.5 -44.5t-44.5 -18.5z" />
    <glyph glyph-name="uni1E6D" unicode="&#x1e6d;" horiz-adv-x="362" 
d="M211 -10q-48 0 -81.5 26t-33.5 73v316h-80v8l87 38l78 110h9v-110h133v-46h-133v-297q0 -26 22.5 -38t53.5 -12q34 0 64 7h3v-12q-12 -23 -43.5 -43t-78.5 -20zM215 -215q-26 0 -44.5 18.5t-18.5 44.5t18.5 44.5t44.5 18.5t44.5 -18.5t18.5 -44.5t-18.5 -44.5
t-44.5 -18.5z" />
    <glyph glyph-name="uni1E6E" unicode="&#x1e6e;" horiz-adv-x="680" 
d="M187 0v16l101 40v549h-158l-71 -151h-16v206h594v-206h-16l-70 151h-159v-549l102 -40v-16h-307zM204 -178v53h272v-53h-272z" />
    <glyph glyph-name="uni1E6F" unicode="&#x1e6f;" horiz-adv-x="362" 
d="M211 -10q-48 0 -81.5 26t-33.5 73v316h-80v8l87 38l78 110h9v-110h133v-46h-133v-297q0 -26 22.5 -38t53.5 -12q34 0 64 7h3v-12q-12 -23 -43.5 -43t-78.5 -20zM79 -178v53h272v-53h-272z" />
    <glyph glyph-name="uni1E78" unicode="&#x1e78;" horiz-adv-x="816" 
d="M409 -10q-116 0 -192 64t-76 209v341l-81 40v16h267v-16l-81 -40v-330q0 -124 56.5 -173t138.5 -49q66 0 115 43t49 144v367l-98 38v16h249v-16l-81 -39v-342q0 -145 -75.5 -209t-190.5 -64zM270 725q25 75 46.5 96t50.5 21q40 0 71.5 -26t65.5 -26q19 0 33.5 10t27.5 42
h15q-24 -75 -46 -96t-51 -21q-40 0 -71.5 26t-65.5 26q-19 0 -33 -10t-28 -42h-15zM417 862l86 152h89q0 -16 -6.5 -32.5t-28.5 -31.5l-126 -88h-14z" />
    <glyph glyph-name="uni1E79" unicode="&#x1e79;" horiz-adv-x="568" 
d="M223 -10q-59 0 -96.5 30t-37.5 88v296l-64 31v16h158v-297q0 -42 25.5 -64t66.5 -22q25 0 55 8.5t48 25.5v302l-68 31v16h163v-406l69 -29v-16h-164v63h-5q-73 -73 -150 -73zM121 555q27 83 48 104.5t50 21.5q40 0 71.5 -32t63.5 -32q20 0 33 13t29 51h15
q-27 -83 -48 -104.5t-50 -21.5q-40 0 -71.5 32t-63.5 32q-20 0 -33 -13t-29 -51h-15zM268 710l86 152h89q0 -16 -6.5 -32.5t-28.5 -31.5l-126 -88h-14z" />
    <glyph glyph-name="uni1E7A" unicode="&#x1e7a;" horiz-adv-x="816" 
d="M409 -10q-116 0 -192 64t-76 209v341l-81 40v16h267v-16l-81 -40v-330q0 -124 56.5 -173t138.5 -49q66 0 115 43t49 144v367l-98 38v16h249v-16l-81 -39v-342q0 -145 -75.5 -209t-190.5 -64zM289 762v53h272v-53h-272zM331 900q-22 0 -36.5 14.5t-14.5 36.5t14.5 36.5
t36.5 14.5q51 0 51 -51t-51 -51zM519 900q-22 0 -37 14.5t-15 36.5t15 36.5t37 14.5t36.5 -14.5t14.5 -36.5t-14.5 -36.5t-36.5 -14.5z" />
    <glyph glyph-name="uni1E7B" unicode="&#x1e7b;" horiz-adv-x="568" 
d="M223 -10q-59 0 -96.5 30t-37.5 88v296l-64 31v16h158v-297q0 -42 25.5 -64t66.5 -22q25 0 55 8.5t48 25.5v302l-68 31v16h163v-406l69 -29v-16h-164v63h-5q-73 -73 -150 -73zM140 591v52h272v-52h-272zM182 735q-22 0 -36.5 14.5t-14.5 36.5t14.5 36.5t36.5 14.5
q51 0 51 -51t-51 -51zM370 735q-22 0 -37 14.5t-15 36.5t15 36.5t37 14.5t36.5 -14.5t14.5 -36.5t-14.5 -36.5t-36.5 -14.5z" />
    <glyph glyph-name="uni1E80" unicode="&#x1e80;" horiz-adv-x="995" 
d="M276 -5l-186 612l-76 37v16h269v-16l-85 -37l122 -422h6l173 480h42l176 -480h6l121 421l-85 38v16h222v-16l-67 -36l-188 -613h-41l-180 479h-7l-182 -479h-40zM513 710l-126 88q-23 16 -29 32t-6 32h89l86 -152h-14z" />
    <glyph glyph-name="wgrave" unicode="&#x1e81;" horiz-adv-x="747" 
d="M199 0l-159 405l-66 30v16h249v-16l-79 -29v-6l100 -264h4l136 315h25l136 -312h4l98 256v5l-70 35v16h196v-16l-73 -34l-169 -401h-25l-139 313l-143 -313h-25zM390 530l-126 113q-21 18 -28 33t-7 31h89l86 -177h-14z" />
    <glyph glyph-name="uni1E82" unicode="&#x1e82;" horiz-adv-x="995" 
d="M276 -5l-186 612l-76 37v16h269v-16l-85 -37l122 -422h6l173 480h42l176 -480h6l121 421l-85 38v16h222v-16l-67 -36l-188 -613h-41l-180 479h-7l-182 -479h-40zM514 710l86 152h89q0 -16 -6.5 -32.5t-28.5 -31.5l-126 -88h-14z" />
    <glyph glyph-name="wacute" unicode="&#x1e83;" horiz-adv-x="747" 
d="M199 0l-159 405l-66 30v16h249v-16l-79 -29v-6l100 -264h4l136 315h25l136 -312h4l98 256v5l-70 35v16h196v-16l-73 -34l-169 -401h-25l-139 313l-143 -313h-25zM394 530l86 177h89q0 -16 -7 -31t-28 -33l-126 -113h-14z" />
    <glyph glyph-name="uni1E84" unicode="&#x1e84;" horiz-adv-x="995" 
d="M276 -5l-186 612l-76 37v16h269v-16l-85 -37l122 -422h6l173 480h42l176 -480h6l121 421l-85 38v16h222v-16l-67 -36l-188 -613h-41l-180 479h-7l-182 -479h-40zM426 735q-22 0 -36.5 14.5t-14.5 36.5t14.5 36.5t36.5 14.5q51 0 51 -51t-51 -51zM614 735q-22 0 -37 14.5
t-15 36.5t15 36.5t37 14.5t36.5 -14.5t14.5 -36.5t-14.5 -36.5t-36.5 -14.5z" />
    <glyph glyph-name="wdieresis" unicode="&#x1e85;" horiz-adv-x="747" 
d="M199 0l-159 405l-66 30v16h249v-16l-79 -29v-6l100 -264h4l136 315h25l136 -312h4l98 256v5l-70 35v16h196v-16l-73 -34l-169 -401h-25l-139 313l-143 -313h-25zM303 566q-22 0 -36.5 14.5t-14.5 36.5t14.5 36.5t36.5 14.5q51 0 51 -51t-51 -51zM491 566q-22 0 -37 14.5
t-15 36.5t15 36.5t37 14.5t36.5 -14.5t14.5 -36.5t-14.5 -36.5t-36.5 -14.5z" />
    <glyph glyph-name="uni1E8E" unicode="&#x1e8e;" horiz-adv-x="727" 
d="M225 0v16l90 40v252l-221 301l-63 35v16h258v-16l-73 -36v-4l177 -241l160 240v4l-74 37v16h216v-16l-65 -33l-211 -302v-253l90 -40v-16h-284zM384 725q-26 0 -44.5 18.5t-18.5 44.5t18.5 44.5t44.5 18.5t44.5 -18.5t18.5 -44.5t-18.5 -44.5t-44.5 -18.5z" />
    <glyph glyph-name="uni1E8F" unicode="&#x1e8f;" horiz-adv-x="479" 
d="M83 -241q-23 0 -28.5 6.5t-5.5 22.5v54l4 5h46q37 0 52 11.5t43 72.5l33 75l-187 399l-66 30v16h248v-16l-78 -30v-5l128 -276h4l105 271v5l-71 35v16h195v-16l-74 -33l-198 -481q-14 -35 -22.5 -54t-30.5 -50q-41 -58 -97 -58zM268 577q-26 0 -44.5 18.5t-18.5 44.5
t18.5 44.5t44.5 18.5t44.5 -18.5t18.5 -44.5t-18.5 -44.5t-44.5 -18.5z" />
    <glyph glyph-name="uni1E92" unicode="&#x1e92;" horiz-adv-x="659" 
d="M89 0v27l341 578h-249l-64 -132h-16v187h458v-27l-342 -578h271l66 142h16v-197h-481zM338 -215q-26 0 -44.5 18.5t-18.5 44.5t18.5 44.5t44.5 18.5t44.5 -18.5t18.5 -44.5t-18.5 -44.5t-44.5 -18.5z" />
    <glyph glyph-name="uni1E93" unicode="&#x1e93;" horiz-adv-x="487" 
d="M66 0v18l222 389h-160l-46 -102h-17l11 156h5q13 -3 32 -6.5t33 -3.5h263v-18l-223 -388h175l39 109h17v-154h-351zM246 -215q-26 0 -44.5 18.5t-18.5 44.5t18.5 44.5t44.5 18.5t44.5 -18.5t18.5 -44.5t-18.5 -44.5t-44.5 -18.5z" />
    <glyph glyph-name="uni1E97" unicode="&#x1e97;" horiz-adv-x="362" 
d="M211 -10q-48 0 -81.5 26t-33.5 73v316h-80v8l87 38l78 110h9v-110h133v-46h-133v-297q0 -26 22.5 -38t53.5 -12q34 0 64 7h3v-12q-12 -23 -43.5 -43t-78.5 -20zM72 666q-22 0 -36.5 14.5t-14.5 36.5t14.5 36.5t36.5 14.5q51 0 51 -51t-51 -51zM260 666q-22 0 -37 14.5
t-15 36.5t15 36.5t37 14.5t36.5 -14.5t14.5 -36.5t-14.5 -36.5t-36.5 -14.5z" />
    <glyph glyph-name="uni1E9E" unicode="&#x1e9e;" horiz-adv-x="1081" 
d="M266 -10q-63 0 -107.5 12t-91.5 35l-10 165h16l53 -109q67 -55 137 -55q58 0 91.5 30t33.5 82q0 62 -42 89t-121 66q-71 34 -109 71.5t-38 105.5q0 48 30 91t78 70t101 27q47 0 88 -11t81 -32l10 -160h-16l-52 107q-32 25 -58 36t-59 11q-43 0 -71.5 -29t-28.5 -73
q0 -49 30.5 -77t98.5 -60q91 -44 134 -83.5t43 -115.5q0 -63 -34.5 -106t-85.5 -65t-101 -22zM806 -10q-63 0 -107.5 12t-91.5 35l-10 165h16l53 -109q67 -55 137 -55q58 0 91.5 30t33.5 82q0 62 -42 89t-121 66q-71 34 -109 71.5t-38 105.5q0 48 30 91t78 70t101 27
q47 0 88 -11t81 -32l10 -160h-16l-52 107q-32 25 -58 36t-59 11q-43 0 -71.5 -29t-28.5 -73q0 -49 30.5 -77t98.5 -60q91 -44 134 -83.5t43 -115.5q0 -63 -34.5 -106t-85.5 -65t-101 -22z" />
    <glyph glyph-name="uni1EA0" unicode="&#x1ea0;" horiz-adv-x="756" 
d="M30 0v16l63 33l257 616h55l254 -613l67 -36v-16h-264v16l88 35l-74 180h-241l-73 -181l84 -34v-16h-216zM258 286h196l-98 241zM371 -215q-26 0 -44.5 18.5t-18.5 44.5t18.5 44.5t44.5 18.5t44.5 -18.5t18.5 -44.5t-18.5 -44.5t-44.5 -18.5z" />
    <glyph glyph-name="uni1EA1" unicode="&#x1ea1;" horiz-adv-x="495" 
d="M155 -10q-48 0 -79.5 28.5t-31.5 78.5q0 49 35.5 84.5t123.5 56.5l95 22v70q0 36 -26.5 60t-61.5 24q-66 0 -66 -71v-32l-5 -5h-55q-26 0 -26 29q0 50 55 84q30 19 61 30.5t66 11.5q58 0 105.5 -24.5t47.5 -88.5v-279q15 -17 54 -17h35l4 -2v-6q-12 -21 -36.5 -37.5
t-59.5 -16.5q-65 0 -85 62h-7q-26 -26 -63.5 -44t-79.5 -18zM135 119q0 -62 73 -62q42 0 90 20v148q-108 -21 -135.5 -46.5t-27.5 -59.5zM239 -215q-26 0 -44.5 18.5t-18.5 44.5t18.5 44.5t44.5 18.5t44.5 -18.5t18.5 -44.5t-18.5 -44.5t-44.5 -18.5z" />
    <glyph glyph-name="uni1EA2" unicode="&#x1ea2;" horiz-adv-x="756" 
d="M30 0v16l63 33l257 616h55l254 -613l67 -36v-16h-264v16l88 35l-74 180h-241l-73 -181l84 -34v-16h-216zM258 286h196l-98 241zM331 710v1q32 11 49.5 23t17.5 35q0 17 -16.5 28t-59.5 19l11 59q68 -6 95 -30.5t27 -50.5q0 -77 -117 -92z" />
    <glyph glyph-name="uni1EA3" unicode="&#x1ea3;" horiz-adv-x="495" 
d="M155 -10q-48 0 -79.5 28.5t-31.5 78.5q0 49 35.5 84.5t123.5 56.5l95 22v70q0 36 -26.5 60t-61.5 24q-66 0 -66 -71v-32l-5 -5h-55q-26 0 -26 29q0 50 55 84q30 19 61 30.5t66 11.5q58 0 105.5 -24.5t47.5 -88.5v-279q15 -17 54 -17h35l4 -2v-6q-12 -21 -36.5 -37.5
t-59.5 -16.5q-65 0 -85 62h-7q-26 -26 -63.5 -44t-79.5 -18zM135 119q0 -62 73 -62q42 0 90 20v148q-108 -21 -135.5 -46.5t-27.5 -59.5zM180 542v1q32 11 49.5 23t17.5 35q0 17 -16.5 28t-59.5 19l11 59q68 -6 95 -30.5t27 -50.5q0 -77 -117 -92z" />
    <glyph glyph-name="uni1EA4" unicode="&#x1ea4;" horiz-adv-x="756" 
d="M30 0v16l63 33l257 616h55l254 -613l67 -36v-16h-264v16l88 35l-74 180h-241l-73 -181l84 -34v-16h-216zM258 286h196l-98 241zM487 805l42 143h82q0 -24 -26 -51l-87 -92h-11zM228 710l133 152h34l133 -152h-14l-136 73l-136 -73h-14z" />
    <glyph glyph-name="uni1EA5" unicode="&#x1ea5;" horiz-adv-x="495" 
d="M155 -10q-48 0 -79.5 28.5t-31.5 78.5q0 49 35.5 84.5t123.5 56.5l95 22v70q0 36 -26.5 60t-61.5 24q-66 0 -66 -71v-32l-5 -5h-55q-26 0 -26 29q0 50 55 84q30 19 61 30.5t66 11.5q58 0 105.5 -24.5t47.5 -88.5v-279q15 -17 54 -17h35l4 -2v-6q-12 -21 -36.5 -37.5
t-59.5 -16.5q-65 0 -85 62h-7q-26 -26 -63.5 -44t-79.5 -18zM135 119q0 -62 73 -62q42 0 90 20v148q-108 -21 -135.5 -46.5t-27.5 -59.5zM339 637l42 143h82q0 -25 -26 -51l-87 -92h-11zM80 530l133 177h34l133 -177h-14l-136 92l-136 -92h-14z" />
    <glyph glyph-name="uni1EA6" unicode="&#x1ea6;" horiz-adv-x="756" 
d="M30 0v16l63 33l257 616h55l254 -613l67 -36v-16h-264v16l88 35l-74 180h-241l-73 -181l84 -34v-16h-216zM258 286h196l-98 241zM258 805l-87 92q-26 26 -26 51h82l42 -143h-11zM228 710l133 152h34l133 -152h-14l-136 73l-136 -73h-14z" />
    <glyph glyph-name="uni1EA7" unicode="&#x1ea7;" horiz-adv-x="495" 
d="M155 -10q-48 0 -79.5 28.5t-31.5 78.5q0 49 35.5 84.5t123.5 56.5l95 22v70q0 36 -26.5 60t-61.5 24q-66 0 -66 -71v-32l-5 -5h-55q-26 0 -26 29q0 50 55 84q30 19 61 30.5t66 11.5q58 0 105.5 -24.5t47.5 -88.5v-279q15 -17 54 -17h35l4 -2v-6q-12 -21 -36.5 -37.5
t-59.5 -16.5q-65 0 -85 62h-7q-26 -26 -63.5 -44t-79.5 -18zM135 119q0 -62 73 -62q42 0 90 20v148q-108 -21 -135.5 -46.5t-27.5 -59.5zM110 637l-87 92q-26 26 -26 51h82l42 -143h-11zM80 530l133 177h34l133 -177h-14l-136 92l-136 -92h-14z" />
    <glyph glyph-name="uni1EA8" unicode="&#x1ea8;" horiz-adv-x="756" 
d="M30 0v16l63 33l257 616h55l254 -613l67 -36v-16h-264v16l88 35l-74 180h-241l-73 -181l84 -34v-16h-216zM258 286h196l-98 241zM228 710l133 152h34l133 -152h-14l-136 73l-136 -73h-14zM320 886v1q32 11 49.5 23t17.5 35q0 17 -16.5 28t-59.5 19l11 59q68 -6 95 -30.5
t27 -50.5q0 -77 -117 -92z" />
    <glyph glyph-name="uni1EA9" unicode="&#x1ea9;" horiz-adv-x="495" 
d="M155 -10q-48 0 -79.5 28.5t-31.5 78.5q0 49 35.5 84.5t123.5 56.5l95 22v70q0 36 -26.5 60t-61.5 24q-66 0 -66 -71v-32l-5 -5h-55q-26 0 -26 29q0 50 55 84q30 19 61 30.5t66 11.5q58 0 105.5 -24.5t47.5 -88.5v-279q15 -17 54 -17h35l4 -2v-6q-12 -21 -36.5 -37.5
t-59.5 -16.5q-65 0 -85 62h-7q-26 -26 -63.5 -44t-79.5 -18zM135 119q0 -62 73 -62q42 0 90 20v148q-108 -21 -135.5 -46.5t-27.5 -59.5zM80 530l133 177h34l133 -177h-14l-136 92l-136 -92h-14zM172 736v1q32 11 49.5 23t17.5 35q0 17 -16.5 28t-59.5 19l11 59
q68 -6 95 -30.5t27 -50.5q0 -77 -117 -92z" />
    <glyph glyph-name="uni1EAA" unicode="&#x1eaa;" horiz-adv-x="756" 
d="M30 0v16l63 33l257 616h55l254 -613l67 -36v-16h-264v16l88 35l-74 180h-241l-73 -181l84 -34v-16h-216zM258 286h196l-98 241zM228 710l133 152h34l133 -152h-14l-136 73l-136 -73h-14zM223 892q27 83 48 104.5t50 21.5q40 0 71.5 -32t63.5 -32q20 0 33 13t29 51h15
q-27 -83 -48 -104.5t-50 -21.5q-40 0 -71.5 32t-63.5 32q-20 0 -33 -13t-29 -51h-15z" />
    <glyph glyph-name="uni1EAB" unicode="&#x1eab;" horiz-adv-x="495" 
d="M155 -10q-48 0 -79.5 28.5t-31.5 78.5q0 49 35.5 84.5t123.5 56.5l95 22v70q0 36 -26.5 60t-61.5 24q-66 0 -66 -71v-32l-5 -5h-55q-26 0 -26 29q0 50 55 84q30 19 61 30.5t66 11.5q58 0 105.5 -24.5t47.5 -88.5v-279q15 -17 54 -17h35l4 -2v-6q-12 -21 -36.5 -37.5
t-59.5 -16.5q-65 0 -85 62h-7q-26 -26 -63.5 -44t-79.5 -18zM135 119q0 -62 73 -62q42 0 90 20v148q-108 -21 -135.5 -46.5t-27.5 -59.5zM80 530l133 177h34l133 -177h-14l-136 92l-136 -92h-14zM75 725q25 75 46.5 96t50.5 21q40 0 71.5 -26t65.5 -26q19 0 33.5 10t27.5 42
h15q-24 -75 -46 -96t-51 -21q-40 0 -71.5 26t-65.5 26q-19 0 -33 -10t-28 -42h-15z" />
    <glyph glyph-name="uni1EAC" unicode="&#x1eac;" horiz-adv-x="756" 
d="M30 0v16l63 33l257 616h55l254 -613l67 -36v-16h-264v16l88 35l-74 180h-241l-73 -181l84 -34v-16h-216zM258 286h196l-98 241zM228 710l133 152h34l133 -152h-14l-136 73l-136 -73h-14zM371 -215q-26 0 -44.5 18.5t-18.5 44.5t18.5 44.5t44.5 18.5t44.5 -18.5
t18.5 -44.5t-18.5 -44.5t-44.5 -18.5z" />
    <glyph glyph-name="uni1EAD" unicode="&#x1ead;" horiz-adv-x="495" 
d="M155 -10q-48 0 -79.5 28.5t-31.5 78.5q0 49 35.5 84.5t123.5 56.5l95 22v70q0 36 -26.5 60t-61.5 24q-66 0 -66 -71v-32l-5 -5h-55q-26 0 -26 29q0 50 55 84q30 19 61 30.5t66 11.5q58 0 105.5 -24.5t47.5 -88.5v-279q15 -17 54 -17h35l4 -2v-6q-12 -21 -36.5 -37.5
t-59.5 -16.5q-65 0 -85 62h-7q-26 -26 -63.5 -44t-79.5 -18zM135 119q0 -62 73 -62q42 0 90 20v148q-108 -21 -135.5 -46.5t-27.5 -59.5zM80 530l133 177h34l133 -177h-14l-136 92l-136 -92h-14zM239 -215q-26 0 -44.5 18.5t-18.5 44.5t18.5 44.5t44.5 18.5t44.5 -18.5
t18.5 -44.5t-18.5 -44.5t-44.5 -18.5z" />
    <glyph glyph-name="uni1EAE" unicode="&#x1eae;" horiz-adv-x="756" 
d="M30 0v16l63 33l257 616h55l254 -613l67 -36v-16h-264v16l88 35l-74 180h-241l-73 -181l84 -34v-16h-216zM258 286h196l-98 241zM378 710q-66 0 -99 41t-50 111h13q27 -52 56 -67t80 -15t79.5 15t56.5 67h13q-18 -70 -51.5 -111t-97.5 -41zM348 822l86 152h89
q0 -16 -6.5 -32.5t-28.5 -31.5l-126 -88h-14z" />
    <glyph glyph-name="uni1EAF" unicode="&#x1eaf;" horiz-adv-x="495" 
d="M155 -10q-48 0 -79.5 28.5t-31.5 78.5q0 49 35.5 84.5t123.5 56.5l95 22v70q0 36 -26.5 60t-61.5 24q-66 0 -66 -71v-32l-5 -5h-55q-26 0 -26 29q0 50 55 84q30 19 61 30.5t66 11.5q58 0 105.5 -24.5t47.5 -88.5v-279q15 -17 54 -17h35l4 -2v-6q-12 -21 -36.5 -37.5
t-59.5 -16.5q-65 0 -85 62h-7q-26 -26 -63.5 -44t-79.5 -18zM135 119q0 -62 73 -62q42 0 90 20v148q-108 -21 -135.5 -46.5t-27.5 -59.5zM200 670l86 152h89q0 -16 -6.5 -32.5t-28.5 -31.5l-126 -88h-14zM230 540q-66 0 -98 41.5t-51 125.5h13q31 -66 61.5 -81.5t74.5 -15.5
t74 15.5t62 81.5h13q-19 -84 -52 -125.5t-97 -41.5z" />
    <glyph glyph-name="uni1EB0" unicode="&#x1eb0;" horiz-adv-x="756" 
d="M30 0v16l63 33l257 616h55l254 -613l67 -36v-16h-264v16l88 35l-74 180h-241l-73 -181l84 -34v-16h-216zM258 286h196l-98 241zM378 710q-66 0 -99 41t-50 111h13q27 -52 56 -67t80 -15t79.5 15t56.5 67h13q-18 -70 -51.5 -111t-97.5 -41zM393 822l-126 88q-23 16 -29 32
t-6 32h89l86 -152h-14z" />
    <glyph glyph-name="uni1EB1" unicode="&#x1eb1;" horiz-adv-x="495" 
d="M155 -10q-48 0 -79.5 28.5t-31.5 78.5q0 49 35.5 84.5t123.5 56.5l95 22v70q0 36 -26.5 60t-61.5 24q-66 0 -66 -71v-32l-5 -5h-55q-26 0 -26 29q0 50 55 84q30 19 61 30.5t66 11.5q58 0 105.5 -24.5t47.5 -88.5v-279q15 -17 54 -17h35l4 -2v-6q-12 -21 -36.5 -37.5
t-59.5 -16.5q-65 0 -85 62h-7q-26 -26 -63.5 -44t-79.5 -18zM135 119q0 -62 73 -62q42 0 90 20v148q-108 -21 -135.5 -46.5t-27.5 -59.5zM230 540q-66 0 -98 41.5t-51 125.5h13q31 -66 61.5 -81.5t74.5 -15.5t74 15.5t62 81.5h13q-19 -84 -52 -125.5t-97 -41.5zM245 670
l-126 88q-23 16 -29 32t-6 32h89l86 -152h-14z" />
    <glyph glyph-name="uni1EB2" unicode="&#x1eb2;" horiz-adv-x="756" 
d="M30 0v16l63 33l257 616h55l254 -613l67 -36v-16h-264v16l88 35l-74 180h-241l-73 -181l84 -34v-16h-216zM258 286h196l-98 241zM378 710q-66 0 -99 41t-50 111h13q27 -52 56 -67t80 -15t79.5 15t56.5 67h13q-18 -70 -51.5 -111t-97.5 -41zM327 833v1q32 11 49.5 23
t17.5 35q0 17 -16.5 28t-59.5 19l11 59q68 -6 95 -30.5t27 -50.5q0 -77 -117 -92z" />
    <glyph glyph-name="uni1EB3" unicode="&#x1eb3;" horiz-adv-x="495" 
d="M155 -10q-48 0 -79.5 28.5t-31.5 78.5q0 49 35.5 84.5t123.5 56.5l95 22v70q0 36 -26.5 60t-61.5 24q-66 0 -66 -71v-32l-5 -5h-55q-26 0 -26 29q0 50 55 84q30 19 61 30.5t66 11.5q58 0 105.5 -24.5t47.5 -88.5v-279q15 -17 54 -17h35l4 -2v-6q-12 -21 -36.5 -37.5
t-59.5 -16.5q-65 0 -85 62h-7q-26 -26 -63.5 -44t-79.5 -18zM135 119q0 -62 73 -62q42 0 90 20v148q-108 -21 -135.5 -46.5t-27.5 -59.5zM180 670v1q32 11 49.5 23t17.5 35q0 17 -16.5 28t-59.5 19l11 59q68 -6 95 -30.5t27 -50.5q0 -77 -117 -92zM230 540q-66 0 -98 41.5
t-51 125.5h13q31 -66 61.5 -81.5t74.5 -15.5t74 15.5t62 81.5h13q-19 -84 -52 -125.5t-97 -41.5z" />
    <glyph glyph-name="uni1EB4" unicode="&#x1eb4;" horiz-adv-x="756" 
d="M30 0v16l63 33l257 616h55l254 -613l67 -36v-16h-264v16l88 35l-74 180h-241l-73 -181l84 -34v-16h-216zM258 286h196l-98 241zM223 886q27 83 48 104.5t50 21.5q40 0 71.5 -32t63.5 -32q20 0 33 13t29 51h15q-27 -83 -48 -104.5t-50 -21.5q-40 0 -71.5 32t-63.5 32
q-20 0 -33 -13t-29 -51h-15zM378 710q-66 0 -99 41t-50 111h13q27 -52 56 -67t80 -15t79.5 15t56.5 67h13q-18 -70 -51.5 -111t-97.5 -41z" />
    <glyph glyph-name="uni1EB5" unicode="&#x1eb5;" horiz-adv-x="495" 
d="M155 -10q-48 0 -79.5 28.5t-31.5 78.5q0 49 35.5 84.5t123.5 56.5l95 22v70q0 36 -26.5 60t-61.5 24q-66 0 -66 -71v-32l-5 -5h-55q-26 0 -26 29q0 50 55 84q30 19 61 30.5t66 11.5q58 0 105.5 -24.5t47.5 -88.5v-279q15 -17 54 -17h35l4 -2v-6q-12 -21 -36.5 -37.5
t-59.5 -16.5q-65 0 -85 62h-7q-26 -26 -63.5 -44t-79.5 -18zM135 119q0 -62 73 -62q42 0 90 20v148q-108 -21 -135.5 -46.5t-27.5 -59.5zM230 540q-66 0 -98 41.5t-51 125.5h13q31 -66 61.5 -81.5t74.5 -15.5t74 15.5t62 81.5h13q-19 -84 -52 -125.5t-97 -41.5zM75 725
q25 75 46.5 96t50.5 21q40 0 71.5 -26t65.5 -26q19 0 33.5 10t27.5 42h15q-24 -75 -46 -96t-51 -21q-40 0 -71.5 26t-65.5 26q-19 0 -33 -10t-28 -42h-15z" />
    <glyph glyph-name="uni1EB6" unicode="&#x1eb6;" horiz-adv-x="756" 
d="M30 0v16l63 33l257 616h55l254 -613l67 -36v-16h-264v16l88 35l-74 180h-241l-73 -181l84 -34v-16h-216zM258 286h196l-98 241zM378 710q-66 0 -99 41t-50 111h13q27 -52 56 -67t80 -15t79.5 15t56.5 67h13q-18 -70 -51.5 -111t-97.5 -41zM371 -215q-26 0 -44.5 18.5
t-18.5 44.5t18.5 44.5t44.5 18.5t44.5 -18.5t18.5 -44.5t-18.5 -44.5t-44.5 -18.5z" />
    <glyph glyph-name="uni1EB7" unicode="&#x1eb7;" horiz-adv-x="495" 
d="M155 -10q-48 0 -79.5 28.5t-31.5 78.5q0 49 35.5 84.5t123.5 56.5l95 22v70q0 36 -26.5 60t-61.5 24q-66 0 -66 -71v-32l-5 -5h-55q-26 0 -26 29q0 50 55 84q30 19 61 30.5t66 11.5q58 0 105.5 -24.5t47.5 -88.5v-279q15 -17 54 -17h35l4 -2v-6q-12 -21 -36.5 -37.5
t-59.5 -16.5q-65 0 -85 62h-7q-26 -26 -63.5 -44t-79.5 -18zM135 119q0 -62 73 -62q42 0 90 20v148q-108 -21 -135.5 -46.5t-27.5 -59.5zM230 540q-66 0 -98 41.5t-51 125.5h13q31 -66 61.5 -81.5t74.5 -15.5t74 15.5t62 81.5h13q-19 -84 -52 -125.5t-97 -41.5zM239 -215
q-26 0 -44.5 18.5t-18.5 44.5t18.5 44.5t44.5 18.5t44.5 -18.5t18.5 -44.5t-18.5 -44.5t-44.5 -18.5z" />
    <glyph glyph-name="uni1EB8" unicode="&#x1eb8;" horiz-adv-x="659" 
d="M60 0v16l81 40v548l-81 40v16h502v-172h-16l-65 117h-235v-237h166l51 84h16v-221h-16l-51 82h-166v-258h262l66 132h16v-187h-530zM352 -215q-26 0 -44.5 18.5t-18.5 44.5t18.5 44.5t44.5 18.5t44.5 -18.5t18.5 -44.5t-18.5 -44.5t-44.5 -18.5z" />
    <glyph glyph-name="uni1EB9" unicode="&#x1eb9;" horiz-adv-x="487" 
d="M259 -10q-98 0 -155 59t-57 157q0 112 66.5 183.5t154.5 71.5q80 0 125 -54.5t46 -156.5l-5 -5h-295q1 -69 38.5 -120.5t130.5 -51.5q57 0 129 38h3v-12q-24 -46 -71 -77.5t-110 -31.5zM250 417q-93 0 -109 -126h213q-10 68 -36 97t-68 29zM266 -215q-26 0 -44.5 18.5
t-18.5 44.5t18.5 44.5t44.5 18.5t44.5 -18.5t18.5 -44.5t-18.5 -44.5t-44.5 -18.5z" />
    <glyph glyph-name="uni1EBA" unicode="&#x1eba;" horiz-adv-x="659" 
d="M60 0v16l81 40v548l-81 40v16h502v-172h-16l-65 117h-235v-237h166l51 84h16v-221h-16l-51 82h-166v-258h262l66 132h16v-187h-530zM292 710v1q32 11 49.5 23t17.5 35q0 17 -16.5 28t-59.5 19l11 59q68 -6 95 -30.5t27 -50.5q0 -77 -117 -92z" />
    <glyph glyph-name="uni1EBB" unicode="&#x1ebb;" horiz-adv-x="487" 
d="M259 -10q-98 0 -155 59t-57 157q0 112 66.5 183.5t154.5 71.5q80 0 125 -54.5t46 -156.5l-5 -5h-295q1 -69 38.5 -120.5t130.5 -51.5q57 0 129 38h3v-12q-24 -46 -71 -77.5t-110 -31.5zM250 417q-93 0 -109 -126h213q-10 68 -36 97t-68 29zM212 542v1q32 11 49.5 23
t17.5 35q0 17 -16.5 28t-59.5 19l11 59q68 -6 95 -30.5t27 -50.5q0 -77 -117 -92z" />
    <glyph glyph-name="uni1EBC" unicode="&#x1ebc;" horiz-adv-x="659" 
d="M60 0v16l81 40v548l-81 40v16h502v-172h-16l-65 117h-235v-237h166l51 84h16v-221h-16l-51 82h-166v-258h262l66 132h16v-187h-530zM184 725q25 75 46.5 96t50.5 21q40 0 71.5 -26t65.5 -26q19 0 33.5 10t27.5 42h15q-24 -75 -46 -96t-51 -21q-40 0 -71.5 26t-65.5 26
q-19 0 -33 -10t-28 -42h-15z" />
    <glyph glyph-name="uni1EBD" unicode="&#x1ebd;" horiz-adv-x="487" 
d="M259 -10q-98 0 -155 59t-57 157q0 112 66.5 183.5t154.5 71.5q80 0 125 -54.5t46 -156.5l-5 -5h-295q1 -69 38.5 -120.5t130.5 -51.5q57 0 129 38h3v-12q-24 -46 -71 -77.5t-110 -31.5zM250 417q-93 0 -109 -126h213q-10 68 -36 97t-68 29zM106 555q27 83 48 104.5
t50 21.5q40 0 71.5 -32t63.5 -32q20 0 33 13t29 51h15q-27 -83 -48 -104.5t-50 -21.5q-40 0 -71.5 32t-63.5 32q-20 0 -33 -13t-29 -51h-15z" />
    <glyph glyph-name="uni1EBE" unicode="&#x1ebe;" horiz-adv-x="659" 
d="M60 0v16l81 40v548l-81 40v16h502v-172h-16l-65 117h-235v-237h166l51 84h16v-221h-16l-51 82h-166v-258h262l66 132h16v-187h-530zM448 805l42 143h82q0 -24 -26 -51l-87 -92h-11zM189 710l133 152h34l133 -152h-14l-136 73l-136 -73h-14z" />
    <glyph glyph-name="uni1EBF" unicode="&#x1ebf;" horiz-adv-x="487" 
d="M259 -10q-98 0 -155 59t-57 157q0 112 66.5 183.5t154.5 71.5q80 0 125 -54.5t46 -156.5l-5 -5h-295q1 -69 38.5 -120.5t130.5 -51.5q57 0 129 38h3v-12q-24 -46 -71 -77.5t-110 -31.5zM250 417q-93 0 -109 -126h213q-10 68 -36 97t-68 29zM370 637l42 143h82
q0 -25 -26 -51l-87 -92h-11zM111 530l133 177h34l133 -177h-14l-136 92l-136 -92h-14z" />
    <glyph glyph-name="uni1EC0" unicode="&#x1ec0;" horiz-adv-x="659" 
d="M60 0v16l81 40v548l-81 40v16h502v-172h-16l-65 117h-235v-237h166l51 84h16v-221h-16l-51 82h-166v-258h262l66 132h16v-187h-530zM219 805l-87 92q-26 26 -26 51h82l42 -143h-11zM189 710l133 152h34l133 -152h-14l-136 73l-136 -73h-14z" />
    <glyph glyph-name="uni1EC1" unicode="&#x1ec1;" horiz-adv-x="487" 
d="M259 -10q-98 0 -155 59t-57 157q0 112 66.5 183.5t154.5 71.5q80 0 125 -54.5t46 -156.5l-5 -5h-295q1 -69 38.5 -120.5t130.5 -51.5q57 0 129 38h3v-12q-24 -46 -71 -77.5t-110 -31.5zM250 417q-93 0 -109 -126h213q-10 68 -36 97t-68 29zM141 637l-87 92q-26 26 -26 51
h82l42 -143h-11zM111 530l133 177h34l133 -177h-14l-136 92l-136 -92h-14z" />
    <glyph glyph-name="uni1EC2" unicode="&#x1ec2;" horiz-adv-x="659" 
d="M60 0v16l81 40v548l-81 40v16h502v-172h-16l-65 117h-235v-237h166l51 84h16v-221h-16l-51 82h-166v-258h262l66 132h16v-187h-530zM189 710l133 152h34l133 -152h-14l-136 73l-136 -73h-14zM281 886v1q32 11 49.5 23t17.5 35q0 17 -16.5 28t-59.5 19l11 59
q68 -6 95 -30.5t27 -50.5q0 -77 -117 -92z" />
    <glyph glyph-name="uni1EC3" unicode="&#x1ec3;" horiz-adv-x="487" 
d="M259 -10q-98 0 -155 59t-57 157q0 112 66.5 183.5t154.5 71.5q80 0 125 -54.5t46 -156.5l-5 -5h-295q1 -69 38.5 -120.5t130.5 -51.5q57 0 129 38h3v-12q-24 -46 -71 -77.5t-110 -31.5zM250 417q-93 0 -109 -126h213q-10 68 -36 97t-68 29zM111 530l133 177h34l133 -177
h-14l-136 92l-136 -92h-14zM203 736v1q32 11 49.5 23t17.5 35q0 17 -16.5 28t-59.5 19l11 59q68 -6 95 -30.5t27 -50.5q0 -77 -117 -92z" />
    <glyph glyph-name="uni1EC4" unicode="&#x1ec4;" horiz-adv-x="659" 
d="M60 0v16l81 40v548l-81 40v16h502v-172h-16l-65 117h-235v-237h166l51 84h16v-221h-16l-51 82h-166v-258h262l66 132h16v-187h-530zM189 710l133 152h34l133 -152h-14l-136 73l-136 -73h-14zM184 892q27 83 48 104.5t50 21.5q40 0 71.5 -32t63.5 -32q20 0 33 13t29 51h15
q-27 -83 -48 -104.5t-50 -21.5q-40 0 -71.5 32t-63.5 32q-20 0 -33 -13t-29 -51h-15z" />
    <glyph glyph-name="uni1EC5" unicode="&#x1ec5;" horiz-adv-x="487" 
d="M259 -10q-98 0 -155 59t-57 157q0 112 66.5 183.5t154.5 71.5q80 0 125 -54.5t46 -156.5l-5 -5h-295q1 -69 38.5 -120.5t130.5 -51.5q57 0 129 38h3v-12q-24 -46 -71 -77.5t-110 -31.5zM250 417q-93 0 -109 -126h213q-10 68 -36 97t-68 29zM111 530l133 177h34l133 -177
h-14l-136 92l-136 -92h-14zM106 725q25 75 46.5 96t50.5 21q40 0 71.5 -26t65.5 -26q19 0 33.5 10t27.5 42h15q-24 -75 -46 -96t-51 -21q-40 0 -71.5 26t-65.5 26q-19 0 -33 -10t-28 -42h-15z" />
    <glyph glyph-name="uni1EC6" unicode="&#x1ec6;" horiz-adv-x="659" 
d="M60 0v16l81 40v548l-81 40v16h502v-172h-16l-65 117h-235v-237h166l51 84h16v-221h-16l-51 82h-166v-258h262l66 132h16v-187h-530zM189 710l133 152h34l133 -152h-14l-136 73l-136 -73h-14zM352 -215q-26 0 -44.5 18.5t-18.5 44.5t18.5 44.5t44.5 18.5t44.5 -18.5
t18.5 -44.5t-18.5 -44.5t-44.5 -18.5z" />
    <glyph glyph-name="uni1EC7" unicode="&#x1ec7;" horiz-adv-x="487" 
d="M259 -10q-98 0 -155 59t-57 157q0 112 66.5 183.5t154.5 71.5q80 0 125 -54.5t46 -156.5l-5 -5h-295q1 -69 38.5 -120.5t130.5 -51.5q57 0 129 38h3v-12q-24 -46 -71 -77.5t-110 -31.5zM250 417q-93 0 -109 -126h213q-10 68 -36 97t-68 29zM111 530l133 177h34l133 -177
h-14l-136 92l-136 -92h-14zM266 -215q-26 0 -44.5 18.5t-18.5 44.5t18.5 44.5t44.5 18.5t44.5 -18.5t18.5 -44.5t-18.5 -44.5t-44.5 -18.5z" />
    <glyph glyph-name="uni1EC8" unicode="&#x1ec8;" horiz-adv-x="395" 
d="M64 0v16l82 40v548l-82 40v16h267v-16l-81 -40v-548l81 -40v-16h-267zM150 710v1q32 11 49.5 23t17.5 35q0 17 -16.5 28t-59.5 19l11 59q68 -6 95 -30.5t27 -50.5q0 -77 -117 -92z" />
    <glyph glyph-name="uni1EC9" unicode="&#x1ec9;" horiz-adv-x="318" 
d="M49 0v16l64 32v299l-61 51v8l148 55h7v-413l62 -32v-16h-220zM110 542v1q32 11 49.5 23t17.5 35q0 17 -16.5 28t-59.5 19l11 59q68 -6 95 -30.5t27 -50.5q0 -77 -117 -92z" />
    <glyph glyph-name="uni1ECA" unicode="&#x1eca;" horiz-adv-x="395" 
d="M64 0v16l82 40v548l-82 40v16h267v-16l-81 -40v-548l81 -40v-16h-267zM198 -215q-26 0 -44.5 18.5t-18.5 44.5t18.5 44.5t44.5 18.5t44.5 -18.5t18.5 -44.5t-18.5 -44.5t-44.5 -18.5z" />
    <glyph glyph-name="uni1ECB" unicode="&#x1ecb;" horiz-adv-x="318" 
d="M157 577q-27 0 -45 18t-18 45q0 28 18 45.5t45 17.5t45 -17.5t18 -45.5q0 -27 -18 -45t-45 -18zM49 0v16l64 32v299l-61 51v8l148 55h7v-413l62 -32v-16h-220zM160 -215q-26 0 -44.5 18.5t-18.5 44.5t18.5 44.5t44.5 18.5t44.5 -18.5t18.5 -44.5t-18.5 -44.5t-44.5 -18.5
z" />
    <glyph glyph-name="uni1ECC" unicode="&#x1ecc;" horiz-adv-x="803" 
d="M401 -10q-145 0 -240.5 96.5t-95.5 243.5t95.5 243.5t240.5 96.5t241 -96.5t96 -243.5t-96 -243.5t-241 -96.5zM421 40q91 0 148 70t57 189q0 146 -70 234t-171 88q-91 0 -149.5 -69.5t-58.5 -188.5q0 -146 71 -234.5t173 -88.5zM413 -215q-26 0 -44.5 18.5t-18.5 44.5
t18.5 44.5t44.5 18.5t44.5 -18.5t18.5 -44.5t-18.5 -44.5t-44.5 -18.5z" />
    <glyph glyph-name="uni1ECD" unicode="&#x1ecd;" horiz-adv-x="542" 
d="M271 -10q-101 0 -163 68t-62 168t62 167.5t163 67.5q100 0 162 -67.5t62 -167.5t-62 -168t-162 -68zM284 34q57 0 82.5 53.5t25.5 118.5q0 80 -31 146t-101 66q-58 0 -84.5 -52.5t-26.5 -118.5q0 -80 32 -146.5t103 -66.5zM276 -215q-26 0 -44.5 18.5t-18.5 44.5
t18.5 44.5t44.5 18.5t44.5 -18.5t18.5 -44.5t-18.5 -44.5t-44.5 -18.5z" />
    <glyph glyph-name="uni1ECE" unicode="&#x1ece;" horiz-adv-x="803" 
d="M401 -10q-145 0 -240.5 96.5t-95.5 243.5t95.5 243.5t240.5 96.5t241 -96.5t96 -243.5t-96 -243.5t-241 -96.5zM421 40q91 0 148 70t57 189q0 146 -70 234t-171 88q-91 0 -149.5 -69.5t-58.5 -188.5q0 -146 71 -234.5t173 -88.5zM343 710v1q32 11 49.5 23t17.5 35
q0 17 -16.5 28t-59.5 19l11 59q68 -6 95 -30.5t27 -50.5q0 -77 -117 -92z" />
    <glyph glyph-name="uni1ECF" unicode="&#x1ecf;" horiz-adv-x="542" 
d="M271 -10q-101 0 -163 68t-62 168t62 167.5t163 67.5q100 0 162 -67.5t62 -167.5t-62 -168t-162 -68zM284 34q57 0 82.5 53.5t25.5 118.5q0 80 -31 146t-101 66q-58 0 -84.5 -52.5t-26.5 -118.5q0 -80 32 -146.5t103 -66.5zM219 542v1q32 11 49.5 23t17.5 35
q0 17 -16.5 28t-59.5 19l11 59q68 -6 95 -30.5t27 -50.5q0 -77 -117 -92z" />
    <glyph glyph-name="uni1ED0" unicode="&#x1ed0;" horiz-adv-x="803" 
d="M401 -10q-145 0 -240.5 96.5t-95.5 243.5t95.5 243.5t240.5 96.5t241 -96.5t96 -243.5t-96 -243.5t-241 -96.5zM421 40q91 0 148 70t57 189q0 146 -70 234t-171 88q-91 0 -149.5 -69.5t-58.5 -188.5q0 -146 71 -234.5t173 -88.5zM500 805l42 143h82q0 -24 -26 -51
l-87 -92h-11zM241 710l133 152h34l133 -152h-14l-136 73l-136 -73h-14z" />
    <glyph glyph-name="uni1ED1" unicode="&#x1ed1;" horiz-adv-x="542" 
d="M271 -10q-101 0 -163 68t-62 168t62 167.5t163 67.5q100 0 162 -67.5t62 -167.5t-62 -168t-162 -68zM284 34q57 0 82.5 53.5t25.5 118.5q0 80 -31 146t-101 66q-58 0 -84.5 -52.5t-26.5 -118.5q0 -80 32 -146.5t103 -66.5zM377 637l42 143h82q0 -25 -26 -51l-87 -92h-11z
M118 530l133 177h34l133 -177h-14l-136 92l-136 -92h-14z" />
    <glyph glyph-name="uni1ED2" unicode="&#x1ed2;" horiz-adv-x="803" 
d="M401 -10q-145 0 -240.5 96.5t-95.5 243.5t95.5 243.5t240.5 96.5t241 -96.5t96 -243.5t-96 -243.5t-241 -96.5zM421 40q91 0 148 70t57 189q0 146 -70 234t-171 88q-91 0 -149.5 -69.5t-58.5 -188.5q0 -146 71 -234.5t173 -88.5zM271 805l-87 92q-26 26 -26 51h82
l42 -143h-11zM241 710l133 152h34l133 -152h-14l-136 73l-136 -73h-14z" />
    <glyph glyph-name="uni1ED3" unicode="&#x1ed3;" horiz-adv-x="542" 
d="M271 -10q-101 0 -163 68t-62 168t62 167.5t163 67.5q100 0 162 -67.5t62 -167.5t-62 -168t-162 -68zM284 34q57 0 82.5 53.5t25.5 118.5q0 80 -31 146t-101 66q-58 0 -84.5 -52.5t-26.5 -118.5q0 -80 32 -146.5t103 -66.5zM148 637l-87 92q-26 26 -26 51h82l42 -143h-11z
M118 530l133 177h34l133 -177h-14l-136 92l-136 -92h-14z" />
    <glyph glyph-name="uni1ED4" unicode="&#x1ed4;" horiz-adv-x="803" 
d="M401 -10q-145 0 -240.5 96.5t-95.5 243.5t95.5 243.5t240.5 96.5t241 -96.5t96 -243.5t-96 -243.5t-241 -96.5zM421 40q91 0 148 70t57 189q0 146 -70 234t-171 88q-91 0 -149.5 -69.5t-58.5 -188.5q0 -146 71 -234.5t173 -88.5zM241 710l133 152h34l133 -152h-14
l-136 73l-136 -73h-14zM333 886v1q32 11 49.5 23t17.5 35q0 17 -16.5 28t-59.5 19l11 59q68 -6 95 -30.5t27 -50.5q0 -77 -117 -92z" />
    <glyph glyph-name="uni1ED5" unicode="&#x1ed5;" horiz-adv-x="542" 
d="M271 -10q-101 0 -163 68t-62 168t62 167.5t163 67.5q100 0 162 -67.5t62 -167.5t-62 -168t-162 -68zM284 34q57 0 82.5 53.5t25.5 118.5q0 80 -31 146t-101 66q-58 0 -84.5 -52.5t-26.5 -118.5q0 -80 32 -146.5t103 -66.5zM118 530l133 177h34l133 -177h-14l-136 92
l-136 -92h-14zM210 736v1q32 11 49.5 23t17.5 35q0 17 -16.5 28t-59.5 19l11 59q68 -6 95 -30.5t27 -50.5q0 -77 -117 -92z" />
    <glyph glyph-name="uni1ED6" unicode="&#x1ed6;" horiz-adv-x="803" 
d="M401 -10q-145 0 -240.5 96.5t-95.5 243.5t95.5 243.5t240.5 96.5t241 -96.5t96 -243.5t-96 -243.5t-241 -96.5zM421 40q91 0 148 70t57 189q0 146 -70 234t-171 88q-91 0 -149.5 -69.5t-58.5 -188.5q0 -146 71 -234.5t173 -88.5zM241 710l133 152h34l133 -152h-14
l-136 73l-136 -73h-14zM236 892q27 83 48 104.5t50 21.5q40 0 71.5 -32t63.5 -32q20 0 33 13t29 51h15q-27 -83 -48 -104.5t-50 -21.5q-40 0 -71.5 32t-63.5 32q-20 0 -33 -13t-29 -51h-15z" />
    <glyph glyph-name="uni1ED7" unicode="&#x1ed7;" horiz-adv-x="542" 
d="M271 -10q-101 0 -163 68t-62 168t62 167.5t163 67.5q100 0 162 -67.5t62 -167.5t-62 -168t-162 -68zM284 34q57 0 82.5 53.5t25.5 118.5q0 80 -31 146t-101 66q-58 0 -84.5 -52.5t-26.5 -118.5q0 -80 32 -146.5t103 -66.5zM118 530l133 177h34l133 -177h-14l-136 92
l-136 -92h-14zM113 725q25 75 46.5 96t50.5 21q40 0 71.5 -26t65.5 -26q19 0 33.5 10t27.5 42h15q-24 -75 -46 -96t-51 -21q-40 0 -71.5 26t-65.5 26q-19 0 -33 -10t-28 -42h-15z" />
    <glyph glyph-name="uni1ED8" unicode="&#x1ed8;" horiz-adv-x="803" 
d="M401 -10q-145 0 -240.5 96.5t-95.5 243.5t95.5 243.5t240.5 96.5t241 -96.5t96 -243.5t-96 -243.5t-241 -96.5zM421 40q91 0 148 70t57 189q0 146 -70 234t-171 88q-91 0 -149.5 -69.5t-58.5 -188.5q0 -146 71 -234.5t173 -88.5zM241 710l133 152h34l133 -152h-14
l-136 73l-136 -73h-14zM413 -215q-26 0 -44.5 18.5t-18.5 44.5t18.5 44.5t44.5 18.5t44.5 -18.5t18.5 -44.5t-18.5 -44.5t-44.5 -18.5z" />
    <glyph glyph-name="uni1ED9" unicode="&#x1ed9;" horiz-adv-x="542" 
d="M271 -10q-101 0 -163 68t-62 168t62 167.5t163 67.5q100 0 162 -67.5t62 -167.5t-62 -168t-162 -68zM284 34q57 0 82.5 53.5t25.5 118.5q0 80 -31 146t-101 66q-58 0 -84.5 -52.5t-26.5 -118.5q0 -80 32 -146.5t103 -66.5zM118 530l133 177h34l133 -177h-14l-136 92
l-136 -92h-14zM276 -215q-26 0 -44.5 18.5t-18.5 44.5t18.5 44.5t44.5 18.5t44.5 -18.5t18.5 -44.5t-18.5 -44.5t-44.5 -18.5z" />
    <glyph glyph-name="uni1EDA" unicode="&#x1eda;" horiz-adv-x="803" 
d="M401 -10q-145 0 -240.5 96.5t-95.5 243.5t95.5 243.5t240.5 96.5q44 0 86 -10v0v0q23 -6 45 -14q15 -3 30 -3q55 0 55 54v50l6 6h41q16 0 21.5 -5.5t5.5 -25.5q0 -45 -30.5 -72t-78.5 -27h-4q73 -43 116.5 -119.5t43.5 -173.5q0 -147 -96 -243.5t-241 -96.5zM421 40
q91 0 148 70t57 189q0 146 -70 234t-171 88q-91 0 -149.5 -69.5t-58.5 -188.5q0 -146 71 -234.5t173 -88.5zM384 710l86 152h89q0 -16 -6.5 -32.5t-28.5 -31.5l-126 -88h-14z" />
    <glyph glyph-name="uni1EDB" unicode="&#x1edb;" horiz-adv-x="542" 
d="M271 -10q-101 0 -163 68t-62 168t62 167.5t163 67.5q53 0 98 -21q24 -7 45 -7q52 0 52 54v50l6 6h41q16 0 21.5 -5.5t5.5 -25.5q0 -44 -30 -71.5t-76 -27.5q-13 0 -23 1q84 -67 84 -188q0 -100 -62 -168t-162 -68zM284 34q57 0 82.5 53.5t25.5 118.5q0 80 -31 146
t-101 66q-58 0 -84.5 -52.5t-26.5 -118.5q0 -80 32.5 -146.5t102.5 -66.5zM266 530l86 177h89q0 -16 -7 -31t-28 -33l-126 -113h-14z" />
    <glyph glyph-name="uni1EDC" unicode="&#x1edc;" horiz-adv-x="803" 
d="M401 -10q-145 0 -240.5 96.5t-95.5 243.5t95.5 243.5t240.5 96.5q44 0 86 -10v0v0q23 -6 45 -14q15 -3 30 -3q55 0 55 54v50l6 6h41q16 0 21.5 -5.5t5.5 -25.5q0 -45 -30.5 -72t-78.5 -27h-4q73 -43 116.5 -119.5t43.5 -173.5q0 -147 -96 -243.5t-241 -96.5zM421 40
q91 0 148 70t57 189q0 146 -70 234t-171 88q-91 0 -149.5 -69.5t-58.5 -188.5q0 -146 71 -234.5t173 -88.5zM383 710l-126 88q-23 16 -29 32t-6 32h89l86 -152h-14z" />
    <glyph glyph-name="uni1EDD" unicode="&#x1edd;" horiz-adv-x="542" 
d="M271 -10q-101 0 -163 68t-62 168t62 167.5t163 67.5q53 0 98 -21q24 -7 45 -7q52 0 52 54v50l6 6h41q16 0 21.5 -5.5t5.5 -25.5q0 -44 -30 -71.5t-76 -27.5q-13 0 -23 1q84 -67 84 -188q0 -100 -62 -168t-162 -68zM284 34q57 0 82.5 53.5t25.5 118.5q0 80 -31 146
t-101 66q-58 0 -84.5 -52.5t-26.5 -118.5q0 -80 32.5 -146.5t102.5 -66.5zM262 530l-126 113q-21 18 -28 33t-7 31h89l86 -177h-14z" />
    <glyph glyph-name="uni1EDE" unicode="&#x1ede;" horiz-adv-x="803" 
d="M401 -10q-145 0 -240.5 96.5t-95.5 243.5t95.5 243.5t240.5 96.5q44 0 86 -10v0v0q23 -6 45 -14q15 -3 30 -3q55 0 55 54v50l6 6h41q16 0 21.5 -5.5t5.5 -25.5q0 -45 -30.5 -72t-78.5 -27h-4q73 -43 116.5 -119.5t43.5 -173.5q0 -147 -96 -243.5t-241 -96.5zM421 40
q91 0 148 70t57 189q0 146 -70 234t-171 88q-91 0 -149.5 -69.5t-58.5 -188.5q0 -146 71 -234.5t173 -88.5zM343 710v1q32 11 49.5 23t17.5 35q0 17 -16.5 28t-59.5 19l11 59q68 -6 95 -30.5t27 -50.5q0 -77 -117 -92z" />
    <glyph glyph-name="uni1EDF" unicode="&#x1edf;" horiz-adv-x="542" 
d="M271 -10q-101 0 -163 68t-62 168t62 167.5t163 67.5q53 0 98 -21q24 -7 45 -7q52 0 52 54v50l6 6h41q16 0 21.5 -5.5t5.5 -25.5q0 -44 -30 -71.5t-76 -27.5q-13 0 -23 1q84 -67 84 -188q0 -100 -62 -168t-162 -68zM284 34q57 0 82.5 53.5t25.5 118.5q0 80 -31 146
t-101 66q-58 0 -84.5 -52.5t-26.5 -118.5q0 -80 32.5 -146.5t102.5 -66.5zM219 542v1q32 11 49.5 23t17.5 35q0 17 -16.5 28t-59.5 19l11 59q68 -6 95 -30.5t27 -50.5q0 -77 -117 -92z" />
    <glyph glyph-name="uni1EE0" unicode="&#x1ee0;" horiz-adv-x="803" 
d="M401 -10q-145 0 -240.5 96.5t-95.5 243.5t95.5 243.5t240.5 96.5q44 0 86 -10v0v0q23 -6 45 -14q15 -3 30 -3q55 0 55 54v50l6 6h41q16 0 21.5 -5.5t5.5 -25.5q0 -45 -30.5 -72t-78.5 -27h-4q73 -43 116.5 -119.5t43.5 -173.5q0 -147 -96 -243.5t-241 -96.5zM421 40
q91 0 148 70t57 189q0 146 -70 234t-171 88q-91 0 -149.5 -69.5t-58.5 -188.5q0 -146 71 -234.5t173 -88.5zM236 725q25 75 46.5 96t50.5 21q40 0 71.5 -26t65.5 -26q19 0 33.5 10t27.5 42h15q-24 -75 -46 -96t-51 -21q-40 0 -71.5 26t-65.5 26q-19 0 -33 -10t-28 -42h-15z
" />
    <glyph glyph-name="uni1EE1" unicode="&#x1ee1;" horiz-adv-x="542" 
d="M271 -10q-101 0 -163 68t-62 168t62 167.5t163 67.5q53 0 98 -21q24 -7 45 -7q52 0 52 54v50l6 6h41q16 0 21.5 -5.5t5.5 -25.5q0 -44 -30 -71.5t-76 -27.5q-13 0 -23 1q84 -67 84 -188q0 -100 -62 -168t-162 -68zM284 34q57 0 82.5 53.5t25.5 118.5q0 80 -31 146
t-101 66q-58 0 -84.5 -52.5t-26.5 -118.5q0 -80 32.5 -146.5t102.5 -66.5zM113 555q27 83 48 104.5t50 21.5q40 0 71.5 -32t63.5 -32q20 0 33 13t29 51h15q-27 -83 -48 -104.5t-50 -21.5q-40 0 -71.5 32t-63.5 32q-20 0 -33 -13t-29 -51h-15z" />
    <glyph glyph-name="uni1EE2" unicode="&#x1ee2;" horiz-adv-x="803" 
d="M401 -10q-145 0 -240.5 96.5t-95.5 243.5t95.5 243.5t240.5 96.5q44 0 86 -10v0v0q23 -6 45 -14q15 -3 30 -3q55 0 55 54v50l6 6h41q16 0 21.5 -5.5t5.5 -25.5q0 -45 -30.5 -72t-78.5 -27h-4q73 -43 116.5 -119.5t43.5 -173.5q0 -147 -96 -243.5t-241 -96.5zM421 40
q91 0 148 70t57 189q0 146 -70 234t-171 88q-91 0 -149.5 -69.5t-58.5 -188.5q0 -146 71 -234.5t173 -88.5zM413 -215q-26 0 -44.5 18.5t-18.5 44.5t18.5 44.5t44.5 18.5t44.5 -18.5t18.5 -44.5t-18.5 -44.5t-44.5 -18.5z" />
    <glyph glyph-name="uni1EE3" unicode="&#x1ee3;" horiz-adv-x="542" 
d="M271 -10q-101 0 -163 68t-62 168t62 167.5t163 67.5q53 0 98 -21q24 -7 45 -7q52 0 52 54v50l6 6h41q16 0 21.5 -5.5t5.5 -25.5q0 -44 -30 -71.5t-76 -27.5q-13 0 -23 1q84 -67 84 -188q0 -100 -62 -168t-162 -68zM284 34q57 0 82.5 53.5t25.5 118.5q0 80 -31 146
t-101 66q-58 0 -84.5 -52.5t-26.5 -118.5q0 -80 32.5 -146.5t102.5 -66.5zM276 -215q-26 0 -44.5 18.5t-18.5 44.5t18.5 44.5t44.5 18.5t44.5 -18.5t18.5 -44.5t-18.5 -44.5t-44.5 -18.5z" />
    <glyph glyph-name="uni1EE4" unicode="&#x1ee4;" horiz-adv-x="816" 
d="M409 -10q-116 0 -192 64t-76 209v341l-81 40v16h267v-16l-81 -40v-330q0 -124 56.5 -173t138.5 -49q66 0 115 43t49 144v367l-98 38v16h249v-16l-81 -39v-342q0 -145 -75.5 -209t-190.5 -64zM411 -215q-26 0 -44.5 18.5t-18.5 44.5t18.5 44.5t44.5 18.5t44.5 -18.5
t18.5 -44.5t-18.5 -44.5t-44.5 -18.5z" />
    <glyph glyph-name="uni1EE5" unicode="&#x1ee5;" horiz-adv-x="568" 
d="M223 -10q-59 0 -96.5 30t-37.5 88v296l-64 31v16h158v-297q0 -42 25.5 -64t66.5 -22q25 0 55 8.5t48 25.5v302l-68 31v16h163v-406l69 -29v-16h-164v63h-5q-73 -73 -150 -73zM276 -215q-26 0 -44.5 18.5t-18.5 44.5t18.5 44.5t44.5 18.5t44.5 -18.5t18.5 -44.5
t-18.5 -44.5t-44.5 -18.5z" />
    <glyph glyph-name="uni1EE6" unicode="&#x1ee6;" horiz-adv-x="816" 
d="M409 -10q-116 0 -192 64t-76 209v341l-81 40v16h267v-16l-81 -40v-330q0 -124 56.5 -173t138.5 -49q66 0 115 43t49 144v367l-98 38v16h249v-16l-81 -39v-342q0 -145 -75.5 -209t-190.5 -64zM377 710v1q32 11 49.5 23t17.5 35q0 17 -16.5 28t-59.5 19l11 59
q68 -6 95 -30.5t27 -50.5q0 -77 -117 -92z" />
    <glyph glyph-name="uni1EE7" unicode="&#x1ee7;" horiz-adv-x="568" 
d="M223 -10q-59 0 -96.5 30t-37.5 88v296l-64 31v16h158v-297q0 -42 25.5 -64t66.5 -22q25 0 55 8.5t48 25.5v302l-68 31v16h163v-406l69 -29v-16h-164v63h-5q-73 -73 -150 -73zM226 542v1q32 11 49.5 23t17.5 35q0 17 -16.5 28t-59.5 19l11 59q68 -6 95 -30.5t27 -50.5
q0 -77 -117 -92z" />
    <glyph glyph-name="uni1EE8" unicode="&#x1ee8;" horiz-adv-x="816" 
d="M409 -10q-116 0 -192 64t-76 209v341l-81 40v16h267v-16l-81 -40v-330q0 -124 56.5 -173t138.5 -49q66 0 115 43t49 144v367l-98 38v16h252q55 0 55 51v36l6 6h41q16 0 21.5 -5.5t5.5 -25.5q0 -44 -30.5 -63t-78.5 -19h-31l-73 -35v-342q0 -145 -75.5 -209t-190.5 -64z
M418 710l86 152h89q0 -16 -6.5 -32.5t-28.5 -31.5l-126 -88h-14z" />
    <glyph glyph-name="uni1EE9" unicode="&#x1ee9;" horiz-adv-x="568" 
d="M223 -10q-59 0 -96.5 30t-37.5 88v296l-64 31v16h158v-297q0 -42 25.5 -64t66.5 -22q25 0 55 8.5t48 25.5v302l-68 31v16h163v-15q15 -3 29 -3q52 0 52 54v50l6 6h41q16 0 21.5 -5.5t5.5 -25.5q0 -44 -30 -71.5t-76 -27.5q-27 0 -49 5v-373l69 -29v-16h-164v63h-5
q-73 -73 -150 -73zM273 530l86 177h89q0 -16 -7 -31t-28 -33l-126 -113h-14z" />
    <glyph glyph-name="uni1EEA" unicode="&#x1eea;" horiz-adv-x="816" 
d="M409 -10q-116 0 -192 64t-76 209v341l-81 40v16h267v-16l-81 -40v-330q0 -124 56.5 -173t138.5 -49q66 0 115 43t49 144v367l-98 38v16h252q55 0 55 51v36l6 6h41q16 0 21.5 -5.5t5.5 -25.5q0 -44 -30.5 -63t-78.5 -19h-31l-73 -35v-342q0 -145 -75.5 -209t-190.5 -64z
M417 710l-126 88q-23 16 -29 32t-6 32h89l86 -152h-14z" />
    </font>
</defs>
</svg>
