<svg 
 xmlns="http://www.w3.org/2000/svg"
 xmlns:xlink="http://www.w3.org/1999/xlink"
 width="176px" height="176px">
<path fill-rule="evenodd"  fill="rgb(220, 81, 40)"
 d="M88.000,0.000 C136.601,0.000 176.000,39.399 176.000,88.000 C176.000,136.601 136.601,176.000 88.000,176.000 C39.399,176.000 -0.000,136.601 -0.000,88.000 C-0.000,39.399 39.399,0.000 88.000,0.000 Z"/>
<path fill-rule="evenodd"  fill="rgb(246, 245, 236)"
 d="M129.351,77.419 L89.766,37.503 C89.092,36.823 87.889,36.823 87.215,37.503 L47.502,77.548 C46.993,78.061 46.842,78.772 47.121,79.439 C47.399,80.106 48.053,80.482 48.777,80.482 L50.475,80.482 L50.475,124.999 L86.695,124.999 L90.285,124.999 L125.874,124.999 L125.874,80.482 L128.203,80.482 C128.209,80.482 128.213,80.482 128.217,80.482 C129.209,80.482 130.012,79.739 130.012,78.749 C130.012,78.189 129.755,77.747 129.351,77.419 ZM97.912,96.350 L91.450,80.482 L104.190,80.482 L97.912,96.350 ZM104.794,88.825 L104.794,113.369 L99.870,101.275 L104.794,88.825 ZM90.201,87.253 L95.919,101.294 L90.201,115.747 L90.201,87.253 ZM86.958,114.460 L81.589,101.274 L86.958,87.701 L86.958,114.460 ZM90.201,43.120 L104.497,57.535 L90.201,73.726 L90.201,43.120 ZM86.958,74.009 L72.651,57.547 L86.958,43.121 L86.958,74.009 ZM79.368,96.350 L72.908,80.482 L85.646,80.482 L79.368,96.350 ZM72.365,88.781 L77.460,101.294 L72.365,114.172 L72.365,88.781 ZM79.417,106.263 L85.728,121.762 L73.285,121.762 L79.417,106.263 ZM97.960,106.264 L104.271,121.762 L91.829,121.762 L97.960,106.264 ZM105.929,77.245 L105.650,77.135 L105.607,77.245 L92.165,77.245 L107.112,60.316 L123.901,77.245 L105.929,77.245 ZM69.856,60.329 L84.557,77.245 L71.448,77.245 L71.400,77.125 L71.104,77.245 L53.079,77.245 L69.856,60.329 Z"/>
</svg>