<svg 
 xmlns="http://www.w3.org/2000/svg"
 xmlns:xlink="http://www.w3.org/1999/xlink"
 width="176px" height="176px">
<path fill-rule="evenodd"  fill="rgb(220, 81, 40)"
 d="M88.000,0.000 C136.601,0.000 176.000,39.399 176.000,88.000 C176.000,136.601 136.601,176.000 88.000,176.000 C39.399,176.000 -0.000,136.601 -0.000,88.000 C-0.000,39.399 39.399,0.000 88.000,0.000 Z"/>
<path fill-rule="evenodd"  fill="rgb(246, 245, 236)"
 d="M50.826,54.431 C50.826,49.752 54.659,46.000 59.395,46.000 C64.129,46.000 67.959,49.752 67.959,54.431 C67.959,59.110 64.129,62.866 59.395,62.866 C54.659,62.866 50.826,59.110 50.826,54.431 ZM139.112,74.754 C139.112,70.075 135.279,66.323 130.543,66.323 C125.809,66.323 121.979,70.075 121.979,74.754 C121.979,79.433 125.809,83.189 130.543,83.189 C135.279,83.189 139.112,79.433 139.112,74.754 ZM143.756,117.642 L129.699,113.910 L124.365,116.540 L120.761,126.235 C120.125,127.942 118.487,128.999 116.743,128.999 C116.255,128.999 115.758,128.917 115.273,128.742 C113.055,127.942 111.914,125.523 112.728,123.340 L117.442,110.659 L84.727,101.975 L98.741,124.276 L106.025,124.276 L106.025,128.983 L63.043,128.983 L63.043,124.276 L70.329,124.276 L84.409,101.891 L53.054,93.570 L56.719,99.459 L56.719,99.461 C57.954,101.444 57.320,104.036 55.307,105.253 C54.610,105.672 53.839,105.873 53.077,105.873 C51.637,105.873 50.231,105.157 49.424,103.859 L42.664,92.998 L38.788,89.785 L24.000,85.860 L25.246,81.314 L31.355,82.935 C28.086,78.100 28.991,72.923 32.117,69.908 C36.175,65.994 39.636,63.355 41.446,61.884 C43.897,59.889 48.637,59.759 51.601,63.141 C53.987,65.864 54.525,68.049 55.128,70.449 C55.492,71.904 58.992,85.417 58.992,85.417 C59.457,87.222 58.350,89.055 56.519,89.513 C56.444,89.531 56.369,89.540 56.294,89.553 L114.847,105.093 C113.969,103.789 114.109,102.014 115.274,100.861 C115.274,100.861 122.977,93.208 126.833,89.406 C129.056,87.213 131.240,85.862 133.564,85.389 C138.012,84.481 142.010,87.861 142.783,92.846 C143.155,95.253 143.587,98.426 144.153,102.490 C144.620,105.849 143.178,109.441 139.821,111.721 L145.000,113.096 L143.756,117.642 ZM53.456,88.801 C52.937,88.365 52.540,87.778 52.359,87.077 L49.342,75.391 C47.234,77.255 44.631,79.538 42.215,81.614 L49.235,87.434 L49.419,87.729 L53.456,88.801 ZM119.200,106.248 L123.709,107.445 L128.808,104.933 C128.409,102.641 128.038,100.241 127.722,98.084 L120.129,105.608 C119.852,105.884 119.534,106.088 119.200,106.248 Z"/>
</svg>