<svg xmlns="http://www.w3.org/2000/svg" width="176" height="176"><path fill-rule="evenodd" fill="#DC5128" d="M88 0c48.601 0 88 39.399 88 88s-39.399 88-88 88S0 136.601 0 88 39.399 0 88 0z"/><path fill-rule="evenodd" fill="#F6F5EC" d="M131.255 61.486a5.723 5.723 0 0 1-3.259-1.015l-16.114 14.845a22.099 22.099 0 0 0-6.108-.057l19.95-17.978a5.709 5.709 0 0 1-.215-1.539 5.747 5.747 0 0 1 5.746-5.747 5.746 5.746 0 0 1 0 11.491zm-16.065 17.78c10 3.64 15.154 14.693 11.514 24.695-3.64 9.999-14.692 15.154-24.693 11.514-9.998-3.639-15.152-14.693-11.513-24.692 3.641-10.003 14.694-15.156 24.692-11.517zM97.1 93.185c-2.31 6.352.963 13.375 7.314 15.687 6.351 2.314 13.377-.963 15.688-7.314 2.31-6.355-.963-13.376-7.315-15.689-6.351-2.313-13.377.963-15.687 7.316zm-8.859-4.877l-12.929-7.017a5.725 5.725 0 0 1-6.583.996l-17.824 18.731c.532.871.844 1.892.844 2.987a5.744 5.744 0 1 1-10.729-2.849l-6.52-8.023a5.746 5.746 0 1 1 3.989-5.472 5.725 5.725 0 0 1-1.346 3.694l6.339 7.495a5.71 5.71 0 0 1 2.523-.59c.746 0 1.456.147 2.109.405l18.088-18.901a5.744 5.744 0 0 1 5.117-8.347 5.746 5.746 0 0 1 5.747 5.745c0 .227-.017.451-.043.671l13.209 6.899a22.197 22.197 0 0 0-1.991 3.576zm46.231 25.475a4.09 4.09 0 1 1-5.258 6.267l-6.481-5.439a22.13 22.13 0 0 0 5.266-6.261l6.473 5.433z"/></svg>